<svg id="Layer_1" data-name="Layer 1" xmlns="http://www.w3.org/2000/svg" width="214.24" height="242.28" viewBox="0 0 214.24 242.28">
  <defs>
    <style>
      .cls-1 {
        fill: none;
      }

      .cls-2 {
        fill: #333;
      }
    </style>
  </defs>
  <g>
    <path class="cls-1" d="M169.64,20.69c.1,0,.23,0,.37-.19a3.45,3.45,0,0,0,.44-.62,20.61,20.61,0,0,0,1.3-2.62c.38-.91.68-1.76.92-2.54a3,3,0,0,0,0-.39,1.33,1.33,0,0,0-.12-.42,1,1,0,0,0-.26-.36.85.85,0,0,0-.45-.19q-.34,0-.72.48a6.88,6.88,0,0,0-.71,1.31,16.55,16.55,0,0,0-.62,1.73,16,16,0,0,0-.4,1.76,6,6,0,0,0-.08,1.41C169.32,20.44,169.44,20.65,169.64,20.69Z" transform="translate(-18 -3.83)"/>
    <path class="cls-1" d="M142.67,9.38a9,9,0,0,1,1-1.62,5,5,0,0,1,1.21-1.07,2.53,2.53,0,0,1,1.35-.38,1.49,1.49,0,0,1,.73.17,2.09,2.09,0,0,1,.52.47c.06.06.11.13.17.2a1.2,1.2,0,0,1,.1.19s0,.08,0,.1a.51.51,0,0,1-.24,0h-.12A2.2,2.2,0,0,0,146,8a6.49,6.49,0,0,0-1.25,1.65,13.84,13.84,0,0,0-1,2.35,19,19,0,0,0-.65,2.68,16.36,16.36,0,0,0-.22,2.66,9.56,9.56,0,0,0,.26,2.32,2.51,2.51,0,0,0,.86,1.38,2,2,0,0,0,1.34.46,2.3,2.3,0,0,0,1.54-.74,8,8,0,0,0,1.37-1.88,15.53,15.53,0,0,0,1.12-2.65,19.56,19.56,0,0,0,.75-3,19.88,19.88,0,0,0,.25-3A9.75,9.75,0,0,0,150,7.53a4.23,4.23,0,0,0-1-1.89,2.53,2.53,0,0,0-1.85-.76,3.93,3.93,0,0,0-1.51.25,5.61,5.61,0,0,0-1.4.76A7,7,0,0,0,143,7a5.88,5.88,0,0,0-.86,1.38,5.45,5.45,0,0,0-.43,1.5,3.39,3.39,0,0,0,.1,1.46A14.83,14.83,0,0,1,142.67,9.38Z" transform="translate(-18 -3.83)"/>
    <path class="cls-1" d="M29.58,9.38a8.49,8.49,0,0,1,1-1.62,5,5,0,0,1,1.21-1.07,2.51,2.51,0,0,1,1.35-.38,1.49,1.49,0,0,1,.73.17,2.05,2.05,0,0,1,.51.47,1.06,1.06,0,0,1,.17.2,1.44,1.44,0,0,1,.11.19s0,.08,0,.1a.57.57,0,0,1-.25,0H34.3A2.2,2.2,0,0,0,32.86,8a6.27,6.27,0,0,0-1.25,1.65,13.07,13.07,0,0,0-1,2.35A19,19,0,0,0,30,14.71a16.39,16.39,0,0,0-.23,2.66A9.07,9.07,0,0,0,30,19.69a2.55,2.55,0,0,0,.85,1.38,2,2,0,0,0,1.35.46,2.26,2.26,0,0,0,1.53-.74,7.7,7.7,0,0,0,1.38-1.88,16.37,16.37,0,0,0,1.12-2.65,20.74,20.74,0,0,0,.74-3,18.72,18.72,0,0,0,.26-3,9.75,9.75,0,0,0-.33-2.65,4.32,4.32,0,0,0-1-1.89A2.55,2.55,0,0,0,34,4.88a4,4,0,0,0-1.52.25,5.55,5.55,0,0,0-1.39.76A7.06,7.06,0,0,0,29.93,7a6.19,6.19,0,0,0-.85,1.38,5.47,5.47,0,0,0-.44,1.5,3.39,3.39,0,0,0,.11,1.46A14.83,14.83,0,0,1,29.58,9.38Z" transform="translate(-18 -3.83)"/>
    <path class="cls-1" d="M195.45,21.2a1,1,0,0,0,.77-.08,2.29,2.29,0,0,0,.71-.66,5.8,5.8,0,0,0,.61-1.09A10.9,10.9,0,0,0,198,18a2.73,2.73,0,0,1-.73-.88,4.82,4.82,0,0,1-.4-1.12,4.4,4.4,0,0,1-.1-1.2,3.71,3.71,0,0,1,.19-1.09,1.47,1.47,0,0,0-.65.68,8.33,8.33,0,0,0-.61,1.36,13.89,13.89,0,0,0-.47,1.72,14.57,14.57,0,0,0-.25,1.7,5,5,0,0,0,0,1.36C195.1,20.91,195.24,21.13,195.45,21.2Z" transform="translate(-18 -3.83)"/>
    <path class="cls-1" d="M197.6,16.72a2.57,2.57,0,0,0,.56.84,15.33,15.33,0,0,0,.33-1.61,9.71,9.71,0,0,0,.12-1.43,3.68,3.68,0,0,0-.12-1c-.08-.27-.21-.41-.39-.43a.56.56,0,0,0-.37.19.71.71,0,0,1,.2.25.33.33,0,0,1,0,.38c-.09.12-.14.18-.17.16a.54.54,0,0,0-.17-.19l-.16-.07a2.67,2.67,0,0,0-.18.86,5.35,5.35,0,0,0,.05,1A4.52,4.52,0,0,0,197.6,16.72Z" transform="translate(-18 -3.83)"/>
    <path class="cls-1" d="M76.09,20.69c.1,0,.22,0,.37-.19a3.45,3.45,0,0,0,.44-.62,20.61,20.61,0,0,0,1.3-2.62c.37-.91.68-1.76.92-2.54a3,3,0,0,0,0-.39,1.66,1.66,0,0,0-.12-.42,1,1,0,0,0-.26-.36.92.92,0,0,0-.46-.19c-.22,0-.46.14-.71.48a7.47,7.47,0,0,0-.72,1.31,16.58,16.58,0,0,0-.61,1.73,14,14,0,0,0-.4,1.76,5.49,5.49,0,0,0-.08,1.41C75.77,20.44,75.89,20.65,76.09,20.69Z" transform="translate(-18 -3.83)"/>
    <path class="cls-1" d="M97.87,20.69c.2,0,.47-.22.81-.77A18.7,18.7,0,0,0,100,17.26a23.61,23.61,0,0,0,.91-2.73,2.7,2.7,0,0,0-.06-.36,1,1,0,0,0-.14-.35,1.25,1.25,0,0,0-.26-.3,1,1,0,0,0-.41-.16c-.22,0-.46.14-.71.48a7.47,7.47,0,0,0-.72,1.31A16.58,16.58,0,0,0,98,16.88a14,14,0,0,0-.4,1.76,5.49,5.49,0,0,0-.08,1.41C97.55,20.44,97.67,20.65,97.87,20.69Z" transform="translate(-18 -3.83)"/>
    <path class="cls-1" d="M125.86,23.91l-.81,1c-.29.37-.57.75-.83,1.14s-.57.85-.82,1.26a9.36,9.36,0,0,0-.57,1.15,2.82,2.82,0,0,0-.22.92.62.62,0,0,0,.27.57.79.79,0,0,0,1.05-.23A6.37,6.37,0,0,0,125,28.11a23.24,23.24,0,0,0,1.06-2.55c.34-1,.67-2,1-3l-.49.53C126.34,23.32,126.11,23.59,125.86,23.91Z" transform="translate(-18 -3.83)"/>
    <path class="cls-1" d="M126.18,20.69c.09,0,.2,0,.35-.17a2.91,2.91,0,0,0,.44-.6,21.18,21.18,0,0,0,1.29-2.56c.34-.83.66-1.72,1-2.66a2.75,2.75,0,0,0,0-.38,1.45,1.45,0,0,0-.12-.42,1,1,0,0,0-.27-.35.85.85,0,0,0-.45-.19c-.22,0-.46.14-.71.48a7.47,7.47,0,0,0-.72,1.31,16.58,16.58,0,0,0-.61,1.73,14,14,0,0,0-.4,1.76,6,6,0,0,0-.09,1.41C125.84,20.44,126,20.65,126.18,20.69Z" transform="translate(-18 -3.83)"/>
    <path class="cls-1" d="M162,27.35c.16,0,.31-.14.45-.41a5.28,5.28,0,0,0,.37-1.09,9.85,9.85,0,0,0,.24-1.53,14.48,14.48,0,0,0,.08-1.74,13.45,13.45,0,0,0-.13-1.7,5.55,5.55,0,0,0-.39-1.45.77.77,0,0,0-.06-.15l-.07-.14c0,.07,0,.09,0,.08s0,0,0,.07c-.08.43-.16.83-.21,1.19s-.11.72-.15,1.08-.09.72-.12,1.09-.06.78-.1,1.22-.07.81-.09,1.22,0,.79,0,1.12a6,6,0,0,0,0,.82C161.83,27.24,161.89,27.35,162,27.35Z" transform="translate(-18 -3.83)"/>
    <path class="cls-1" d="M189.15,125.15v-1.67l19.07-3.55L156.54,68.24l-2.8,5.83h-1.81l3.38-7L135.86,47.57l-2.52,18.07-1.61-.27,2.68-19.25-9.29-9.29L108.34,53.61l.2,1.12L107,55,58.5,103.45l1.45.69V106l-2.67-1.28-19,19L60,126.49v1.65l-23.08-3.06L23,139l10.35,10.36,17.88-2.86.25,1.62-16.7,2.67L55.16,171.2l3.21-1.71.71,1.47-2.71,1.44,32.3,32.31.71-1.44H91.2l-1.3,2.67,21.22,21.21L113,211.88l1.62.25-1.9,15.28-1.6-.24,14,14,12.68-12.68-4.11-25.21h1.65l3.88,23.79,20.51-20.5L158,203.27h1.85l1.08,2.07,33.46-33.46L191,170.19l.85-1.4,3.74,1.87,21.2-21.2-7.75-1,.18-1.63,9,1.18,9-9-17.66-17.66ZM60,146.75l-5.62.89L54.08,146l5.87-.94Zm71.37-78.48,1.61.27-.77,5.53h-1.65ZM109.08,57.6l3.07,16.47h-1.66l-3-16.2ZM76.32,165.46a.79.79,0,0,1-.24-1.1l4.79-7.52h0a.8.8,0,1,1,1.35.86l-4.79,7.52A.8.8,0,0,1,76.32,165.46Zm2.86,3.67a.79.79,0,0,1-.25-1.1l4.57-7.17h0a.81.81,0,0,1,1.11-.24.79.79,0,0,1,.24,1.1l-4.57,7.17A.79.79,0,0,1,79.18,169.13ZM89.7,162.4,86.12,168a.8.8,0,1,1-1.35-.87l3.58-5.56a.8.8,0,1,1,1.35.87ZM115,209.23l-1.62-.25.71-5.71h1.64Zm19.28-56.41a1.27,1.27,0,0,1,2.53-.13c.29,5.34,2,4.69,3.71,2.45a69.73,69.73,0,0,0,6.31-11,7.39,7.39,0,0,0,1-3.63c-.1-.74-.75-1.36-2.33-1.81a4.27,4.27,0,0,0-1.91-.09,4.41,4.41,0,0,0-2,.94,3.46,3.46,0,0,0-1.2,3.32h0a1.27,1.27,0,1,1-2.49.46,6.07,6.07,0,0,1,.12-2.73,6,6,0,0,1,1.94-3,6.81,6.81,0,0,1,6.22-1.36c2.75.78,3.91,2.15,4.16,3.9a9.35,9.35,0,0,1-1.25,5.06,72.37,72.37,0,0,1-6.59,11.47C138.63,161.7,134.86,163.51,134.27,152.82Zm15.48,16.23a1.23,1.23,0,0,1-.69.18,59.83,59.83,0,0,0,.43,7.18,53.41,53.41,0,0,0,3,12.38,1.27,1.27,0,0,1-2.37.9,56.68,56.68,0,0,1-3.18-13,65.27,65.27,0,0,1-.06-14.61,1.26,1.26,0,0,1,2.51.25c-.14,1.4-.24,2.78-.3,4.13,17.42-10.49,23.09-25.73,21.11-39.94a45.08,45.08,0,0,0-11.47-23.92,42.84,42.84,0,0,0-23.15-13.35c-15.19-3-33.2,2.93-49.42,24.35l7.28,3.17.21.11,0,0c4.47,1.64,10.51-.2,16.28-2,4.15-1.26,8.17-2.49,11.65-2.47a1.4,1.4,0,0,1,.49.06,1.28,1.28,0,0,1,.81,1.6c-1.92,5.81-1.71,10.1-.06,13.44s4.79,5.85,8.69,8a1.26,1.26,0,0,1-1.21,2.22c-4.33-2.36-7.83-5.18-9.75-9.08-1.76-3.57-2.16-8-.61-13.6a52.7,52.7,0,0,0-9.27,2.27c-5.89,1.79-12,3.66-17.14,2.16a16.73,16.73,0,0,0-1.36,3.77,26.9,26.9,0,0,0-.7,5.54c-.06,1.69,0,2.85,0,3.74.1,2.66.13,3.33-2.14,8l-4,8.16a1.74,1.74,0,0,1-.1.19,5.37,5.37,0,0,0-1,2.75,2.57,2.57,0,0,0,.24,1.18,1.92,1.92,0,0,0,.63.72,2.27,2.27,0,0,0,1.11.33h.1l4.67.28a1.22,1.22,0,0,1,.43-.09h.13l4.24.37A1.26,1.26,0,1,1,95.7,157h-.07l-2.78-.17v.7c0,1.92,0,3.82.18,5.74l.19,2.56c.06.9.14,1.8.26,2.69.16,1.18.37,2.38.64,3.6A1.25,1.25,0,0,1,94,173a13.08,13.08,0,0,0-1.49,4.75A4,4,0,0,0,93.54,181a6.9,6.9,0,0,0,3.68,1.68,26.19,26.19,0,0,0,9.07-.29,57.69,57.69,0,0,0,10.28-2.83,28.15,28.15,0,0,0,7.25-3.93c2-1.57,2.84-4.08,3.59-6.22.15-.42.29-.82.37-1l.21-.59c.91-2.5,2.49-6.85,4.5-8.39a1.26,1.26,0,1,1,1.54,2c-1.42,1.1-2.84,5-3.66,7.26-.15.41-.16.45-.22.59-.16.44-.25.71-.35,1-.87,2.47-1.88,5.35-4.4,7.37a30.72,30.72,0,0,1-7.91,4.31c-.76.29-1.53.57-2.31.82a25.14,25.14,0,0,1-.09,3.36,27.56,27.56,0,0,1-.78,4.26,1.27,1.27,0,0,1-2.45-.65,24.78,24.78,0,0,0,.71-3.85,22.72,22.72,0,0,0,.1-2.35c-2,.57-4,1-5.93,1.37a28.67,28.67,0,0,1-10,.29,9.28,9.28,0,0,1-5-2.39A6.46,6.46,0,0,1,90,177.63a15.06,15.06,0,0,1,1.6-5.42c-.23-1.09-.42-2.22-.58-3.38s-.28-2.57-.32-3.88a.28.28,0,0,1,0-.09.88.88,0,0,1,0-.17c-.23-2.42-.26-4.77-.3-7.15v-.87l-4-.24h0a4.79,4.79,0,0,1-2.41-.74A4.43,4.43,0,0,1,82.33,154a5,5,0,0,1-.49-2.35,7.78,7.78,0,0,1,1.35-4l4-8.13c2-4.06,2-4.61,1.88-6.76,0-.93-.09-2.13,0-3.92a30.16,30.16,0,0,1,.77-6.06,19.46,19.46,0,0,1,1.47-4.13l-7.55-3.29a1.27,1.27,0,0,1-.65-1.67,1.16,1.16,0,0,1,.14-.24h0C100.36,90,119.73,83.55,136.1,86.78a45.42,45.42,0,0,1,24.52,14.13,47.7,47.7,0,0,1,12.12,25.28C174.87,141.52,168.71,157.94,149.75,169.05Zm39.4-1.39v-.23l.11,0Zm17-19.59-17-2.23V144.2l17.19,2.24Z" transform="translate(-18 -3.83)"/>
    <path class="cls-1" d="M215.31,23.91l-.81,1c-.29.37-.57.75-.83,1.14s-.57.85-.82,1.26a9.36,9.36,0,0,0-.57,1.15,2.82,2.82,0,0,0-.22.92.62.62,0,0,0,.27.57.79.79,0,0,0,1-.23,6.37,6.37,0,0,0,1.07-1.63,23.24,23.24,0,0,0,1.06-2.55c.34-1,.67-2,1-3l-.49.53C215.79,23.32,215.56,23.59,215.31,23.91Z" transform="translate(-18 -3.83)"/>
    <polygon class="cls-2" points="198.72 83.27 197.94 81.83 176.87 93.13 177.72 94.53 198.72 83.27"/>
    <polygon class="cls-2" points="171.15 142.01 188.17 144.24 188.34 142.61 171.15 140.36 171.15 142.01"/>
    <polygon class="cls-2" points="143.83 206.75 153 224.32 154.44 223.56 145.21 205.86 143.83 206.75"/>
    <polygon class="cls-2" points="190.03 174.87 200.2 179.95 200.92 178.48 190.89 173.47 190.03 174.87"/>
    <polygon class="cls-2" points="171.15 163.83 171.26 163.65 171.15 163.59 171.15 163.83"/>
    <polygon class="cls-2" points="95.37 205.15 96.99 205.39 97.72 199.44 96.08 199.44 95.37 205.15"/>
    <polygon class="cls-2" points="34.19 206.63 41.95 198.61 41.95 196.26 33 205.5 34.19 206.63"/>
    <polygon class="cls-2" points="13.09 180.14 13.86 181.58 24.89 175.73 24.18 174.25 13.09 180.14"/>
    <polygon class="cls-2" points="36.33 143.81 41.95 142.91 41.95 141.26 36.08 142.2 36.33 143.81"/>
    <polygon class="cls-2" points="12.24 87.93 31.57 97.16 32.32 95.71 12.93 86.45 12.24 87.93"/>
    <polygon class="cls-2" points="41.95 70.42 30.86 59.67 29.73 60.85 41.95 72.7 41.95 70.42"/>
    <polygon class="cls-2" points="54.75 41.23 63.43 57.29 64.82 56.43 56.19 40.45 54.75 41.23"/>
    <polygon class="cls-2" points="114.93 64.7 113.32 64.44 112.51 70.24 114.16 70.24 114.93 64.7"/>
    <polygon class="cls-2" points="163.19 70.24 165.44 70.24 179.05 55.96 177.86 54.84 163.19 70.24"/>
    <polygon class="cls-2" points="171.15 196.72 180.15 205.59 181.29 204.42 171.15 194.43 171.15 196.72"/>
    <path class="cls-2" d="M232.24,139,213.8,120.55l14.6-2.72-.31-1.6-15.69,2.92L158.14,64.89,169.9,40.35l-1.47-.7-11.51,24L136.47,43.22,138,32.13l-1.62-.22L135,41.77l-9.9-9.9L107.56,49.44l-3.17-17-1.61.31,3.38,18.1L87.7,69.29l-3.49-6.45-1.39.86,3.68,6.8L55.15,101.84l-2.18-1-.76,1.45,1.71.82L34,123l-12.52-1.65-.2,1.62,11.26,1.49L18,139l11,11-8.12,1.3.27,1.61,9.27-1.48,21.46,21.45-7.16,3.8.71,1.48,7.66-4.07L87.05,208l-9.83,20.09,1.47.71,9.58-19.58,22.3,22.3-.85,6.84,1.62.19L112,233l13.09,13.09,13.38-13.38.94,5.78,1.61-.28-1.13-6.92,57.78-57.79,7.7,3.85.86-1.4-7.34-3.66L221.2,150l8,1,.2-1.62-6.76-.88,8.35-8.35Zm-14,9-9-1.18-.18,1.63,7.75,1-21.2,21.2-3.74-1.87-.85,1.4,3.37,1.69-33.46,33.46-1.08-2.07H158l1.72,3.29-20.51,20.5-3.88-23.79h-1.65l4.11,25.21-12.68,12.68-14-14,1.6.24,1.9-15.28-1.62-.25-1.89,15.27L89.9,205.94l1.3-2.67H89.38l-.71,1.44L56.37,172.4,59.08,171l-.71-1.47-3.21,1.71L34.74,150.78l16.7-2.67-.25-1.62-17.88,2.86L23,139l13.91-13.91L60,128.14v-1.65l-21.63-2.87,19-19L60,106v-1.81l-1.45-.69L107,55l1.58-.26-.2-1.12,16.78-16.78,9.29,9.29-2.68,19.25,1.61.27,2.52-18.07L155.31,67l-3.38,7h1.81l2.8-5.83,51.68,51.69-19.07,3.55v1.67l20.48-3.82L227.29,139Z" transform="translate(-18 -3.83)"/>
    <polygon class="cls-2" points="94.15 70.24 91.08 53.77 89.47 54.04 92.49 70.24 94.15 70.24"/>
    <path class="cls-2" d="M84.61,160.62a.81.81,0,0,0-1.11.24h0L78.93,168a.8.8,0,0,0,1.35.86l4.57-7.17A.79.79,0,0,0,84.61,160.62Z" transform="translate(-18 -3.83)"/>
    <path class="cls-2" d="M82,156.59a.81.81,0,0,0-1.1.25h0l-4.79,7.52a.79.79,0,0,0,.24,1.1.8.8,0,0,0,1.11-.24l4.79-7.52A.8.8,0,0,0,82,156.59Z" transform="translate(-18 -3.83)"/>
    <path class="cls-2" d="M150.36,140.16c-.25-1.75-1.41-3.12-4.16-3.9a6.81,6.81,0,0,0-6.22,1.36,6,6,0,0,0-1.94,3,6.07,6.07,0,0,0-.12,2.73,1.27,1.27,0,1,0,2.49-.46h0a3.46,3.46,0,0,1,1.2-3.32,4.41,4.41,0,0,1,2-.94,4.27,4.27,0,0,1,1.91.09c1.58.45,2.23,1.07,2.33,1.81a7.39,7.39,0,0,1-1,3.63,69.73,69.73,0,0,1-6.31,11c-1.73,2.24-3.42,2.89-3.71-2.45a1.27,1.27,0,0,0-2.53.13c.59,10.69,4.36,8.88,8.25,3.87a72.37,72.37,0,0,0,6.59-11.47A9.35,9.35,0,0,0,150.36,140.16Z" transform="translate(-18 -3.83)"/>
    <path class="cls-2" d="M89.46,161.29a.8.8,0,0,0-1.11.24l-3.58,5.56a.8.8,0,1,0,1.35.87l3.58-5.56A.8.8,0,0,0,89.46,161.29Z" transform="translate(-18 -3.83)"/>
    <path class="cls-2" d="M160.62,100.91A45.42,45.42,0,0,0,136.1,86.78c-16.37-3.23-35.74,3.22-52.9,26.61h0a1.16,1.16,0,0,0-.14.24,1.27,1.27,0,0,0,.65,1.67l7.55,3.29a19.46,19.46,0,0,0-1.47,4.13,30.16,30.16,0,0,0-.77,6.06c-.06,1.79,0,3,0,3.92.08,2.15.11,2.7-1.88,6.76l-4,8.13a7.78,7.78,0,0,0-1.35,4,5,5,0,0,0,.49,2.35,4.43,4.43,0,0,0,1.52,1.72,4.79,4.79,0,0,0,2.41.74h0l4,.24v.87c0,2.38.07,4.73.3,7.15a.88.88,0,0,0,0,.17.28.28,0,0,0,0,.09c0,1.31.16,2.6.32,3.88s.35,2.29.58,3.38a15.06,15.06,0,0,0-1.6,5.42,6.46,6.46,0,0,0,1.78,5.19,9.28,9.28,0,0,0,5,2.39,28.67,28.67,0,0,0,10-.29c1.89-.34,3.9-.8,5.93-1.37a22.72,22.72,0,0,1-.1,2.35,24.78,24.78,0,0,1-.71,3.85,1.27,1.27,0,0,0,2.45.65,27.56,27.56,0,0,0,.78-4.26,25.14,25.14,0,0,0,.09-3.36c.78-.25,1.55-.53,2.31-.82a30.72,30.72,0,0,0,7.91-4.31c2.52-2,3.53-4.9,4.4-7.37.1-.28.19-.55.35-1,.06-.14.07-.18.22-.59.82-2.26,2.24-6.16,3.66-7.26a1.26,1.26,0,1,0-1.54-2c-2,1.54-3.59,5.89-4.5,8.39l-.21.59c-.08.21-.22.61-.37,1-.75,2.14-1.63,4.65-3.59,6.22a28.15,28.15,0,0,1-7.25,3.93,57.69,57.69,0,0,1-10.28,2.83,26.19,26.19,0,0,1-9.07.29A6.9,6.9,0,0,1,93.54,181a4,4,0,0,1-1.06-3.26A13.08,13.08,0,0,1,94,173a1.25,1.25,0,0,0,.16-.93c-.27-1.22-.48-2.42-.64-3.6-.12-.89-.2-1.79-.26-2.69L93,163.25c-.13-1.92-.15-3.82-.18-5.74v-.7l2.78.17h.07a1.26,1.26,0,1,0,.21-2.52l-4.24-.37h-.13a1.22,1.22,0,0,0-.43.09l-4.67-.28h-.1a2.27,2.27,0,0,1-1.11-.33,1.92,1.92,0,0,1-.63-.72,2.57,2.57,0,0,1-.24-1.18,5.37,5.37,0,0,1,1-2.75,1.74,1.74,0,0,0,.1-.19l4-8.16c2.27-4.64,2.24-5.31,2.14-8,0-.89-.09-2,0-3.74a26.9,26.9,0,0,1,.7-5.54,16.73,16.73,0,0,1,1.36-3.77c5.11,1.5,11.25-.37,17.14-2.16a52.7,52.7,0,0,1,9.27-2.27c-1.55,5.64-1.15,10,.61,13.6,1.92,3.9,5.42,6.72,9.75,9.08a1.26,1.26,0,0,0,1.21-2.22c-3.9-2.13-7-4.62-8.69-8S121,120,123,114.16a1.28,1.28,0,0,0-.81-1.6,1.4,1.4,0,0,0-.49-.06c-3.48,0-7.5,1.21-11.65,2.47-5.77,1.76-11.81,3.6-16.28,2l0,0-.21-.11-7.28-3.17c16.22-21.42,34.23-27.35,49.42-24.35a42.84,42.84,0,0,1,23.15,13.35,45.08,45.08,0,0,1,11.47,23.92c2,14.21-3.69,29.45-21.11,39.94.06-1.35.16-2.73.3-4.13a1.26,1.26,0,0,0-2.51-.25,65.27,65.27,0,0,0,.06,14.61,56.68,56.68,0,0,0,3.18,13,1.27,1.27,0,0,0,2.37-.9,53.41,53.41,0,0,1-3-12.38,59.83,59.83,0,0,1-.43-7.18,1.23,1.23,0,0,0,.69-.18c19-11.11,25.12-27.53,23-42.86A47.7,47.7,0,0,0,160.62,100.91Z" transform="translate(-18 -3.83)"/>
    <path class="cls-2" d="M27.61,12.28a2.83,2.83,0,0,0,.76.37,16.09,16.09,0,0,0-.4,2.07,18.2,18.2,0,0,0-.13,2A11.28,11.28,0,0,0,28,18.66a6.32,6.32,0,0,0,.5,1.59,3.31,3.31,0,0,0,3,2,4.37,4.37,0,0,0,2-.51,7.15,7.15,0,0,0,1.83-1.39,11.21,11.21,0,0,0,1.56-2.07,15,15,0,0,0,1.21-2.52,17.81,17.81,0,0,0,.78-2.73,13.63,13.63,0,0,0,.29-2.73,10,10,0,0,0-.28-2.49,5.65,5.65,0,0,0-.93-2,4.44,4.44,0,0,0-1.64-1.36A5,5,0,0,0,33.94,4a6.38,6.38,0,0,0-1.78.3,7.84,7.84,0,0,0-1.75.79,8.5,8.5,0,0,0-1.54,1.2,6.84,6.84,0,0,0-1.18,1.51,5.53,5.53,0,0,0-.63,1.79,4.78,4.78,0,0,0,.11,2A1.14,1.14,0,0,0,27.61,12.28Zm1-2.37a5.47,5.47,0,0,1,.44-1.5A6.19,6.19,0,0,1,29.93,7a7.06,7.06,0,0,1,1.18-1.14,5.55,5.55,0,0,1,1.39-.76A4,4,0,0,1,34,4.88a2.55,2.55,0,0,1,1.85.76,4.32,4.32,0,0,1,1,1.89,9.75,9.75,0,0,1,.33,2.65,18.72,18.72,0,0,1-.26,3,20.74,20.74,0,0,1-.74,3,16.37,16.37,0,0,1-1.12,2.65,7.7,7.7,0,0,1-1.38,1.88,2.26,2.26,0,0,1-1.53.74,2,2,0,0,1-1.35-.46A2.55,2.55,0,0,1,30,19.69a9.07,9.07,0,0,1-.27-2.32A16.39,16.39,0,0,1,30,14.71,19,19,0,0,1,30.62,12a13.07,13.07,0,0,1,1-2.35A6.27,6.27,0,0,1,32.86,8a2.2,2.2,0,0,1,1.44-.65h.11a.57.57,0,0,0,.25,0s0-.05,0-.1a1.44,1.44,0,0,0-.11-.19,1.06,1.06,0,0,0-.17-.2,2.05,2.05,0,0,0-.51-.47,1.49,1.49,0,0,0-.73-.17,2.51,2.51,0,0,0-1.35.38,5,5,0,0,0-1.21,1.07,8.49,8.49,0,0,0-1,1.62,14.83,14.83,0,0,0-.83,2A3.39,3.39,0,0,1,28.64,9.91Z" transform="translate(-18 -3.83)"/>
    <path class="cls-2" d="M41.5,21.59a1.14,1.14,0,0,0,.88.38,1.67,1.67,0,0,0,.88-.29,2.71,2.71,0,0,0,.63-.51,7,7,0,0,0,.63-.77c.2-.27.39-.55.57-.83s.32-.53.43-.73.19-.35.28-.52.18-.34.28-.51c-.13.54-.24,1.05-.32,1.55a4.6,4.6,0,0,0,0,1.33,1.83,1.83,0,0,0,.37.9A1.15,1.15,0,0,0,47,22a1.61,1.61,0,0,0,.72-.19,3.63,3.63,0,0,0,.7-.48,7.13,7.13,0,0,0,.61-.62c.19-.22.35-.42.49-.6a21,21,0,0,0,1.26-1.83c.4-.65.77-1.29,1.11-1.93a.31.31,0,0,0,0-.2.18.18,0,0,0-.09-.12.15.15,0,0,0-.16,0,.31.31,0,0,0-.15.15c-.34.64-.7,1.27-1.08,1.9a17.66,17.66,0,0,1-1.23,1.79c-.06.08-.16.19-.3.35a6.25,6.25,0,0,1-.44.45A2.62,2.62,0,0,1,48,21a.33.33,0,0,1-.37,0c-.12-.08-.16-.28-.13-.6a7.64,7.64,0,0,1,.18-1.17c.1-.45.23-.95.39-1.48s.32-1,.48-1.52.32-.92.48-1.3a5.94,5.94,0,0,1,.39-.82.68.68,0,0,0,0-.74,1.52,1.52,0,0,0-.58-.54,2.27,2.27,0,0,0-.78-.27.66.66,0,0,0-.57.08,4.28,4.28,0,0,1-.27,1.24c-.17.54-.38,1.11-.63,1.7s-.5,1.15-.76,1.7-.48,1-.66,1.29l-.34.58c-.16.28-.34.56-.54.85a7.24,7.24,0,0,1-.62.76.83.83,0,0,1-.51.33c-.12,0-.19,0-.23-.17a1.23,1.23,0,0,1-.06-.39A5.34,5.34,0,0,1,43,19.6q.1-.55.27-1.2t.39-1.32q.21-.66.42-1.26c.14-.39.27-.75.39-1.05a4.61,4.61,0,0,1,.33-.67.68.68,0,0,0,0-.74,1.56,1.56,0,0,0-.57-.54,2.15,2.15,0,0,0-.77-.27.69.69,0,0,0-.58.08,3.23,3.23,0,0,1-.14.81q-.14.54-.33,1.17c-.12.41-.25.81-.37,1.19s-.22.69-.29.92c-.2.71-.37,1.42-.51,2.12a5.83,5.83,0,0,0-.13,1.85A2.06,2.06,0,0,0,41.5,21.59Z" transform="translate(-18 -3.83)"/>
    <path class="cls-2" d="M52.33,13.36a1.52,1.52,0,0,1,.61-.12l.88,0c-.21.9-.42,1.77-.62,2.61s-.38,1.61-.53,2.34c0,.19-.08.49-.14.9a7.67,7.67,0,0,0-.06,1.27,3.07,3.07,0,0,0,.26,1.13.8.8,0,0,0,.79.48,1.73,1.73,0,0,0,.79-.17,3,3,0,0,0,.67-.46,4.15,4.15,0,0,0,.57-.61c.18-.22.35-.45.53-.68a20.27,20.27,0,0,0,1.27-1.82c.39-.64.76-1.29,1.1-1.94a.31.31,0,0,0,0-.2A.18.18,0,0,0,58.4,16a.14.14,0,0,0-.15,0,.44.44,0,0,0-.16.15c-.32.64-.68,1.27-1.07,1.9a19.54,19.54,0,0,1-1.24,1.79c-.07.08-.15.18-.25.32a2.63,2.63,0,0,1-.35.41,2.14,2.14,0,0,1-.4.35.64.64,0,0,1-.38.14c-.12,0-.2-.08-.24-.26a2.71,2.71,0,0,1,0-.59c0-.22,0-.44.06-.65a4.15,4.15,0,0,1,.08-.44c.07-.3.14-.66.24-1.09s.2-.9.32-1.42.25-1.06.38-1.64.29-1.14.44-1.72l.61.06.39,0h.52a.9.9,0,0,0,.46-.16,1.13,1.13,0,0,0,.28-.34,1.19,1.19,0,0,0,.11-.42,2.15,2.15,0,0,0,0-.36.18.18,0,0,0-.1-.16s-.1,0-.16.1a.91.91,0,0,1-.56.21,9.74,9.74,0,0,1-1.29,0c.14-.57.29-1.17.44-1.8a13.47,13.47,0,0,1,.56-1.76.81.81,0,0,0,0-.76,1.52,1.52,0,0,0-.55-.52,2,2,0,0,0-.72-.23.73.73,0,0,0-.54.12,3.32,3.32,0,0,1-.06.93c-.07.43-.16.9-.27,1.4s-.22,1-.33,1.46-.21.83-.26,1.08l-.74,0h-.6a.49.49,0,0,0-.36.14.9.9,0,0,0-.23.31,1.65,1.65,0,0,0-.11.36,2.13,2.13,0,0,0,0,.3c0,.17,0,.27.09.31S52.26,13.49,52.33,13.36Z" transform="translate(-18 -3.83)"/>
    <path class="cls-2" d="M58.13,18.3A3.34,3.34,0,0,0,58.76,21a2.68,2.68,0,0,0,1,.77,2.37,2.37,0,0,0,1.21.21A3.17,3.17,0,0,0,62.87,21a3.82,3.82,0,0,0,1-2.12,6.36,6.36,0,0,0,0-1.33c0-.48-.09-1-.17-1.46s-.17-1-.27-1.44-.19-.91-.25-1.31a6.67,6.67,0,0,1-.09-.67,1.6,1.6,0,0,1,0-.49,1.5,1.5,0,0,1,.17-.4c.07-.14.15-.28.23-.41s.16-.27.24-.39a1.55,1.55,0,0,0,.15-.33,1.92,1.92,0,0,0-.38-.37,2,2,0,0,0-.7-.29,1.52,1.52,0,0,0-1.09.08,1.21,1.21,0,0,0-.53.69,3.43,3.43,0,0,0-.14,1.07c0,.41,0,.82.07,1.23a1.77,1.77,0,0,0,0,.23.83.83,0,0,0,0,.22q-.37.85-.78,1.68c-.27.55-.57,1.1-.88,1.65a.3.3,0,0,0,0,.19.14.14,0,0,0,.09.11.32.32,0,0,0,.14,0,.22.22,0,0,0,.13-.11l.75-1.35c.25-.47.49-.94.72-1.42l.07.38c.05.24.12.57.2,1s.15.87.22,1.36.1,1,.12,1.47a5.59,5.59,0,0,1-.08,1.28,2.91,2.91,0,0,1-.38.95.88.88,0,0,1-.81.39,1.14,1.14,0,0,1-.86-.34,2.3,2.3,0,0,1-.5-.83,4.21,4.21,0,0,1-.09-2.11c0-.05,0-.09,0-.13a.93.93,0,0,1,0-.13,1.31,1.31,0,0,0-.27,0,.82.82,0,0,0-.66.13A1.12,1.12,0,0,0,58.13,18.3Z" transform="translate(-18 -3.83)"/>
    <path class="cls-2" d="M67.07,13.36a1.51,1.51,0,0,1,.6-.12l.89,0c-.21.9-.42,1.77-.62,2.61s-.38,1.61-.53,2.34c0,.19-.08.49-.14.9a6.72,6.72,0,0,0-.06,1.27,3.07,3.07,0,0,0,.26,1.13.8.8,0,0,0,.79.48,1.73,1.73,0,0,0,.79-.17,3,3,0,0,0,.67-.46,4.77,4.77,0,0,0,.57-.61c.18-.22.35-.45.53-.68a20.27,20.27,0,0,0,1.27-1.82c.39-.64.76-1.29,1.1-1.94a.31.31,0,0,0,0-.2.22.22,0,0,0-.09-.12A.14.14,0,0,0,73,16a.44.44,0,0,0-.16.15c-.32.64-.68,1.27-1.07,1.9a19.54,19.54,0,0,1-1.24,1.79c-.07.08-.15.18-.25.32a2.63,2.63,0,0,1-.35.41,2.14,2.14,0,0,1-.4.35.64.64,0,0,1-.38.14c-.12,0-.2-.08-.24-.26a2.2,2.2,0,0,1-.05-.59c0-.22,0-.44.06-.65a4.15,4.15,0,0,1,.08-.44c.06-.3.14-.66.24-1.09s.2-.9.32-1.42.24-1.06.38-1.64.29-1.14.44-1.72l.61.06.39,0h.52a.9.9,0,0,0,.46-.16,1,1,0,0,0,.27-.34,1,1,0,0,0,.12-.42,2.15,2.15,0,0,0,0-.36.21.21,0,0,0-.1-.16s-.1,0-.17.1a.86.86,0,0,1-.55.21,9.74,9.74,0,0,1-1.29,0c.14-.57.28-1.17.44-1.8a13.47,13.47,0,0,1,.56-1.76.81.81,0,0,0,0-.76A1.48,1.48,0,0,0,71,7.36a1.91,1.91,0,0,0-.71-.23.72.72,0,0,0-.54.12,3.32,3.32,0,0,1-.06.93c-.07.43-.16.9-.27,1.4s-.22,1-.34,1.46-.2.83-.25,1.08l-.74,0h-.6a.49.49,0,0,0-.36.14.9.9,0,0,0-.23.31,1.24,1.24,0,0,0-.11.36,2.13,2.13,0,0,0,0,.3c0,.17,0,.27.08.31S67,13.49,67.07,13.36Z" transform="translate(-18 -3.83)"/>
    <path class="cls-2" d="M74.18,20.69a2.26,2.26,0,0,0,.51.7,1,1,0,0,0,.72.29,1.48,1.48,0,0,0,.85-.33,2.52,2.52,0,0,0,.49-.49c.15-.2.31-.45.49-.74s.27-.46.4-.7.26-.5.37-.75a9.11,9.11,0,0,0-.16,1.08,4.19,4.19,0,0,0,0,.94,1.74,1.74,0,0,0,.37.9,1.19,1.19,0,0,0,.89.38,1.54,1.54,0,0,0,.71-.19,3.89,3.89,0,0,0,.69-.48,5.93,5.93,0,0,0,.61-.62c.19-.22.35-.42.49-.6A11.48,11.48,0,0,0,82.39,19c.26-.38.49-.75.7-1.1l.56-.95c.15-.28.27-.49.34-.63a.26.26,0,0,0,0-.2A.2.2,0,0,0,84,16a.14.14,0,0,0-.15,0,.26.26,0,0,0-.14.15l-.36.64c-.16.28-.35.59-.56.93s-.43.71-.67,1.08-.5.71-.75,1l-.29.35a3.73,3.73,0,0,1-.44.45,3,3,0,0,1-.47.34.35.35,0,0,1-.38,0q-.15-.12-.12-.6a7.64,7.64,0,0,1,.18-1.17c.1-.45.23-.95.38-1.48s.32-1,.49-1.52.33-.92.48-1.3a5.12,5.12,0,0,1,.38-.82.69.69,0,0,0,0-.74,1.59,1.59,0,0,0-.58-.54,2.15,2.15,0,0,0-.77-.27.66.66,0,0,0-.57.08,2.37,2.37,0,0,1-.08.51c0,.21-.11.45-.19.71A1.78,1.78,0,0,0,79,13.1a1.34,1.34,0,0,0-.73-.43,1.87,1.87,0,0,0-1.51.37,5.84,5.84,0,0,0-1.43,1.49,9.39,9.39,0,0,0-1.08,2.12,7.08,7.08,0,0,0-.44,2.29,4,4,0,0,0,.1.85A3.79,3.79,0,0,0,74.18,20.69Zm1.63-2.05a14,14,0,0,1,.4-1.76,16.58,16.58,0,0,1,.61-1.73,7.47,7.47,0,0,1,.72-1.31c.25-.34.49-.5.71-.48a.92.92,0,0,1,.46.19,1,1,0,0,1,.26.36,1.66,1.66,0,0,1,.12.42,3,3,0,0,1,0,.39c-.24.78-.55,1.63-.92,2.54a20.61,20.61,0,0,1-1.3,2.62,3.45,3.45,0,0,1-.44.62c-.15.15-.27.21-.37.19s-.32-.25-.36-.64A5.49,5.49,0,0,1,75.81,18.64Z" transform="translate(-18 -3.83)"/>
    <path class="cls-2" d="M85,22a2.59,2.59,0,0,0,.85-.13,2,2,0,0,1,0-.48c0-.18.06-.4.11-.65a12.43,12.43,0,0,1,.36-1.25A16.14,16.14,0,0,1,86.94,18c.23-.52.49-1,.76-1.54a9.31,9.31,0,0,1,.85-1.29c.21-.28.42-.54.62-.78a6.62,6.62,0,0,1,.55-.59,1.74,1.74,0,0,1,.42-.33q.18-.09.27,0c.1.1.13.29.07.58s-.15.62-.28,1-.29.86-.47,1.36-.35,1-.49,1.49a13.92,13.92,0,0,0-.35,1.49,4.31,4.31,0,0,0-.06,1.32,1.75,1.75,0,0,0,.38.9,1.15,1.15,0,0,0,.88.38,1.61,1.61,0,0,0,.72-.19,3.89,3.89,0,0,0,.69-.48,7.13,7.13,0,0,0,.61-.62c.19-.22.35-.42.49-.6a20.27,20.27,0,0,0,1.27-1.82c.39-.64.76-1.29,1.1-1.94a.31.31,0,0,0,0-.2.22.22,0,0,0-.09-.12.14.14,0,0,0-.15,0,.38.38,0,0,0-.16.15c-.33.64-.68,1.27-1.07,1.9a19.54,19.54,0,0,1-1.24,1.79l-.31.35a3.73,3.73,0,0,1-.44.45,2.26,2.26,0,0,1-.46.34.35.35,0,0,1-.38,0c-.11-.08-.15-.28-.12-.62a8.94,8.94,0,0,1,.21-1.22c.11-.47.24-1,.4-1.51s.32-1.06.47-1.57.28-1,.39-1.34a4.69,4.69,0,0,0,.18-.86,2.24,2.24,0,0,0-.11-.81,1,1,0,0,0-.4-.5,1.1,1.1,0,0,0-.61-.14,1.91,1.91,0,0,0-.74.23,3.22,3.22,0,0,0-.77.53,7.93,7.93,0,0,0-.76.77c-.25.29-.5.6-.74.93a10.27,10.27,0,0,0-.69,1q.28-.79.54-1.38c.17-.39.3-.67.4-.85a.67.67,0,0,0,0-.72,1.43,1.43,0,0,0-.56-.53,2.4,2.4,0,0,0-.77-.25.68.68,0,0,0-.56.09,3.83,3.83,0,0,1-.17.94c-.11.41-.25.86-.42,1.38s-.34,1.06-.53,1.65S85,17.4,84.82,18s-.32,1.13-.43,1.66A8.25,8.25,0,0,0,84.2,21a.82.82,0,0,0,.24.73A1.15,1.15,0,0,0,85,22Z" transform="translate(-18 -3.83)"/>
    <path class="cls-2" d="M96,20.69a2.26,2.26,0,0,0,.51.7,1,1,0,0,0,.72.29,1.48,1.48,0,0,0,.85-.33,2.52,2.52,0,0,0,.49-.49c.15-.2.31-.45.49-.74s.36-.62.53-1,.33-.68.48-1c-.07.37-.14.77-.19,1.19a5.39,5.39,0,0,0,0,1.2,2.34,2.34,0,0,0,.26,1,.9.9,0,0,0,.67.47,1.24,1.24,0,0,0,.72-.13,3.28,3.28,0,0,0,.7-.49,6.25,6.25,0,0,0,.61-.65l.49-.62a19,19,0,0,0,1.25-1.83c.4-.65.77-1.29,1.12-1.93.08-.15.06-.26,0-.32s-.22,0-.31.15c-.33.64-.7,1.27-1.09,1.9A19.54,19.54,0,0,1,103,19.84l-.29.35a4.57,4.57,0,0,1-.43.45,2.36,2.36,0,0,1-.48.34.32.32,0,0,1-.36,0c-.1-.08-.12-.36-.07-.84s.17-1.09.33-1.83.37-1.58.61-2.51.5-1.87.77-2.83.54-1.9.81-2.81.52-1.72.74-2.42.4-1.29.53-1.73.21-.66.21-.67a.74.74,0,0,0,0-.75,1.59,1.59,0,0,0-.56-.53,1.82,1.82,0,0,0-.74-.23.61.61,0,0,0-.52.11,11.3,11.3,0,0,1-.25,1.61c-.15.71-.34,1.51-.57,2.41s-.49,1.85-.76,2.84-.54,2-.79,2.89a1.86,1.86,0,0,0-.4-.66,1.33,1.33,0,0,0-.68-.37,1.87,1.87,0,0,0-1.51.37,5.84,5.84,0,0,0-1.43,1.49A9.39,9.39,0,0,0,96,16.65a7.08,7.08,0,0,0-.44,2.29,4,4,0,0,0,.1.85A3.79,3.79,0,0,0,96,20.69Zm1.63-2.05a14,14,0,0,1,.4-1.76,16.58,16.58,0,0,1,.61-1.73,7.47,7.47,0,0,1,.72-1.31c.25-.34.49-.5.71-.48a1,1,0,0,1,.41.16,1.25,1.25,0,0,1,.26.3,1,1,0,0,1,.14.35,2.7,2.7,0,0,1,.06.36,23.61,23.61,0,0,1-.91,2.73,18.7,18.7,0,0,1-1.31,2.66c-.34.55-.61.8-.81.77s-.32-.25-.36-.64A5.49,5.49,0,0,1,97.59,18.64Z" transform="translate(-18 -3.83)"/>
    <path class="cls-2" d="M109.56,11.31a1.67,1.67,0,0,0,.67.19c.2,0,.3,0,.29-.06a1.05,1.05,0,0,1,0-.4c0-.18.1-.38.16-.58s.13-.41.18-.62a1.71,1.71,0,0,0,.09-.47,1.4,1.4,0,0,0-.16-.76,1.33,1.33,0,0,0-.46-.48,1.69,1.69,0,0,0-.62-.21,1,1,0,0,0-.57.08,3.19,3.19,0,0,1-.09.67l-.27,1.19a1.12,1.12,0,0,0,.13.94A1.5,1.5,0,0,0,109.56,11.31Z" transform="translate(-18 -3.83)"/>
    <path class="cls-2" d="M106.54,21.59a1.11,1.11,0,0,0,.87.38,1.69,1.69,0,0,0,.73-.19,3.89,3.89,0,0,0,.69-.48,5.93,5.93,0,0,0,.61-.62c.19-.22.36-.42.49-.6.44-.57.86-1.18,1.26-1.82s.76-1.29,1.12-1.94c.07-.15,0-.26-.06-.32s-.21,0-.3.15c-.34.64-.71,1.27-1.09,1.9a19.61,19.61,0,0,1-1.25,1.79l-.29.35a3.64,3.64,0,0,1-.43.45,2.31,2.31,0,0,1-.47.34.33.33,0,0,1-.37,0c-.11-.08-.16-.28-.13-.6a7.8,7.8,0,0,1,.19-1.17c.1-.45.22-.95.37-1.48s.31-1,.48-1.52.33-.92.48-1.3a5.12,5.12,0,0,1,.38-.82.69.69,0,0,0,0-.74,1.64,1.64,0,0,0-.57-.54,2.27,2.27,0,0,0-.78-.27.66.66,0,0,0-.57.08,3.77,3.77,0,0,1-.14.81l-.33,1.17c-.13.41-.25.81-.38,1.19s-.22.69-.28.92c-.2.71-.37,1.42-.52,2.12a6.09,6.09,0,0,0-.12,1.85A1.85,1.85,0,0,0,106.54,21.59Z" transform="translate(-18 -3.83)"/>
    <path class="cls-2" d="M113.32,22a2.59,2.59,0,0,0,.85-.13,2,2,0,0,1,0-.48c0-.18.06-.4.11-.65s.2-.76.36-1.25a16.14,16.14,0,0,1,.59-1.51c.23-.52.49-1,.76-1.54a9.31,9.31,0,0,1,.85-1.29c.21-.28.42-.54.62-.78a6.62,6.62,0,0,1,.55-.59,1.74,1.74,0,0,1,.42-.33q.18-.09.27,0c.1.1.13.29.07.58s-.15.62-.28,1-.29.86-.47,1.36-.35,1-.49,1.49a13.92,13.92,0,0,0-.35,1.49,4.31,4.31,0,0,0-.06,1.32,1.75,1.75,0,0,0,.38.9,1.17,1.17,0,0,0,.88.38,1.61,1.61,0,0,0,.72-.19,3.89,3.89,0,0,0,.69-.48,7.13,7.13,0,0,0,.61-.62c.19-.22.35-.42.49-.6a20.27,20.27,0,0,0,1.27-1.82c.39-.64.76-1.29,1.1-1.94a.31.31,0,0,0,0-.2.22.22,0,0,0-.09-.12.14.14,0,0,0-.15,0,.44.44,0,0,0-.16.15c-.32.64-.68,1.27-1.07,1.9a19.54,19.54,0,0,1-1.24,1.79l-.3.35a4.78,4.78,0,0,1-.45.45,2.26,2.26,0,0,1-.46.34.33.33,0,0,1-.37,0c-.12-.08-.16-.28-.13-.62a8.94,8.94,0,0,1,.21-1.22c.11-.47.24-1,.41-1.51s.31-1.06.47-1.57.27-1,.38-1.34a4.69,4.69,0,0,0,.18-.86,2.24,2.24,0,0,0-.11-.81,1,1,0,0,0-.4-.5,1.1,1.1,0,0,0-.61-.14,1.91,1.91,0,0,0-.74.23,3.43,3.43,0,0,0-.77.53,7.93,7.93,0,0,0-.76.77c-.25.29-.5.6-.74.93a10.27,10.27,0,0,0-.69,1q.28-.79.54-1.38c.17-.39.3-.67.4-.85a.67.67,0,0,0,0-.72,1.43,1.43,0,0,0-.56-.53,2.4,2.4,0,0,0-.77-.25.68.68,0,0,0-.56.09,3.83,3.83,0,0,1-.17.94c-.11.41-.25.86-.41,1.38l-.54,1.65c-.2.58-.38,1.16-.56,1.74s-.32,1.13-.43,1.66a9.41,9.41,0,0,0-.19,1.4.82.82,0,0,0,.24.73A1.15,1.15,0,0,0,113.32,22Z" transform="translate(-18 -3.83)"/>
    <path class="cls-2" d="M124.27,20.69a2.26,2.26,0,0,0,.51.7,1,1,0,0,0,.72.29,1.33,1.33,0,0,0,.83-.33,4.39,4.39,0,0,0,1-1.23,7.76,7.76,0,0,0,.45-.81l.41-.86c-.12.47-.25,1-.39,1.5s-.29,1.07-.45,1.62l-1.09.81c-.33.25-.66.52-1,.8s-.64.6-1,.94-.66.75-1,1.22a11.46,11.46,0,0,0-1,1.46,4.88,4.88,0,0,0-.59,1.43,2.41,2.41,0,0,0,0,1.28,1.69,1.69,0,0,0,.81,1,2.48,2.48,0,0,0,1.5.38,1.8,1.8,0,0,0,1-.35,4,4,0,0,0,.91-.89,9.31,9.31,0,0,0,1-1.71q.49-1,.93-2.16c.3-.77.58-1.57.84-2.41s.51-1.65.73-2.44a15.7,15.7,0,0,0,1.6-1,9.85,9.85,0,0,0,1.17-1,7.78,7.78,0,0,0,.92-1.14c.28-.41.57-.9.87-1.45.07-.15.06-.26-.06-.32s-.21,0-.3.15a12.65,12.65,0,0,1-.81,1.33,9.4,9.4,0,0,1-.88,1.08,7.4,7.4,0,0,1-1,.89,9,9,0,0,1-1.28.77c.28-1,.52-1.87.74-2.67s.4-1.41.56-1.85.26-.68.37-.94a4.42,4.42,0,0,1,.27-.59.67.67,0,0,0,0-.73,1.58,1.58,0,0,0-.57-.55,2.5,2.5,0,0,0-.78-.27.69.69,0,0,0-.57.09,2,2,0,0,1-.07.46c0,.19-.09.41-.16.67a1.8,1.8,0,0,0-.39-.75,1.26,1.26,0,0,0-.72-.42,1.87,1.87,0,0,0-1.51.37,5.84,5.84,0,0,0-1.43,1.49,9.39,9.39,0,0,0-1.08,2.12,7.08,7.08,0,0,0-.44,2.29,4,4,0,0,0,.1.85A3.79,3.79,0,0,0,124.27,20.69Zm1.79,4.87A23.24,23.24,0,0,1,125,28.11a6.37,6.37,0,0,1-1.07,1.63.79.79,0,0,1-1.05.23.62.62,0,0,1-.27-.57,2.82,2.82,0,0,1,.22-.92,9.36,9.36,0,0,1,.57-1.15c.25-.41.52-.83.82-1.26s.54-.77.83-1.14l.81-1c.25-.32.48-.59.69-.83l.49-.53C126.73,23.58,126.4,24.58,126.06,25.56Zm-.16-6.92a14,14,0,0,1,.4-1.76,16.58,16.58,0,0,1,.61-1.73,7.47,7.47,0,0,1,.72-1.31c.25-.34.49-.5.71-.48a.85.85,0,0,1,.45.19,1,1,0,0,1,.27.35,1.45,1.45,0,0,1,.12.42,2.75,2.75,0,0,1,0,.38c-.29.94-.61,1.83-1,2.66A21.18,21.18,0,0,1,127,19.92a2.91,2.91,0,0,1-.44.6c-.15.14-.26.19-.35.17s-.34-.25-.37-.64A6,6,0,0,1,125.9,18.64Z" transform="translate(-18 -3.83)"/>
    <path class="cls-2" d="M140.7,12.28a2.83,2.83,0,0,0,.76.37,18,18,0,0,0-.39,2.07,16.12,16.12,0,0,0-.13,2,10.32,10.32,0,0,0,.16,1.89,5.6,5.6,0,0,0,.5,1.59,3.45,3.45,0,0,0,1.28,1.53,3.55,3.55,0,0,0,1.73.51,4.33,4.33,0,0,0,2-.51,7.37,7.37,0,0,0,1.84-1.39A11.21,11.21,0,0,0,150,18.32a15.76,15.76,0,0,0,1.2-2.52,15.81,15.81,0,0,0,.78-2.73,14.43,14.43,0,0,0,.3-2.73A10,10,0,0,0,152,7.85a5.49,5.49,0,0,0-.93-2,4.44,4.44,0,0,0-1.64-1.36A5,5,0,0,0,147,4a6.32,6.32,0,0,0-1.78.3,7.64,7.64,0,0,0-1.75.79A8.57,8.57,0,0,0,142,6.3a6.51,6.51,0,0,0-1.17,1.51,5.1,5.1,0,0,0-.63,1.79,4.61,4.61,0,0,0,.1,2A1.18,1.18,0,0,0,140.7,12.28Zm1-2.37a5.45,5.45,0,0,1,.43-1.5A5.88,5.88,0,0,1,143,7a7,7,0,0,1,1.17-1.14,5.61,5.61,0,0,1,1.4-.76,3.93,3.93,0,0,1,1.51-.25,2.53,2.53,0,0,1,1.85.76,4.23,4.23,0,0,1,1,1.89,9.75,9.75,0,0,1,.33,2.65,19.88,19.88,0,0,1-.25,3,19.56,19.56,0,0,1-.75,3,15.53,15.53,0,0,1-1.12,2.65,8,8,0,0,1-1.37,1.88,2.3,2.3,0,0,1-1.54.74,2,2,0,0,1-1.34-.46,2.51,2.51,0,0,1-.86-1.38,9.56,9.56,0,0,1-.26-2.32,16.36,16.36,0,0,1,.22-2.66,19,19,0,0,1,.65-2.68,13.84,13.84,0,0,1,1-2.35A6.49,6.49,0,0,1,146,8a2.2,2.2,0,0,1,1.44-.65h.12a.51.51,0,0,0,.24,0s.05-.05,0-.1a1.2,1.2,0,0,0-.1-.19c-.06-.07-.11-.14-.17-.2a2.09,2.09,0,0,0-.52-.47,1.49,1.49,0,0,0-.73-.17,2.53,2.53,0,0,0-1.35.38,5,5,0,0,0-1.21,1.07,9,9,0,0,0-1,1.62,14.83,14.83,0,0,0-.83,2A3.39,3.39,0,0,1,141.74,9.91Z" transform="translate(-18 -3.83)"/>
    <path class="cls-2" d="M154.7,21.78a.81.81,0,0,0,.6.22,1.73,1.73,0,0,0,.79-.17,3,3,0,0,0,.67-.46,4.15,4.15,0,0,0,.57-.61c.18-.22.35-.45.53-.68a20.27,20.27,0,0,0,1.27-1.82c.39-.64.76-1.29,1.1-1.94a.31.31,0,0,0,0-.2.18.18,0,0,0-.09-.12.15.15,0,0,0-.16,0,.31.31,0,0,0-.15.15c-.34.64-.7,1.27-1.08,1.9a17.66,17.66,0,0,1-1.23,1.79c-.07.08-.15.18-.25.32a2.63,2.63,0,0,1-.35.41,2.14,2.14,0,0,1-.4.35.64.64,0,0,1-.38.14c-.12,0-.2-.08-.24-.26a2.2,2.2,0,0,1-.05-.59c0-.22,0-.44.06-.65a4.15,4.15,0,0,1,.08-.44q.22-1.05.54-2.37t.66-2.7c.23-.92.47-1.84.71-2.75s.48-1.75.71-2.54.44-1.47.63-2.07.35-1,.48-1.34a.74.74,0,0,0,0-.75,1.67,1.67,0,0,0-.56-.53,1.87,1.87,0,0,0-.74-.23.61.61,0,0,0-.52.11,11.78,11.78,0,0,1-.21,1.31c-.13.6-.29,1.29-.49,2.09s-.43,1.66-.68,2.6l-.76,2.85c-.26,1-.5,1.91-.74,2.84s-.43,1.79-.59,2.58q0,.2-.09.54c0,.23-.07.49-.1.77a8.17,8.17,0,0,0,0,.86,4.05,4.05,0,0,0,.13.8A1.36,1.36,0,0,0,154.7,21.78Z" transform="translate(-18 -3.83)"/>
    <path class="cls-2" d="M160.83,18.92a1.5,1.5,0,0,1,0,.18c0,.09,0,.15,0,.18-.07.32-.14.74-.22,1.24s-.16,1-.23,1.63-.12,1.18-.17,1.78a12,12,0,0,0,0,1.69,6.18,6.18,0,0,0,.21,1.34,1.24,1.24,0,0,0,.51.75,1.36,1.36,0,0,0,1.39,0,3.12,3.12,0,0,0,1.07-1.25,7.83,7.83,0,0,0,.67-2,10.91,10.91,0,0,0,.22-2.34,4.11,4.11,0,0,0-.06-.64,5.56,5.56,0,0,0-.16-.77,5.77,5.77,0,0,0-.29-.79,3.8,3.8,0,0,0-.39-.72l-.19-.23-.19-.2.1,0h.11a3.53,3.53,0,0,0,1.17-.23,4.48,4.48,0,0,0,1-.53,4.6,4.6,0,0,0,1.42-1.67.31.31,0,0,0,0-.2.2.2,0,0,0-.08-.12.15.15,0,0,0-.16,0,.34.34,0,0,0-.14.15,4.22,4.22,0,0,1-.6.87,3.85,3.85,0,0,1-.79.67,3.7,3.7,0,0,1-.92.44,3.09,3.09,0,0,1-1,.13.76.76,0,0,1-.41-.15c.15-.65.31-1.35.49-2.09s.36-1.49.55-2.26.4-1.52.6-2.28l.6-2.14c.12-.47.24-.86.36-1.19s.28-.71.46-1.15a.75.75,0,0,0,0-.74,1.58,1.58,0,0,0-.56-.53,1.74,1.74,0,0,0-.72-.23.68.68,0,0,0-.55.11,7.24,7.24,0,0,1-.24,1.75l-.42,1.69c-.17.67-.36,1.36-.54,2.07s-.38,1.44-.56,2.15-.36,1.42-.54,2.12-.33,1.36-.47,2a.48.48,0,0,0-.51.08.9.9,0,0,0-.3.48,1.08,1.08,0,0,0,0,.59A.61.61,0,0,0,160.83,18.92Zm.93,6.17c0-.41.05-.82.09-1.22s.07-.85.1-1.22.07-.73.12-1.09.09-.72.15-1.08.13-.76.21-1.19c0-.06,0-.08,0-.07s0,0,0-.08l.07.14a.77.77,0,0,1,.06.15,5.55,5.55,0,0,1,.39,1.45,13.45,13.45,0,0,1,.13,1.7,14.48,14.48,0,0,1-.08,1.74,9.85,9.85,0,0,1-.24,1.53,5.28,5.28,0,0,1-.37,1.09c-.14.27-.29.41-.45.41s-.15-.11-.19-.32a6,6,0,0,1,0-.82C161.74,25.88,161.75,25.51,161.76,25.09Z" transform="translate(-18 -3.83)"/>
    <path class="cls-2" d="M167.73,20.69a2.26,2.26,0,0,0,.51.7,1,1,0,0,0,.72.29,1.45,1.45,0,0,0,.85-.33,2.27,2.27,0,0,0,.49-.49c.15-.2.31-.45.49-.74s.27-.46.41-.7.25-.5.36-.75c-.07.38-.13.74-.16,1.08a4.19,4.19,0,0,0,0,.94,1.75,1.75,0,0,0,.38.9,1.15,1.15,0,0,0,.88.38,1.61,1.61,0,0,0,.72-.19,3.89,3.89,0,0,0,.69-.48c.21-.2.42-.4.61-.62s.35-.42.49-.6.52-.69.77-1.08.48-.75.69-1.1.4-.67.56-.95l.35-.63a.31.31,0,0,0,0-.2.22.22,0,0,0-.09-.12.14.14,0,0,0-.15,0,.3.3,0,0,0-.14.15l-.36.64-.55.93c-.21.35-.44.71-.68,1.08s-.49.71-.74,1l-.3.35a3.73,3.73,0,0,1-.44.45,2.62,2.62,0,0,1-.47.34.35.35,0,0,1-.38,0q-.15-.12-.12-.6a7.64,7.64,0,0,1,.18-1.17c.1-.45.23-.95.39-1.48s.32-1,.49-1.52.33-.92.48-1.3a5.31,5.31,0,0,1,.37-.82.69.69,0,0,0,0-.74,1.64,1.64,0,0,0-.57-.54,2.29,2.29,0,0,0-.77-.27.68.68,0,0,0-.58.08,2.26,2.26,0,0,1-.07.51c-.05.21-.12.45-.19.71a1.8,1.8,0,0,0-.39-.75,1.28,1.28,0,0,0-.72-.43,1.89,1.89,0,0,0-1.52.37,5.84,5.84,0,0,0-1.43,1.49,9.36,9.36,0,0,0-1.07,2.12,7.08,7.08,0,0,0-.44,2.29,4.65,4.65,0,0,0,.09.85A3.79,3.79,0,0,0,167.73,20.69Zm1.63-2.05a16,16,0,0,1,.4-1.76,16.55,16.55,0,0,1,.62-1.73,6.88,6.88,0,0,1,.71-1.31q.38-.51.72-.48a.85.85,0,0,1,.45.19,1,1,0,0,1,.26.36,1.33,1.33,0,0,1,.12.42,3,3,0,0,1,0,.39c-.24.78-.54,1.63-.92,2.54a20.61,20.61,0,0,1-1.3,2.62,3.45,3.45,0,0,1-.44.62c-.14.15-.27.21-.37.19s-.32-.25-.36-.64A6,6,0,0,1,169.36,18.64Z" transform="translate(-18 -3.83)"/>
    <path class="cls-2" d="M178.93,21.17a2.47,2.47,0,0,0,.82.62,2.42,2.42,0,0,0,1,.21,2.2,2.2,0,0,0,.86-.16,3.44,3.44,0,0,0,.74-.44,6.53,6.53,0,0,0,.89-.87c.31-.36.61-.75.9-1.16s.56-.84.82-1.28.51-.85.72-1.22l.14-.28c.05-.08.09-.17.14-.27a.31.31,0,0,0,0-.2.2.2,0,0,0-.08-.12.15.15,0,0,0-.16,0,.29.29,0,0,0-.16.15l-.28.51c-.2.36-.43.76-.69,1.18s-.54.85-.83,1.25a12.69,12.69,0,0,1-.89,1.09,3.6,3.6,0,0,1-.84.71,1.35,1.35,0,0,1-.66.23,1.17,1.17,0,0,1-1.32-1.22,6.48,6.48,0,0,1,.08-1.17,14.43,14.43,0,0,1,.3-1.45c.14-.5.29-1,.47-1.49a9.55,9.55,0,0,1,.56-1.31,5.11,5.11,0,0,1,.6-.94.75.75,0,0,1,.57-.33.46.46,0,0,1,.42.47,3.11,3.11,0,0,1-.05,1,7.12,7.12,0,0,1-.39,1.33,2.38,2.38,0,0,0,.76.2c.2,0,.36-.15.48-.46a2.31,2.31,0,0,0,.13-.46,2.6,2.6,0,0,0,.06-.56,3,3,0,0,0-.21-1.15,1.88,1.88,0,0,0-.56-.79,1.49,1.49,0,0,0-.86-.3,2.1,2.1,0,0,0-1.08.32,5,5,0,0,0-1.18,1,8,8,0,0,0-1,1.53,9.4,9.4,0,0,0-.72,1.8,7,7,0,0,0-.29,1.81,3.62,3.62,0,0,0,.21,1.26A3.06,3.06,0,0,0,178.93,21.17Z" transform="translate(-18 -3.83)"/>
    <path class="cls-2" d="M186.41,13.36a1.52,1.52,0,0,1,.61-.12l.88,0c-.21.9-.42,1.77-.62,2.61s-.38,1.61-.53,2.34c0,.19-.08.49-.14.9a7.67,7.67,0,0,0-.05,1.27,2.88,2.88,0,0,0,.25,1.13.8.8,0,0,0,.79.48,1.73,1.73,0,0,0,.79-.17,3,3,0,0,0,.67-.46,3.68,3.68,0,0,0,.57-.61c.18-.22.35-.45.53-.68a18.41,18.41,0,0,0,1.27-1.82c.4-.64.76-1.29,1.1-1.94a.31.31,0,0,0,0-.2.2.2,0,0,0-.08-.12.15.15,0,0,0-.16,0,.44.44,0,0,0-.16.15c-.32.64-.68,1.27-1.07,1.9a19.54,19.54,0,0,1-1.24,1.79c-.06.08-.15.18-.25.32a3.21,3.21,0,0,1-.34.41,2.55,2.55,0,0,1-.41.35.64.64,0,0,1-.37.14c-.13,0-.21-.08-.25-.26a2.71,2.71,0,0,1-.05-.59c0-.22,0-.44.06-.65a4.15,4.15,0,0,1,.08-.44c.07-.3.15-.66.24-1.09s.2-.9.32-1.42.25-1.06.39-1.64.28-1.14.43-1.72l.61.06.4,0h.51a.87.87,0,0,0,.46-.16,1.13,1.13,0,0,0,.28-.34,1.19,1.19,0,0,0,.11-.42,2.15,2.15,0,0,0,0-.36.2.2,0,0,0-.09-.16c-.05,0-.11,0-.17.1a.89.89,0,0,1-.56.21,9.74,9.74,0,0,1-1.29,0c.14-.57.29-1.17.44-1.8A15.18,15.18,0,0,1,191,8.64a.81.81,0,0,0,0-.76,1.52,1.52,0,0,0-.55-.52,2,2,0,0,0-.72-.23.73.73,0,0,0-.54.12,3.32,3.32,0,0,1-.06.93c-.07.43-.16.9-.26,1.4s-.22,1-.34,1.46-.21.83-.26,1.08l-.74,0h-.59a.51.51,0,0,0-.37.14.9.9,0,0,0-.23.31,1.65,1.65,0,0,0-.11.36,2.13,2.13,0,0,0,0,.3c0,.17,0,.27.09.31S186.34,13.49,186.41,13.36Z" transform="translate(-18 -3.83)"/>
    <path class="cls-2" d="M194.75,21.8a3,3,0,0,0,1.06.2,2.68,2.68,0,0,0,1-.21,3.53,3.53,0,0,0,.87-.55,4.32,4.32,0,0,0,.77-.82,6.56,6.56,0,0,0,.63-.89,8.6,8.6,0,0,0,.5-1l.17,0h.17a2.74,2.74,0,0,0,1.81-.71,4.83,4.83,0,0,0,1.15-1.57.3.3,0,0,0,0-.2.2.2,0,0,0-.08-.12.14.14,0,0,0-.15,0,.3.3,0,0,0-.14.15,4.76,4.76,0,0,1-1,1.39,2.33,2.33,0,0,1-1.57.66h-.23a8.61,8.61,0,0,0,.6-2.11,5.9,5.9,0,0,0,0-1.84,2.72,2.72,0,0,0-.62-1.31,1.62,1.62,0,0,0-1.24-.5,1.36,1.36,0,0,0-.73.23.87.87,0,0,0-.21.17l-.19.22-.19-.07a1.79,1.79,0,0,0-1.44.35,4.72,4.72,0,0,0-1.25,1.36,8.59,8.59,0,0,0-.89,2,7.46,7.46,0,0,0-.37,2.13,4.4,4.4,0,0,0,.35,1.85A2.16,2.16,0,0,0,194.75,21.8Zm2.68-8,.16.07a.54.54,0,0,1,.17.19s.08,0,.17-.16a.33.33,0,0,0,0-.38.71.71,0,0,0-.2-.25.56.56,0,0,1,.37-.19c.18,0,.31.16.39.43a3.68,3.68,0,0,1,.12,1,9.71,9.71,0,0,1-.12,1.43,15.33,15.33,0,0,1-.33,1.61,2.57,2.57,0,0,1-.56-.84,4.52,4.52,0,0,1-.3-1,5.35,5.35,0,0,1-.05-1A2.67,2.67,0,0,1,197.43,13.78ZM195,19.18a14.57,14.57,0,0,1,.25-1.7,13.89,13.89,0,0,1,.47-1.72,8.33,8.33,0,0,1,.61-1.36,1.47,1.47,0,0,1,.65-.68,3.71,3.71,0,0,0-.19,1.09,4.4,4.4,0,0,0,.1,1.2,4.82,4.82,0,0,0,.4,1.12A2.73,2.73,0,0,0,198,18a10.9,10.9,0,0,1-.49,1.36,5.8,5.8,0,0,1-.61,1.09,2.29,2.29,0,0,1-.71.66,1,1,0,0,1-.77.08c-.21-.07-.35-.29-.41-.66A5,5,0,0,1,195,19.18Z" transform="translate(-18 -3.83)"/>
    <path class="cls-2" d="M204.16,17.2a.21.21,0,0,0,.14-.11c.4-.7.79-1.43,1.17-2.18a22.39,22.39,0,0,0,1-2.26l.34.13a2.58,2.58,0,0,1,.84.48c.15.16.14.43,0,.82l-.45,1c-.2.48-.4,1-.59,1.58s-.35,1.17-.49,1.79a7.09,7.09,0,0,0-.17,1.7,2.31,2.31,0,0,0,.35,1.26,1.29,1.29,0,0,0,1.1.52,1.69,1.69,0,0,0,.73-.19,4,4,0,0,0,.7-.48c.21-.2.42-.4.61-.62s.35-.42.49-.6c.44-.57.85-1.18,1.25-1.82s.77-1.29,1.12-1.94c.07-.15.05-.26-.06-.32s-.21,0-.3.15c-.34.64-.7,1.27-1.09,1.9a19.54,19.54,0,0,1-1.24,1.79l-.3.35a3.64,3.64,0,0,1-.43.45,2.31,2.31,0,0,1-.47.34.33.33,0,0,1-.37,0c-.1-.06-.15-.23-.15-.49a5.2,5.2,0,0,1,.1-.95c.06-.37.15-.78.26-1.23s.24-.88.37-1.31.26-.85.4-1.24.27-.71.38-1a1.69,1.69,0,0,1,.11-.26l.1-.2a.82.82,0,0,0,0-.55.9.9,0,0,0-.28-.44,1.66,1.66,0,0,0-.49-.32,5.1,5.1,0,0,0-.56-.23l-.44-.14a3.19,3.19,0,0,1-.41-.16.75.75,0,0,1-.38-.43.89.89,0,0,1,0-.51,2.36,2.36,0,0,1,.24-.55,3.2,3.2,0,0,1,.33-.51,1.21,1.21,0,0,0-.48-.39,1.88,1.88,0,0,0-.7-.2,1.47,1.47,0,0,0-.71.13,1.13,1.13,0,0,0-.52.59,1.06,1.06,0,0,0,0,1,2.16,2.16,0,0,0,.79.77,24.55,24.55,0,0,1-1,2.27c-.36.72-.74,1.45-1.15,2.17a.3.3,0,0,0,0,.19.14.14,0,0,0,.09.11A.39.39,0,0,0,204.16,17.2Z" transform="translate(-18 -3.83)"/>
    <path class="cls-2" d="M217.17,20.17c-.09.33-.16.62-.22.86s-.12.43-.15.55l-1.09.8c-.33.25-.66.52-1,.8s-.64.6-1,.94-.66.75-1,1.22a11.46,11.46,0,0,0-1,1.46,4.88,4.88,0,0,0-.59,1.43,2.41,2.41,0,0,0,0,1.28,1.69,1.69,0,0,0,.81,1,2.48,2.48,0,0,0,1.5.38,1.8,1.8,0,0,0,1-.35,4.26,4.26,0,0,0,.92-.89,9.9,9.9,0,0,0,1-1.71q.49-1,.93-2.16c.3-.77.58-1.57.84-2.41s.51-1.64.73-2.42c.63-.35,1.16-.66,1.58-.94a8.59,8.59,0,0,0,1.13-.9,7,7,0,0,0,.92-1.14c.28-.43.59-1,.93-1.61.07-.15.06-.26-.06-.32s-.21,0-.3.15c-.27.51-.54,1-.79,1.35a7.09,7.09,0,0,1-.82,1,6.67,6.67,0,0,1-1,.87,14.76,14.76,0,0,1-1.39.81c.12-.42.24-.9.37-1.44s.27-1.11.42-1.67.31-1.12.47-1.66.34-1,.51-1.41a.74.74,0,0,0,0-.76,1.82,1.82,0,0,0-.6-.57,2.27,2.27,0,0,0-.78-.27c-.27,0-.45,0-.55.1a6,6,0,0,1-.22,1.39c-.15.55-.32,1.12-.52,1.69s-.42,1.13-.65,1.66a12.81,12.81,0,0,1-.63,1.28c-.06.11-.17.31-.34.58s-.34.56-.54.85a6.17,6.17,0,0,1-.62.76.81.81,0,0,1-.53.33.19.19,0,0,1-.17-.07.56.56,0,0,1-.09-.19,1,1,0,0,1,0-.24v-.2a4.64,4.64,0,0,1,.09-.68c.06-.33.13-.71.22-1.14s.18-.88.29-1.36.22-.93.33-1.36.21-.82.31-1.15a5,5,0,0,1,.26-.71.68.68,0,0,0,0-.74,1.74,1.74,0,0,0-.6-.54,2.47,2.47,0,0,0-.78-.26.62.62,0,0,0-.56.1,10.38,10.38,0,0,1-.21,1.84c-.13.65-.28,1.31-.44,2s-.3,1.29-.44,1.92a9.71,9.71,0,0,0-.24,1.71v.37a2.06,2.06,0,0,0,0,.35,1.71,1.71,0,0,0,.36.88A1.19,1.19,0,0,0,214,22a1.3,1.3,0,0,0,.49-.06,1.87,1.87,0,0,0,.45-.22,2.71,2.71,0,0,0,.63-.51,6.93,6.93,0,0,0,.64-.76c.21-.27.4-.55.58-.83s.32-.53.43-.73.19-.35.28-.52l.27-.51c-.1.42-.21.84-.31,1.24S217.26,19.84,217.17,20.17Zm-1.66,5.39a23.24,23.24,0,0,1-1.06,2.55,6.37,6.37,0,0,1-1.07,1.63.79.79,0,0,1-1,.23.62.62,0,0,1-.27-.57,2.82,2.82,0,0,1,.22-.92,9.36,9.36,0,0,1,.57-1.15c.25-.41.52-.83.82-1.26s.54-.77.83-1.14l.81-1c.25-.32.48-.59.69-.83l.49-.53C216.18,23.58,215.85,24.58,215.51,25.56Z" transform="translate(-18 -3.83)"/>
  </g>
</svg>
