<svg id="Layer_3" data-name="Layer 3" xmlns="http://www.w3.org/2000/svg" width="250" height="250" viewBox="0 0 250 250">
  <defs>
    <style>
      .cls-1 {
        fill: none;
      }
    </style>
  </defs>
  <g>
    <path class="cls-1" d="M132.26,110.14c2.09-4.78,4-9,5.53-12.51a22.89,22.89,0,0,1-3.56,1.81A80,80,0,0,0,132.26,110.14Z" transform="translate(0 0)"/>
    <path class="cls-1" d="M98.58,178.49s12.14.92,27.12.92,27.11-.92,27.11-.92-12.14-.91-27.11-.91S98.58,178.49,98.58,178.49Z" transform="translate(0 0)"/>
    <polygon class="cls-1" points="134.18 89.04 132.62 79.94 139.23 73.5 130.09 72.17 126.01 63.89 121.92 72.17 112.78 73.5 119.4 79.94 117.83 89.04 126.01 84.75 134.18 89.04"/>
    <path class="cls-1" d="M142.94,175.71h5.46a21.76,21.76,0,0,0-.78-9.76,22.83,22.83,0,0,0-10.13-12.4A22.84,22.84,0,0,1,143.86,167,22,22,0,0,1,142.94,175.71Z" transform="translate(0 0)"/>
    <path class="cls-1" d="M114.85,98.23c1.5,3.54,3.28,7.76,5.24,12.47a72.11,72.11,0,0,0-2.19-11.08A22.1,22.1,0,0,1,114.85,98.23Z" transform="translate(0 0)"/>
    <path class="cls-1" d="M125.89,57.43l1,.15c.37.07.77.17,1.2.26s.91.24,1.4.39a24.43,24.43,0,0,1,3.25,1.32,21.59,21.59,0,0,1,6.93,5.55,19,19,0,0,1,2.69,4.4,21.26,21.26,0,0,1,1.72,10.83,19.21,19.21,0,0,1-1.21,5A21.47,21.47,0,0,1,138,92.76,25,25,0,0,1,135.29,95c-.43.29-.83.56-1.21.8s-.74.45-1.07.62l-.87.45c-.26.13-.48.22-.66.3l-.55.25.59-.14c.19,0,.43-.09.71-.17l1-.29c.36-.11.75-.27,1.18-.43s.89-.39,1.37-.63A20.56,20.56,0,0,0,145,86.29a19.47,19.47,0,0,0,1.7-5.62,21,21,0,0,0-1.95-12.32,19.7,19.7,0,0,0-3.35-4.82,20.74,20.74,0,0,0-8.17-5.27,21,21,0,0,0-3.59-.89c-.54-.08-1-.13-1.5-.17s-.88-.05-1.26-.05l-1,0-.73,0-.6.06.6.07Z" transform="translate(0 0)"/>
    <path class="cls-1" d="M188.68,198c-1.08.95-1.37,1.81-1,2.22s.78.17,2-.88a13.28,13.28,0,0,1,1.48-1.06.83.83,0,0,0,0-1C190.67,196.71,189.77,197,188.68,198Z" transform="translate(0 0)"/>
    <path class="cls-1" d="M191.76,201.07c-.82.72-.51,1.53.21,2.36s1.5,1.24,2.32.53.52-1.55-.21-2.38S192.59,200.35,191.76,201.07Z" transform="translate(0 0)"/>
    <path class="cls-1" d="M130.82,108.4c.42-4.71.87-7.63.87-7.63s-.22.7-.63,2-.93,3.14-1.44,5.47a67.71,67.71,0,0,0,2.32,37c.8,2.26,1.54,4,2.11,5.25l.88,1.88s-.82-2.85-1.82-7.46a124.53,124.53,0,0,1-2.29-36.47Z" transform="translate(0 0)"/>
    <path class="cls-1" d="M185.26,209.13a1.44,1.44,0,0,0,2.14.38,1.64,1.64,0,0,0,.45-2.3Z" transform="translate(0 0)"/>
    <path class="cls-1" d="M210.56,127.25a85.65,85.65,0,1,0-87.81,83.43A85.76,85.76,0,0,0,210.56,127.25Zm-18.43-17.72c2.34,0,3.8,1.68,3.8,5.08s-1.46,5.09-3.8,5.09-3.81-1.69-3.81-5.09S189.78,109.53,192.13,109.53Zm-9.78,0c2,0,3.3,1.17,3.3,2.83,0,1.89-1.61,3.38-4,4.54h2.68c.57,0,.71-.07.9-.84h.8l-.46,3.74h-.8c0-.13,0-.31-.36-.31h-5.31v-1.67c2-1.42,3.64-3.11,3.64-5.46,0-1-.42-1.68-1.23-1.68s-1.41.72-1.41,2.3H179A3.14,3.14,0,0,1,182.35,109.53Zm-11.84,13.34H204.4v2.34H170.51Zm0,4.81H201V130H170.51Zm-104-18.15c2.34,0,3.8,1.68,3.8,5.08s-1.46,5.09-3.8,5.09-3.81-1.69-3.81-5.09S64.19,109.53,66.53,109.53Zm-9.78,0c2,0,3.31,1.17,3.31,2.83,0,1.89-1.62,3.38-4,4.54h2.68c.57,0,.71-.07.9-.84h.8L60,119.8h-.8c0-.13,0-.31-.36-.31H53.49v-1.67c2-1.42,3.64-3.11,3.64-5.46,0-1-.42-1.68-1.23-1.68s-1.4.72-1.4,2.3H53.38A3.14,3.14,0,0,1,56.75,109.53Zm22,24.95H51.26v-2.35H78.8Zm0-4.58H48.29v-2.34H78.8Zm0-4.8H44.91v-2.35H78.8Zm15.55,67.66a1.65,1.65,0,0,1-.66,1.51,3.39,3.39,0,0,1-1.81.42H85.72l-.32-1.87a2.13,2.13,0,0,0,.78.27,6.91,6.91,0,0,0,.95.06h3.24a.57.57,0,0,0,.4-.1.55.55,0,0,0,.11-.39v-.29a1,1,0,0,0-.08-.44c0-.09-.17-.13-.34-.13H87.84a3.62,3.62,0,0,1-1.87-.37c-.4-.24-.6-.76-.6-1.55v-2.55a1.65,1.65,0,0,1,.67-1.51,3.35,3.35,0,0,1,1.8-.42h6l.34,1.9a1.87,1.87,0,0,0-.68-.29,4.17,4.17,0,0,0-.83-.08H89.48a.92.92,0,0,0-.46.1.41.41,0,0,0-.17.39v.31c0,.25.06.41.16.47a1.28,1.28,0,0,0,.58.09h2.29a3.48,3.48,0,0,1,1.85.38,1.68,1.68,0,0,1,.62,1.55Zm13-6.73a3,3,0,0,0-.09.75v7.91h-4.51L99,187.14v6.17a2.78,2.78,0,0,0,.09.74,2.18,2.18,0,0,0,.3.64H97.05a2.16,2.16,0,0,0,.3-.65,3.1,3.1,0,0,0,.09-.73v-6.53a2.86,2.86,0,0,0-.09-.75,2.13,2.13,0,0,0-.3-.63h5l3.58,7.4v-6a2.86,2.86,0,0,0-.09-.75,2,2,0,0,0-.3-.63h2.32A1.92,1.92,0,0,0,107.31,186Zm13.24,0a2.62,2.62,0,0,0-.1.73V192a5.37,5.37,0,0,1-.1,1.08,2.05,2.05,0,0,1-.45.81,2.16,2.16,0,0,1-.82.58,2.78,2.78,0,0,1-1,.19h-5a2.16,2.16,0,0,1-1.79-.73,3,3,0,0,1-.59-1.93v-5.25a2.86,2.86,0,0,0-.09-.75,2.13,2.13,0,0,0-.3-.63h4.31a2.16,2.16,0,0,0-.3.65,3,3,0,0,0-.09.73v5.29a1.59,1.59,0,0,0,.16.85c.1.15.36.23.76.23H118c.39,0,.64-.08.75-.23a1.69,1.69,0,0,0,.16-.85v-5.29a2.57,2.57,0,0,0-.1-.75,2.12,2.12,0,0,0-.29-.63h2.31A1.93,1.93,0,0,0,120.55,186.05Zm12.85,8a2.18,2.18,0,0,0,.29.64h-3.08a5.26,5.26,0,0,1-.09-.53c0-.2-.05-.36-.07-.49a.83.83,0,0,1-.43.84,3.26,3.26,0,0,1-1.23.18H126.1a3.43,3.43,0,0,1-1.82-.41,1.67,1.67,0,0,1-.65-1.53v-5.43a1.63,1.63,0,0,1,.66-1.51,3.44,3.44,0,0,1,1.81-.41h6.7l.31,1.81a2.05,2.05,0,0,0-.67-.23,6.53,6.53,0,0,0-.84,0h-3.52c-.4,0-.66.08-.76.24a1.59,1.59,0,0,0-.16.85v4a1.59,1.59,0,0,0,.16.85c.1.15.36.23.76.23h1q.48,0,.6-.21a1.55,1.55,0,0,0,.13-.73V190.6h-.89a3.3,3.3,0,0,0-.58,0,2.57,2.57,0,0,0-.54.17v-1.69h5.89a2.18,2.18,0,0,0-.29.64,3,3,0,0,0-.1.75v2.79A3,3,0,0,0,133.4,194.05Zm12.2,0a2,2,0,0,0,.3.64h-3.09a5.26,5.26,0,0,1-.09-.53c0-.2-.05-.36-.07-.49a.83.83,0,0,1-.43.84,3.26,3.26,0,0,1-1.23.18H138.3a3.43,3.43,0,0,1-1.82-.41,1.67,1.67,0,0,1-.65-1.53v-5.43a1.63,1.63,0,0,1,.66-1.51,3.44,3.44,0,0,1,1.81-.41H145l.31,1.81a2.05,2.05,0,0,0-.67-.23,6.53,6.53,0,0,0-.84,0h-3.52c-.4,0-.66.08-.76.24a1.59,1.59,0,0,0-.16.85v4a1.59,1.59,0,0,0,.16.85c.1.15.36.23.76.23h1q.48,0,.6-.21a1.55,1.55,0,0,0,.13-.73V190.6h-.89a3.3,3.3,0,0,0-.58,0,2.57,2.57,0,0,0-.54.17v-1.69h5.9a2,2,0,0,0-.3.64,3,3,0,0,0-.1.75v2.79A3,3,0,0,0,145.6,194.05Zm10.47.64H148a2.42,2.42,0,0,0,.29-.65,3.13,3.13,0,0,0,.1-.73v-6.53a2.86,2.86,0,0,0-.09-.75,2.42,2.42,0,0,0-.3-.63h4.32a1.92,1.92,0,0,0-.3.63,3,3,0,0,0-.09.75v6.37h3.32a2.38,2.38,0,0,0,.63-.07,2,2,0,0,0,.54-.28Zm10.91,0H158.6a2.14,2.14,0,0,0,.29-.65,2.67,2.67,0,0,0,.1-.73v-6.53a2.86,2.86,0,0,0-.09-.75,2.13,2.13,0,0,0-.3-.63h8.18l.27,1.76a3.57,3.57,0,0,0-.75-.18,7.75,7.75,0,0,0-.88,0h-2.91v2.25h2.85a4.67,4.67,0,0,0,.72,0,2.3,2.3,0,0,0,.6-.17v2a1.08,1.08,0,0,0-.46-.21,3.51,3.51,0,0,0-.59,0h-3.12v2.47H166a1.78,1.78,0,0,0,.47-.05,7,7,0,0,0,.85-.27Zm-35-67.88c0,.06,0,.11,0,.17,19.9,4.32,35.11,8,35.11,8s-15.22-2.77-35-6.88a.38.38,0,0,0,0,.1c18.51,7.95,32.54,14.39,32.54,14.39s-14.1-5.5-32.41-13.17l.06.53c16.3,11.11,28.49,19.85,28.49,19.85s-12.29-7.77-28.33-18.46c0,.26.07.53.11.79C145.91,145.63,155.66,156,155.66,156s-9.8-9.24-22.76-22c.18,1.07.36,2.14.58,3.16,9,14.15,15.32,24.52,15.32,24.52s-6.18-8.94-14.69-21.76A98,98,0,0,0,138,152.18a24.38,24.38,0,0,1,13,23.52h2.14a1.08,1.08,0,0,1,1.08,1.07v3.43a1.08,1.08,0,0,1-1.08,1.07H98.88a1.07,1.07,0,0,1-1.08-1.07v-3.43a1.07,1.07,0,0,1,1.08-1.07h2.06a27.74,27.74,0,0,1,4.82-15.86,27.05,27.05,0,0,1,8.13-7.66,89.15,89.15,0,0,0,4.68-14.06c-9.33,13.56-16.23,23.17-16.23,23.17s7-11,16.8-25.82c.14-.7.28-1.4.41-2.13-13.31,13.15-23.47,22.72-23.47,22.72s10.09-10.69,23.77-24.51c0-.22.05-.46.08-.69-16.6,10.67-29.42,18.47-29.42,18.47s12.72-8.8,29.59-19.87c0-.1,0-.2,0-.3-18.81,7.51-33.39,12.91-33.39,12.91s14.35-6.3,33.21-14c-20,3.82-35.53,6.36-35.53,6.36s15.65-3.52,36-7.55a.13.13,0,0,0,0-.06c-20.75-.07-36.8-.54-36.8-.54s16.08-.47,36.85-.55a.17.17,0,0,0,0-.07c-20.31-4.39-35.93-8.2-35.93-8.2s15.73,2.87,36,7.1v-.07c-19-8.16-33.56-14.84-33.56-14.84s14.64,5.71,33.47,13.61c-16.87-11.47-29.61-20.62-29.61-20.62s13.06,8.26,29.82,19.47c0-.12,0-.23,0-.35C106.54,107.48,96,96.29,96,96.29s10.79,10.17,24.68,23.92c0-.32,0-.66,0-1-10.32-16.1-17.8-28.38-17.8-28.38s7.7,11.13,17.75,26.38c0-.55,0-1.08,0-1.65s-.07-1-.11-1.44c-2.49-6.3-4.65-11.9-6.36-16.36a22.67,22.67,0,1,1,24.45-.59c-1.74,4.32-4,9.86-6.57,16.1-.05.63-.1,1.25-.14,1.88s0,1,0,1.56c10.09-14.72,17.76-25.4,17.76-25.4s-7.45,11.78-17.8,27.32c0,.35,0,.7,0,1,13.58-13.43,24-23.29,24-23.29s-10.24,10.85-24.07,24.82c0,.24,0,.47,0,.71,16.67-10.71,29.56-18.56,29.56-18.56s-12.67,8.77-29.5,19.81v.11c18.73-7.47,33.21-12.83,33.21-12.83s-14.32,6.28-33.16,14a1.55,1.55,0,0,1,0,.22c20-3.8,35.42-6.34,35.42-6.34S152,121.75,132,125.73c20.38.08,36,.54,36,.54S152.35,126.73,132,126.81Zm38.54,5.44h27.54v2.34H170.51Z" transform="translate(0 0)"/>
    <path class="cls-1" d="M103.34,22.19a1.64,1.64,0,0,0-1.37,1.9l3.15-.66A1.44,1.44,0,0,0,103.34,22.19Z" transform="translate(0 0)"/>
    <path class="cls-1" d="M123.49,20a1.63,1.63,0,0,0-1.7,1.6l3.22-.05A1.43,1.43,0,0,0,123.49,20Z" transform="translate(0 0)"/>
    <path class="cls-1" d="M190,42.5a1.62,1.62,0,0,0-2.33.17l2.53,2A1.43,1.43,0,0,0,190,42.5Z" transform="translate(0 0)"/>
    <path class="cls-1" d="M152,29.21c2.2.62,3.5-.95,4.21-3.46s.42-4.55-1.78-5.17-3.49,1-4.19,3.49S149.82,28.6,152,29.21Z" transform="translate(0 0)"/>
    <path class="cls-1" d="M204.62,65.45c.85,1.12,2.13.84,3.43-.13s1.91-2.11,1.07-3.24-2.11-.84-3.41.13S203.78,64.32,204.62,65.45Z" transform="translate(0 0)"/>
    <path class="cls-1" d="M66.53,118.66c.68,0,.88-1,.88-4s-.2-4-.88-4-.88,1-.88,4S65.84,118.66,66.53,118.66Z" transform="translate(0 0)"/>
    <path class="cls-1" d="M198.47,193.7a.89.89,0,0,0-1.37.05,3.28,3.28,0,0,0-.76,1.83l1.39,1.35C198.73,195.53,199.24,194.45,198.47,193.7Z" transform="translate(0 0)"/>
    <path class="cls-1" d="M85.44,28.08l1.83-.71c1.32-.51,1.93-1.31,1.47-2.5s-1.37-1.38-2.84-.81l-1.37.53a.38.38,0,0,0-.24.54Z" transform="translate(0 0)"/>
    <path class="cls-1" d="M192.13,118.66c.68,0,.87-1,.87-4s-.19-4-.87-4-.88,1-.88,4S191.44,118.66,192.13,118.66Z" transform="translate(0 0)"/>
    <path class="cls-1" d="M87.76,27.84l-2.1.81,1.41,3.63a.39.39,0,0,0,.54.24l1.55-.6c1.56-.61,2-1.69,1.5-2.89A2.07,2.07,0,0,0,87.76,27.84Z" transform="translate(0 0)"/>
    <path class="cls-1" d="M128.11,3.2A121.84,121.84,0,1,0,246.8,128.11,122,122,0,0,0,128.11,3.2Zm81.44,58.56a3.35,3.35,0,1,1-4.64-.62A3.19,3.19,0,0,1,209.55,61.76ZM193.81,53c.81.77,1,.89,1.82.17l4.85-4.52c.79-.73.67-1,0-1.83l.25-.23,2.16,2.31-3.55,7,7.21-3.05,2.11,2.27-.26.24c-.81-.77-1-.9-1.81-.17l-4.85,4.53c-.77.72-.67.95,0,1.81l-.26.24-2.78-3,.25-.23c.82.77,1,.88,1.81.16L206,53.78l-8.54,3.62-.31-.34,4.19-8.25-5.22,4.86c-.77.72-.67.95,0,1.82l-.26.24-2.33-2.51Zm-8-10.24a3.1,3.1,0,0,1,4.55-.68,2.53,2.53,0,0,1,.5,3.81l-3.56-2.81c-.15.17-.3.33-.44.51-1,1.27-1.27,2.53,0,3.53a2.36,2.36,0,0,0,2.65,0l.26.51a2.89,2.89,0,0,1-3.34-.14A3.18,3.18,0,0,1,185.81,42.74Zm-4.62-10,2.06.05.36.23-2.29,3.49a4.42,4.42,0,0,1,2.19.6,1.78,1.78,0,0,1,.62,2.66l-1.95,3c-.28.42-.21.65.38,1.12l-.19.29-2.6-1.71.2-.29c.67.36.9.33,1.17-.09l2-3a1,1,0,0,0-.27-1.58A3.16,3.16,0,0,0,181,37l-2.26,3.43c-.28.42-.21.65.38,1.12l-.19.29-2.6-1.7.2-.29c.67.36.91.33,1.19-.09l3.88-5.91c.18-.28.15-.45-.11-.62L181,33ZM169.46,36c1,.46,1.27.5,1.76-.44l3.34-6.33a.38.38,0,0,0-.18-.56c-1.34-.71-2-.64-3.46.2l-.2-.28,2.15-1.78.31.16a.4.4,0,0,0,.23.47L178,29.85a.4.4,0,0,0,.51-.07l.31.16-.26,2.78h-.33a3,3,0,0,0-1.87-3,.39.39,0,0,0-.57.18l-3.34,6.33c-.49.93-.32,1.12.63,1.7l-.16.31-3.61-1.91Zm-11.14-4.74c.74.21,1,.13,1.14-.34l1.63-4.35-.89-.33.2-.54.89.34.29-.77A2.57,2.57,0,0,1,165,23.49c.61.23.92.67.77,1.08a.64.64,0,0,1-.85.39c-.6-.22-.3-.82-.79-1s-.75.1-1,.74l-.66,1.78,1.28.48-.2.53L162.24,27l-1.63,4.35c-.18.47,0,.7.69,1l-.13.33-3-1.12Zm-9.55-7.61c.8-2.83,3.08-4.42,5.83-3.64s3.89,3.32,3.09,6.15-3.08,4.42-5.84,3.64S148,26.48,148.77,23.65Zm-13.56,4c.59.08.59.76,1.07.83s.73-.3,1-.83l.43-.77-1.2-5.08c-.21-.89-.3-1.19-.94-1.35l0-.35,3,.41,0,.34c-1-.06-1,.22-.8,1.12l.78,3.34,1.7-3c.44-.8.26-1.12-.52-1.29l0-.35,2.45.32-.05.35c-.53,0-.82.26-1.27,1.05L137.81,28a2.09,2.09,0,0,1-2.14,1.28c-.73-.1-1.3-.51-1.22-1.05A.65.65,0,0,1,135.21,27.64Zm-6.76-2.05c.77,0,1-.17,1-.67l.21-3.59c0-.33-.1-.46-.41-.48l-.51,0v-.28l1.81-1,.43,0-.06.92a2.52,2.52,0,0,1,1.91-.81c.76,0,1,.46,1,.91a.65.65,0,0,1-.72.67c-.6,0-.65-.68-1.11-.71a1.43,1.43,0,0,0-1.14.65L130.66,25c0,.51.14.67.89.78l0,.35-3.1-.18Zm-5-6.17a2.51,2.51,0,0,1,2.78,2.63l-4.52.08c0,.22,0,.45,0,.67,0,1.62.62,2.76,2.22,2.74A2.37,2.37,0,0,0,126,23.9l.52.23a2.87,2.87,0,0,1-2.68,2,3.17,3.17,0,0,1-3.48-3.3A3.1,3.1,0,0,1,123.47,19.42Zm-12.66,1.12,0,.35c-1,.18-.94.47-.51,1.28l1.57,3,1-3.71c-.32-.53-.59-.74-1.12-.72l0-.35,3.15-.35,0,.35c-1,.18-.93.45-.5,1.27l1.58,3.07.89-3.34c.24-.88,0-1.15-.91-1.12l0-.35,2.56-.28,0,.34c-.52.13-.73.45-1,1.34l-1.29,4.9-.83.09-2.11-4.09-1.19,4.46-.82.09L109,22.31c-.41-.79-.57-1.09-1.23-1.08l0-.35Zm-7.6,1.12a2.52,2.52,0,0,1,3.24,2.06l-4.44.93c0,.22.07.44.12.66.33,1.58,1.13,2.6,2.7,2.27a2.37,2.37,0,0,0,1.73-2l.55.12a2.86,2.86,0,0,1-2.24,2.47,3.17,3.17,0,0,1-4.05-2.58A3.09,3.09,0,0,1,103.21,21.66ZM94.8,23.79l.42-.12.26.88A2.54,2.54,0,0,1,97,23.15c.73-.21,1.14.09,1.27.52a.65.65,0,0,1-.46.87c-.58.17-.84-.42-1.28-.3a1.48,1.48,0,0,0-.86,1l1.06,3.64c.15.48.36.58,1.1.43l.1.34-3,.87-.1-.34c.72-.28.85-.48.71-1l-1-3.45c-.09-.32-.25-.41-.54-.32l-.5.14-.08-.27Zm-9.17-.3c2.15-.83,3.88-.87,4.54.82.41,1.07-.06,2-1.25,2.75a2.63,2.63,0,0,1,3.17,1.41c.65,1.69-.52,3.18-2.7,4L84.9,34.24l-.12-.32c1-.47,1.2-.63.82-1.62l-2.41-6.19c-.38-1-.63-1-1.7-.64l-.12-.32ZM57.15,38.56l2.52-4L61.28,39l4.54,1.17-3.69,2.9.29,4.68-3.89-2.62-4.37,1.73,1.29-4.52-3-3.61ZM33.53,64.14l1-4.57,3,3.6,4.67-.43-2.5,4L41.59,71,37,69.87,33.52,73l-.31-4.69-4-2.39ZM19.12,91.72,23,94.31l4.35-1.75-1.26,4.52,3,3.6-4.69.2-2.49,4-1.64-4.39-4.55-1.15,3.68-2.91Zm1.15,50.37-2.82-3.75-4.69.2,2.7-3.84-1.63-4.4,4.48,1.38L22,128.77l.07,4.69,3.91,2.6-4.44,1.52ZM31.13,175l-2.5,4L27,174.53l-4.55-1.15,3.67-2.91-.32-4.68,3.91,2.59,4.35-1.75-1.26,4.52,3,3.6Zm91.54,38.88a88.5,88.5,0,1,1,34.73-6.09A88.17,88.17,0,0,1,122.67,213.83Zm59.22.15-.36.23-.37-.6a4.41,4.41,0,0,1-1.48,1.73,1.76,1.76,0,0,1-2.67-.57l-1.85-3c-.27-.43-.5-.47-1.18-.13l-.18-.3,2.65-1.63.18.3c-.62.46-.68.68-.42,1.11l1.86,3a1,1,0,0,0,1.54.42,3.15,3.15,0,0,0,1.23-1.46l-2.16-3.5c-.26-.43-.49-.47-1.17-.13l-.18-.3,2.65-1.63.18.3c-.62.46-.69.69-.43,1.12l1.88,3.06c.18.29.35.33.61.17l.44-.27.15.23Zm5.84-4a2.51,2.51,0,0,1-3.8-.52l3.65-2.7-.38-.55c-1-1.3-2.11-1.89-3.4-.94a2.37,2.37,0,0,0-.74,2.55l-.55.11a2.85,2.85,0,0,1,1-3.18,3.17,3.17,0,0,1,4.75.66A3.09,3.09,0,0,1,187.73,209.94Zm6.92-5.57a2.88,2.88,0,0,1-1.61.75,1.93,1.93,0,0,1-.5,1.72.69.69,0,0,1-1,0,.52.52,0,0,1,.05-.76c.31-.28.57,0,.83-.27s.18-.41.1-.74a2.3,2.3,0,0,1-1.49-.84,2.42,2.42,0,0,1,.39-3.6c.56-.49.83-.47,1.18-.78s.4-.66.24-.85c-.3-.35-.8,0-2.46,1.34s-2.51,1.41-3.17.65-.31-2.19,1.12-3.44,2.64-1.85,3.4-1a1.29,1.29,0,0,1,.16,1.36,1.09,1.09,0,0,1,1.31.35,1.14,1.14,0,0,1,0,1.6,2.33,2.33,0,0,1,1.84.85A2.43,2.43,0,0,1,194.65,204.37Zm6.1-5.81c-.82.85-1.82,1.26-2.92.19l-2.36-2.28c-.37-.36-.63-.42-.85-.2a1.24,1.24,0,0,0-.25.48l-.36-.35a1.91,1.91,0,0,1,.54-1,1,1,0,0,1,1.38-.18,4.15,4.15,0,0,1,1-2.28c.8-.83,1.68-1,2.38-.32,1.08,1,.21,2.69-1.17,4.68l.6.58c.73.71,1.17.82,1.71.26a1.31,1.31,0,0,0,.28-1.75.76.76,0,0,1,0-1c.25-.25.53-.24.83.05C202.1,196,201.94,197.33,200.75,198.56Zm10-6.18-.28.34-3.23-2.64a4.43,4.43,0,0,1-.83,2.12,1.76,1.76,0,0,1-2.71.34L201,190.31c-.39-.32-.63-.28-1.16.26l-.27-.22,2-2.41.27.22c-.43.64-.42.87,0,1.18l2.75,2.24a1,1,0,0,0,1.59-.1,3.18,3.18,0,0,0,.68-1.79l-3.19-2.6c-.39-.31-.62-.27-1.15.27l-.27-.22,2-2.41.27.22c-.43.64-.43.88,0,1.19l5.48,4.47c.26.21.44.19.63,0l.33-.4.21.17Zm2.82-9.9-.24.35-.58-.39a4.57,4.57,0,0,1-.63,2.19,1.76,1.76,0,0,1-2.67.58l-2.93-2c-.42-.28-.65-.21-1.13.37l-.29-.19,1.74-2.58.29.19c-.37.68-.34.9.08,1.18l2.94,2a1,1,0,0,0,1.58-.25,3.26,3.26,0,0,0,.51-1.84l-3.41-2.3c-.41-.28-.64-.22-1.12.37l-.29-.2,1.74-2.57.29.19c-.37.67-.35.91.07,1.19l3,2c.28.19.45.16.63-.1l.28-.42.23.15Zm3.65-6.09a2.52,2.52,0,0,1-3.68,1.1l2.21-4-.57-.35c-1.42-.79-2.7-.85-3.48.55a2.34,2.34,0,0,0,.37,2.62l-.46.33a2.87,2.87,0,0,1-.39-3.31,3.18,3.18,0,0,1,4.61-1.36A3.08,3.08,0,0,1,217.26,176.39Zm4.63-9.35-.64-.29a2.44,2.44,0,0,1-.12,2c-.76,1.69-2.52,2.05-4.24,1.27s-2.63-2.33-1.84-4.1a2.44,2.44,0,0,1,1.31-1.35l-1.76-.79c-.45-.2-.66-.1-1,.55l-.32-.14,1.27-2.83.32.14c-.25.73-.18,1,.26,1.16l5.63,2.53c.31.14.47.08.6-.2l.23-.51.25.11.26,2.08Zm2.82-7.23a3.35,3.35,0,1,1-2.08-4.19A3.19,3.19,0,0,1,224.71,159.81Zm6.17-8.57a4.17,4.17,0,0,1-1.26,2.23l.42.32-.09.39-2.85.2,0-.34a4,4,0,0,0,3.21-2.86c.52-2.16-1.07-3.56-3.61-4.18s-4.57-.11-5.1,2.06a3.38,3.38,0,0,0,1.44,3.81l-.35.56a4,4,0,0,1-1.67-4.6c.65-2.65,3.19-4,6-3.32S231.53,148.58,230.88,151.24Zm-3-42.88a1.13,1.13,0,0,0,.67-1.15l.34,0,.49,3.12-.34.06c-.22-1-.5-.91-1.3-.45l-3,1.71,3.38.74c.89.2,1.15,0,1.07-1l.35,0,.4,2.55-.35.05c-.15-.51-.48-.71-1.37-.92l-4.95-1.08-.13-.82,4-2.29-4.5-1-.13-.81,4.39-2.56c.78-.44,1.06-.61,1-1.27l.34-.06.48,3.05-.35,0c-.22-1-.51-.92-1.3-.46l-3,1.71Zm4.27,27.7,0-.49.28,0,.92,1.82,0,.43-8.85-.83c-.5,0-.67.12-.81.88l-.35,0a11.45,11.45,0,0,0,0-2.19l.72.07a2.41,2.41,0,0,1-.55-1.91c.18-1.85,1.73-2.76,3.62-2.58s3.23,1.35,3.06,3.2a2.4,2.4,0,0,1-.89,1.78l2.36.22C232,136.49,232.11,136.38,232.14,136.06Zm-1.57-9.57h-.91a2.54,2.54,0,0,1,.88,1.86c0,.77-.42,1.07-.86,1.06a.65.65,0,0,1-.7-.69c0-.6.65-.67.66-1.13a1.44,1.44,0,0,0-.7-1.12l-3.79-.06c-.5,0-.65.17-.74.92h-.34l.05-3.11h.35c.05.77.2,1,.7,1l3.6.06c.33,0,.46-.11.47-.42v-.52h.28l1.06,1.76Zm-2-5.24-3.27.18c-.52,0-.75.19-.73.49a1.16,1.16,0,0,0,.18.51l-.5,0a1.9,1.9,0,0,1-.37-1.07,1,1,0,0,1,.81-1.14,4.21,4.21,0,0,1-1-2.25c-.06-1.16.41-1.91,1.38-2,1.51-.09,2.12,1.67,2.65,4l.83,0c1-.06,1.4-.31,1.35-1.09a1.3,1.3,0,0,0-1.1-1.39c-.48-.09-.69-.35-.7-.65s.17-.56.59-.58c.79,0,1.65,1,1.75,2.66C230.48,120.15,230.11,121.16,228.58,121.25ZM230.21,97l-7.27,5.27a1.25,1.25,0,0,0-.68,1.39l-.34.09-.94-3.5.34-.09c.33,1,.6,1.17,1.11.8L224,99.82l-1-3.68-1.9-.18c-.56-.06-.74.32-.52,1.37l-.34.09-.81-3,.34-.09a1.3,1.3,0,0,0,1.24,1l9,.9Zm-7.55-17.54-.21-.48.26-.11L224.4,80l.17.4-3.83,1.65a4.49,4.49,0,0,1,1.5,1.71,1.76,1.76,0,0,1-.94,2.56l-3.25,1.41c-.47.2-.53.42-.3,1.14l-.32.14-1.23-2.85.32-.14c.37.68.57.77,1,.57l3.25-1.41a1,1,0,0,0,.65-1.46,3.25,3.25,0,0,0-1.27-1.43L216.4,84c-.46.2-.53.42-.29,1.14l-.32.14-1.23-2.85.32-.14c.36.67.58.78,1,.58l6.49-2.8C222.71,79.88,222.78,79.72,222.66,79.44Zm-5.37-4.81a2.6,2.6,0,0,0,2.87.45l.2.38-1.83,1,.78,1.48-.51.26L218,76.68l-3.77,2c-.6.31-.76.66-.49,1.17a2.24,2.24,0,0,0,.55.69l-.49.25a3.46,3.46,0,0,1-.82-1,1.44,1.44,0,0,1,.69-2.21l3.76-2-.43-.83ZM212,66.93l1.84.91.23.36-.59.37A4.54,4.54,0,0,1,215.17,70a1.76,1.76,0,0,1-.56,2.67l-3,1.87c-.42.26-.46.5-.12,1.17l-.3.19-1.63-2.64.29-.19c.47.62.69.68,1.11.41l3-1.86a1,1,0,0,0,.42-1.54,3.25,3.25,0,0,0-1.46-1.23l-3.49,2.17c-.43.26-.47.5-.13,1.17l-.3.19-1.63-2.64.29-.19c.47.62.69.69,1.12.43l3.05-1.9c.29-.17.33-.35.17-.61l-.27-.43Z" transform="translate(0 0)"/>
    <path class="cls-1" d="M216.24,173.86l-1.57,2.81a1.44,1.44,0,0,0,2.11-.53A1.64,1.64,0,0,0,216.24,173.86Z" transform="translate(0 0)"/>
    <path class="cls-1" d="M227,132.59c-1.61-.15-2.79.22-2.92,1.61a1.84,1.84,0,0,0,.62,1.61l4,.37a1.88,1.88,0,0,0,.91-1.47C229.68,133.32,228.59,132.74,227,132.59Z" transform="translate(0 0)"/>
    <path class="cls-1" d="M222.19,156.88c-1.52-.53-2.83-.43-3.29.9s.48,2.24,2,2.77,2.82.41,3.29-.92S223.72,157.41,222.19,156.88Z" transform="translate(0 0)"/>
    <path class="cls-1" d="M217,164.85a1.82,1.82,0,0,0-1.34,1.1c-.57,1.27.28,2.17,1.75,2.83s2.7.7,3.27-.57a1.85,1.85,0,0,0-.06-1.73Z" transform="translate(0 0)"/>
    <polygon class="cls-1" points="228.27 96.66 223.63 96.21 224.5 99.43 228.27 96.66"/>
    <path class="cls-1" d="M225.3,117.36a.87.87,0,0,0-.89,1,3.25,3.25,0,0,0,.83,1.8l1.93-.12C226.82,118.4,226.37,117.3,225.3,117.36Z" transform="translate(0 0)"/>
    <path d="M241.38,79.3A125.06,125.06,0,0,0,11.11,73.42,125,125,0,0,0,238.9,176.58a125.41,125.41,0,0,0,2.48-97.28Zm5.42,48.81A121.84,121.84,0,1,1,128.11,3.2,122,122,0,0,1,246.8,128.11Z" transform="translate(0 0)"/>
    <path d="M205.85,161.7a89.11,89.11,0,1,0-19.74,27.73A88.08,88.08,0,0,0,205.85,161.7Zm-83.1,49a85.65,85.65,0,1,1,87.81-83.43A85.75,85.75,0,0,1,122.75,210.68Z" transform="translate(0 0)"/>
    <path d="M167.27,118.31s-15.43,2.54-35.42,6.34a1.55,1.55,0,0,0,0-.22c18.84-7.7,33.16-14,33.16-14s-14.48,5.36-33.21,12.83v-.11c16.83-11,29.5-19.81,29.5-19.81s-12.89,7.85-29.56,18.56c0-.24,0-.47,0-.71,13.83-14,24.07-24.82,24.07-24.82s-10.46,9.86-24,23.29c0-.34,0-.69,0-1,10.35-15.54,17.8-27.32,17.8-27.32s-7.67,10.68-17.76,25.4c0-.53,0-1,0-1.56s.09-1.25.14-1.88c2.58-6.24,4.83-11.78,6.57-16.1a22.71,22.71,0,1,0-24.45.59c1.71,4.46,3.87,10.06,6.36,16.36,0,.48.08,1,.11,1.44s0,1.1,0,1.65c-10-15.25-17.75-26.38-17.75-26.38s7.48,12.28,17.8,28.38c0,.33,0,.67,0,1C106.77,106.46,96,96.29,96,96.29s10.56,11.19,24.7,25.46c0,.12,0,.23,0,.35-16.76-11.21-29.82-19.47-29.82-19.47s12.74,9.15,29.61,20.62C101.62,115.35,87,109.64,87,109.64s14.54,6.68,33.56,14.84v.07c-20.26-4.23-36-7.1-36-7.1s15.62,3.81,35.93,8.2a.17.17,0,0,1,0,.07c-20.77.08-36.85.55-36.85.55s16,.47,36.8.54a.13.13,0,0,1,0,.06c-20.33,4-36,7.55-36,7.55s15.48-2.54,35.53-6.36c-18.86,7.71-33.21,14-33.21,14s14.58-5.4,33.39-12.91c0,.1,0,.2,0,.3-16.87,11.07-29.59,19.87-29.59,19.87s12.82-7.8,29.42-18.47c0,.23-.05.47-.08.69-13.68,13.82-23.77,24.51-23.77,24.51s10.16-9.57,23.47-22.72c-.13.73-.27,1.43-.41,2.13-9.82,14.79-16.8,25.82-16.8,25.82s6.9-9.61,16.23-23.17a89.15,89.15,0,0,1-4.68,14.06,27.05,27.05,0,0,0-8.13,7.66,27.74,27.74,0,0,0-4.82,15.86H98.88a1.07,1.07,0,0,0-1.08,1.07v3.43a1.07,1.07,0,0,0,1.08,1.07h54.27a1.08,1.08,0,0,0,1.08-1.07v-3.43a1.08,1.08,0,0,0-1.08-1.07H151a24.38,24.38,0,0,0-13-23.52,98,98,0,0,1-3.91-12.32c8.51,12.82,14.69,21.76,14.69,21.76s-6.3-10.37-15.32-24.52c-.22-1-.4-2.09-.58-3.16,13,12.78,22.76,22,22.76,22s-9.75-10.33-23.07-23.81c0-.26-.07-.53-.11-.79,16,10.69,28.33,18.46,28.33,18.46s-12.19-8.74-28.49-19.85l-.06-.53c18.31,7.67,32.41,13.17,32.41,13.17s-14-6.44-32.54-14.39a.38.38,0,0,1,0-.1c19.76,4.11,35,6.88,35,6.88s-15.21-3.7-35.11-8c0-.06,0-.11,0-.17,20.38-.08,36.05-.54,36.05-.54s-15.66-.46-36-.54C152,121.75,167.27,118.31,167.27,118.31Zm-35-8.17a80,80,0,0,1,2-10.7,22.89,22.89,0,0,0,3.56-1.81C136.23,101.13,134.35,105.36,132.26,110.14Zm-7.09-52.92.73,0,1,0c.38,0,.8,0,1.26.05s1,.09,1.5.17a21,21,0,0,1,3.59.89,20.74,20.74,0,0,1,8.17,5.27,19.7,19.7,0,0,1,3.35,4.82,21,21,0,0,1,1.95,12.32,19.47,19.47,0,0,1-1.7,5.62,20.56,20.56,0,0,1-9.28,9.49c-.48.24-.94.45-1.37.63s-.82.32-1.18.43l-1,.29c-.28.08-.52.13-.71.17l-.59.14.55-.25c.18-.08.4-.17.66-.3l.87-.45c.33-.17.68-.39,1.07-.62s.78-.51,1.21-.8A25,25,0,0,0,138,92.76a21.47,21.47,0,0,0,4.87-7.41,19.21,19.21,0,0,0,1.21-5,21.26,21.26,0,0,0-1.72-10.83,19,19,0,0,0-2.69-4.4,21.59,21.59,0,0,0-6.93-5.55,24.43,24.43,0,0,0-3.25-1.32c-.49-.15-1-.28-1.4-.39s-.83-.19-1.2-.26l-1-.15-.72-.08-.6-.07Zm-10.32,41a22.1,22.1,0,0,0,3.05,1.39,72.11,72.11,0,0,1,2.19,11.08C118.13,106,116.35,101.77,114.85,98.23Zm3-9.19,1.56-9.1-6.61-6.44,9.13-1.33L126,63.89l4.08,8.28,9.14,1.33-6.61,6.44,1.56,9.1L126,84.75Zm35,89.45s-12.14.92-27.11.92-27.12-.92-27.12-.92,12.14-.91,27.12-.91S152.81,178.49,152.81,178.49ZM147.62,166a21.76,21.76,0,0,1,.78,9.76h-5.46a22,22,0,0,0,.92-8.7,22.84,22.84,0,0,0-6.37-13.46A22.83,22.83,0,0,1,147.62,166Zm-14.51-21.08c1,4.61,1.82,7.46,1.82,7.46l-.88-1.88c-.57-1.21-1.31-3-2.11-5.25a67.71,67.71,0,0,1-2.32-37c.51-2.33,1-4.2,1.44-5.47s.63-2,.63-2-.45,2.92-.87,7.63a124.53,124.53,0,0,0,2.29,36.47Z" transform="translate(0 0)"/>
    <rect x="44.91" y="122.75" width="33.9" height="2.34"/>
    <rect x="48.29" y="127.56" width="30.51" height="2.34"/>
    <rect x="51.26" y="132.13" width="27.55" height="2.34"/>
    <rect x="170.51" y="122.87" width="33.9" height="2.34"/>
    <rect x="170.51" y="127.68" width="30.51" height="2.34"/>
    <rect x="170.51" y="132.25" width="27.55" height="2.34"/>
    <polygon points="54.16 46.86 58.53 45.13 62.42 47.75 62.13 43.07 65.82 40.17 61.28 39 59.67 34.6 57.15 38.56 52.46 38.73 55.45 42.34 54.16 46.86"/>
    <polygon points="33.52 72.97 37.04 69.87 41.59 71.02 39.74 66.71 42.24 62.74 37.57 63.17 34.56 59.57 33.53 64.14 29.17 65.89 33.2 68.28 33.52 72.97"/>
    <polygon points="20.31 100.46 21.95 104.85 24.44 100.88 29.13 100.68 26.12 97.08 27.38 92.56 23.03 94.31 19.12 91.72 19.44 96.4 15.76 99.31 20.31 100.46"/>
    <polygon points="22.06 133.46 21.99 128.77 18.31 131.68 13.83 130.3 15.46 134.7 12.77 138.54 17.45 138.34 20.27 142.09 21.53 137.58 25.97 136.06 22.06 133.46"/>
    <polygon points="34.06 166.63 29.71 168.38 25.8 165.79 26.12 170.47 22.45 173.38 27 174.53 28.63 178.93 31.13 174.95 35.81 174.75 32.8 171.15 34.06 166.63"/>
    <path d="M83.19,26.11,85.6,32.3c.38,1,.19,1.15-.82,1.62l.12.32,4.49-1.74c2.18-.85,3.35-2.34,2.7-4a2.63,2.63,0,0,0-3.17-1.41c1.19-.75,1.66-1.68,1.25-2.75-.66-1.69-2.39-1.65-4.54-.82l-4.26,1.66.12.32C82.56,25.13,82.81,25.11,83.19,26.11ZM90.66,29c.46,1.2.06,2.28-1.5,2.89l-1.55.6a.39.39,0,0,1-.54-.24l-1.41-3.63,2.1-.81A2.07,2.07,0,0,1,90.66,29Zm-6.13-4.44,1.37-.53c1.47-.57,2.38-.37,2.84.81s-.15,2-1.47,2.5l-1.83.71-1.15-2.95A.38.38,0,0,1,84.53,24.59Z" transform="translate(0 0)"/>
    <path d="M94,25.45c.29-.09.45,0,.54.32l1,3.45c.14.48,0,.68-.71,1l.1.34,3-.87-.1-.34c-.74.15-1,.05-1.1-.43l-1.06-3.64a1.48,1.48,0,0,1,.86-1c.44-.12.7.47,1.28.3a.65.65,0,0,0,.46-.87c-.13-.43-.54-.73-1.27-.52a2.54,2.54,0,0,0-1.52,1.4l-.26-.88-.42.12-1.37,1.53.08.27Z" transform="translate(0 0)"/>
    <path d="M104.87,28.17a2.86,2.86,0,0,0,2.24-2.47l-.55-.12a2.37,2.37,0,0,1-1.73,2c-1.57.33-2.37-.69-2.7-2.27,0-.22-.08-.44-.12-.66l4.44-.93a2.52,2.52,0,0,0-3.24-2.06,3.09,3.09,0,0,0-2.39,3.93A3.17,3.17,0,0,0,104.87,28.17Zm-1.53-6a1.44,1.44,0,0,1,1.78,1.24l-3.15.66A1.64,1.64,0,0,1,103.34,22.19Z" transform="translate(0 0)"/>
    <path d="M109,22.31l2.35,4.5.82-.09,1.19-4.46,2.11,4.09.83-.09,1.29-4.9c.26-.89.47-1.21,1-1.34l0-.34L116,20l0,.35c.91,0,1.15.24.91,1.12l-.89,3.34-1.58-3.07c-.43-.82-.47-1.09.5-1.27l0-.35-3.15.35,0,.35c.53,0,.8.19,1.12.72l-1,3.71-1.57-3c-.43-.81-.46-1.1.51-1.28l0-.35-3.06.34,0,.35C108.45,21.22,108.61,21.52,109,22.31Z" transform="translate(0 0)"/>
    <path d="M123.85,26.12a2.87,2.87,0,0,0,2.68-2L126,23.9a2.37,2.37,0,0,1-2.08,1.64c-1.6,0-2.19-1.12-2.22-2.74,0-.22,0-.45,0-.67l4.52-.08a2.51,2.51,0,0,0-2.78-2.63,3.1,3.1,0,0,0-3.1,3.4A3.17,3.17,0,0,0,123.85,26.12ZM123.49,20A1.43,1.43,0,0,1,125,21.52l-3.22.05A1.63,1.63,0,0,1,123.49,20Z" transform="translate(0 0)"/>
    <path d="M131.55,25.77c-.75-.11-.92-.27-.89-.78l.22-3.78a1.43,1.43,0,0,1,1.14-.65c.46,0,.51.68,1.11.71a.65.65,0,0,0,.72-.67c0-.45-.26-.87-1-.91a2.52,2.52,0,0,0-1.91.81l.06-.92-.43,0-1.81,1v.28l.51,0c.31,0,.43.15.41.48l-.21,3.59c0,.5-.22.65-1,.67l0,.35,3.1.18Z" transform="translate(0 0)"/>
    <path d="M135.67,29.25A2.09,2.09,0,0,0,137.81,28l3.15-5.6c.45-.79.74-1.05,1.27-1.05l.05-.35-2.45-.32,0,.35c.78.17,1,.49.52,1.29l-1.7,3L137.83,22c-.19-.9-.18-1.18.8-1.12l0-.34-3-.41,0,.35c.64.16.73.46.94,1.35l1.2,5.08-.43.77c-.28.53-.63.88-1,.83s-.48-.75-1.07-.83a.65.65,0,0,0-.76.56C134.37,28.74,134.94,29.15,135.67,29.25Z" transform="translate(0 0)"/>
    <path d="M151.85,29.8c2.76.78,5.05-.8,5.84-3.64s-.32-5.37-3.09-6.15-5,.81-5.83,3.64S149.09,29,151.85,29.8Zm-1.6-5.73c.7-2.51,2-4.1,4.19-3.49s2.48,2.66,1.78,5.17-2,4.08-4.21,3.46S149.54,26.58,150.25,24.07Z" transform="translate(0 0)"/>
    <path d="M161.3,32.38c-.69-.33-.87-.56-.69-1L162.24,27l1.28.48.2-.53-1.28-.48.66-1.78c.25-.64.62-.88,1-.74s.19.79.79,1a.64.64,0,0,0,.85-.39c.15-.41-.16-.85-.77-1.08a2.57,2.57,0,0,0-3.39,1.78l-.29.77-.89-.34-.2.54.89.33-1.63,4.35c-.17.47-.4.55-1.14.34l-.12.33,3,1.12Z" transform="translate(0 0)"/>
    <path d="M173.07,37.91c-.95-.58-1.12-.77-.63-1.7l3.34-6.33a.39.39,0,0,1,.57-.18,3,3,0,0,1,1.87,3h.33l.26-2.78-.31-.16a.4.4,0,0,1-.51.07l-4.58-2.41a.4.4,0,0,1-.23-.47l-.31-.16-2.15,1.78.2.28c1.45-.84,2.12-.91,3.46-.2a.38.38,0,0,1,.18.56l-3.34,6.33c-.49.94-.74.9-1.76.44l-.16.31,3.61,1.91Z" transform="translate(0 0)"/>
    <path d="M181.58,33.85l-3.88,5.91c-.28.42-.52.45-1.19.09l-.2.29,2.6,1.7.19-.29c-.59-.47-.66-.7-.38-1.12L181,37a3.16,3.16,0,0,1,1.84.49,1,1,0,0,1,.27,1.58l-2,3c-.27.42-.5.45-1.17.09l-.2.29,2.6,1.71.19-.29c-.59-.47-.66-.7-.38-1.12l1.95-3a1.78,1.78,0,0,0-.62-2.66,4.42,4.42,0,0,0-2.19-.6L183.61,33l-.36-.23-2.06-.05L181,33l.43.28C181.73,33.4,181.76,33.57,181.58,33.85Z" transform="translate(0 0)"/>
    <path d="M186.42,47.51a2.89,2.89,0,0,0,3.34.14l-.26-.51a2.36,2.36,0,0,1-2.65,0c-1.26-1-1-2.26,0-3.53.14-.18.29-.34.44-.51l3.56,2.81a2.53,2.53,0,0,0-.5-3.81,3.1,3.1,0,0,0-4.55.68A3.18,3.18,0,0,0,186.42,47.51Zm3.61-5a1.43,1.43,0,0,1,.2,2.16l-2.53-2A1.62,1.62,0,0,1,190,42.5Z" transform="translate(0 0)"/>
    <path d="M196.15,55.49c-.71-.87-.81-1.1,0-1.82l5.22-4.86-4.19,8.25.31.34L206,53.78l-5.23,4.88c-.77.72-1,.61-1.81-.16l-.25.23,2.78,3,.26-.24c-.71-.86-.81-1.09,0-1.81l4.85-4.53c.79-.73,1-.6,1.81.17l.26-.24-2.11-2.27-7.21,3.05,3.55-7-2.16-2.31-.25.23c.71.87.83,1.1,0,1.83l-4.85,4.52c-.78.72-1,.6-1.82-.17l-.25.24,2.33,2.51Z" transform="translate(0 0)"/>
    <path d="M204.91,61.14a3.28,3.28,0,1,0,4.64.62A3.19,3.19,0,0,0,204.91,61.14Zm4.21.94c.84,1.13.22,2.27-1.07,3.24s-2.58,1.25-3.43.13-.2-2.27,1.09-3.24S208.27,61,209.12,62.08Z" transform="translate(0 0)"/>
    <path d="M211.83,68.12,208.78,70c-.43.26-.65.19-1.12-.43l-.29.19L209,72.42l.3-.19c-.34-.67-.3-.91.13-1.17l3.49-2.17a3.25,3.25,0,0,1,1.46,1.23,1,1,0,0,1-.42,1.54l-3,1.86c-.42.27-.64.21-1.11-.41l-.29.19,1.63,2.64.3-.19c-.34-.67-.3-.91.12-1.17l3-1.87a1.76,1.76,0,0,0,.56-2.67,4.54,4.54,0,0,0-1.73-1.47l.59-.37-.23-.36L212,66.93l-.23.15.27.43C212.16,67.77,212.12,68,211.83,68.12Z" transform="translate(0 0)"/>
    <path d="M213.7,77.55a1.44,1.44,0,0,0-.69,2.21,3.46,3.46,0,0,0,.82,1l.49-.25a2.24,2.24,0,0,1-.55-.69c-.27-.51-.11-.86.49-1.17l3.77-2,.77,1.48.51-.26-.78-1.48,1.83-1-.2-.38a2.6,2.6,0,0,1-2.87-.45l-.26.13.43.83Z" transform="translate(0 0)"/>
    <path d="M222.41,80l-6.49,2.8c-.46.2-.68.09-1-.58l-.32.14,1.23,2.85.32-.14c-.24-.72-.17-.94.29-1.14l3.78-1.64a3.25,3.25,0,0,1,1.27,1.43,1,1,0,0,1-.65,1.46l-3.25,1.41c-.46.2-.66.11-1-.57l-.32.14L217.43,89l.32-.14c-.23-.72-.17-.94.3-1.14l3.25-1.41a1.76,1.76,0,0,0,.94-2.56,4.49,4.49,0,0,0-1.5-1.71l3.83-1.65-.17-.4-1.69-1.17-.26.11.21.48C222.78,79.72,222.71,79.88,222.41,80Z" transform="translate(0 0)"/>
    <path d="M219.75,94.34l-.34.09.81,3,.34-.09c-.22-1,0-1.43.52-1.37l1.9.18,1,3.68-1.54,1.12c-.51.37-.78.19-1.11-.8l-.34.09.94,3.5.34-.09a1.25,1.25,0,0,1,.68-1.39L230.21,97l-.21-.77-9-.9A1.3,1.3,0,0,1,219.75,94.34Zm8.52,2.32-3.77,2.77-.87-3.22Z" transform="translate(0 0)"/>
    <path d="M228.38,106.23l.35,0-.48-3.05-.34.06c0,.66-.25.83-1,1.27L222.49,107l.13.81,4.5,1-4,2.29.13.82,4.95,1.08c.89.21,1.22.41,1.37.92l.35-.05-.4-2.55-.35,0c.08.91-.18,1.16-1.07,1l-3.38-.74,3-1.71c.8-.46,1.08-.52,1.3.45l.34-.06-.49-3.12-.34,0a1.13,1.13,0,0,1-.67,1.15l-3.75-.88,3-1.71C227.87,105.31,228.16,105.27,228.38,106.23Z" transform="translate(0 0)"/>
    <path d="M228.67,116.3c-.42,0-.61.23-.59.58s.22.56.7.65a1.3,1.3,0,0,1,1.1,1.39c.05.78-.33,1-1.35,1.09l-.83,0c-.53-2.35-1.14-4.11-2.65-4-1,.06-1.44.81-1.38,2a4.21,4.21,0,0,0,1,2.25,1,1,0,0,0-.81,1.14,1.9,1.9,0,0,0,.37,1.07l.5,0a1.16,1.16,0,0,1-.18-.51c0-.3.21-.46.73-.49l3.27-.18c1.53-.09,1.9-1.1,1.84-2.29C230.32,117.26,229.46,116.25,228.67,116.3Zm-3.43,3.9a3.25,3.25,0,0,1-.83-1.8.87.87,0,0,1,.89-1c1.07-.06,1.52,1,1.87,2.72Z" transform="translate(0 0)"/>
    <path d="M229.24,124.29v.52c0,.31-.14.43-.47.42l-3.6-.06c-.5,0-.65-.19-.7-1h-.35l-.05,3.11h.34c.09-.75.24-.93.74-.92l3.79.06a1.44,1.44,0,0,1,.7,1.12c0,.46-.65.53-.66,1.13a.65.65,0,0,0,.7.69c.44,0,.85-.29.86-1.06a2.54,2.54,0,0,0-.88-1.86h.91v-.43l-1.06-1.76Z" transform="translate(0 0)"/>
    <path d="M230.17,134.46c.17-1.85-1.19-3-3.06-3.2s-3.44.73-3.62,2.58a2.41,2.41,0,0,0,.55,1.91l-.72-.07a11.45,11.45,0,0,1,0,2.19l.35,0c.14-.76.31-.92.81-.88l8.85.83,0-.43-.92-1.82-.28,0,0,.49c0,.32-.17.43-.5.4l-2.36-.22A2.4,2.4,0,0,0,230.17,134.46Zm-1.53,1.72-4-.37a1.84,1.84,0,0,1-.62-1.61c.13-1.39,1.31-1.76,2.92-1.61s2.7.73,2.57,2.12A1.88,1.88,0,0,1,228.64,136.18Z" transform="translate(0 0)"/>
    <path d="M227,145.51c-2.86-.69-5.4.67-6,3.32a4,4,0,0,0,1.67,4.6l.35-.56a3.38,3.38,0,0,1-1.44-3.81c.53-2.17,2.57-2.68,5.1-2.06s4.13,2,3.61,4.18a4,4,0,0,1-3.21,2.86l0,.34,2.85-.2.09-.39-.42-.32a4.17,4.17,0,0,0,1.26-2.23C231.53,148.58,229.89,146.21,227,145.51Z" transform="translate(0 0)"/>
    <path d="M222.63,155.62a3.28,3.28,0,1,0,2.08,4.19A3.19,3.19,0,0,0,222.63,155.62Zm1.57,4c-.47,1.33-1.76,1.45-3.29.92s-2.48-1.44-2-2.77,1.77-1.43,3.29-.9S224.66,158.3,224.2,159.63Z" transform="translate(0 0)"/>
    <path d="M221.56,164.46l-.23.51c-.13.28-.29.34-.6.2l-5.63-2.53c-.44-.2-.51-.43-.26-1.16l-.32-.14-1.27,2.83.32.14c.37-.65.58-.75,1-.55l1.76.79a2.44,2.44,0,0,0-1.31,1.35c-.79,1.77.11,3.32,1.84,4.1s3.48.42,4.24-1.27a2.44,2.44,0,0,0,.12-2l.64.29.18-.39-.26-2.08Zm-.85,3.75c-.57,1.27-1.8,1.24-3.27.57s-2.32-1.56-1.75-2.83a1.82,1.82,0,0,1,1.34-1.1l3.62,1.63A1.85,1.85,0,0,1,220.71,168.21Z" transform="translate(0 0)"/>
    <path d="M215.87,172a3.18,3.18,0,0,0-4.61,1.36,2.87,2.87,0,0,0,.39,3.31l.46-.33a2.34,2.34,0,0,1-.37-2.62c.78-1.4,2.06-1.34,3.48-.55l.57.35-2.21,4a2.52,2.52,0,0,0,3.68-1.1A3.08,3.08,0,0,0,215.87,172Zm.91,4.13a1.44,1.44,0,0,1-2.11.53l1.57-2.81A1.64,1.64,0,0,1,216.78,176.14Z" transform="translate(0 0)"/>
    <path d="M213.17,180.69c-.18.26-.35.29-.63.1l-3-2c-.42-.28-.44-.52-.07-1.19l-.29-.19L207.46,180l.29.2c.48-.59.71-.65,1.12-.37l3.41,2.3a3.26,3.26,0,0,1-.51,1.84,1,1,0,0,1-1.58.25l-2.94-2c-.42-.28-.45-.5-.08-1.18l-.29-.19-1.74,2.58.29.19c.48-.58.71-.65,1.13-.37l2.93,2a1.76,1.76,0,0,0,2.67-.58,4.57,4.57,0,0,0,.63-2.19l.58.39.24-.35.07-2.06-.23-.15Z" transform="translate(0 0)"/>
    <path d="M210.5,190.57c-.19.23-.37.25-.63,0l-5.48-4.47c-.39-.31-.39-.55,0-1.19l-.27-.22-2,2.41.27.22c.53-.54.76-.58,1.15-.27l3.19,2.6a3.18,3.18,0,0,1-.68,1.79,1,1,0,0,1-1.59.1l-2.75-2.24c-.39-.31-.4-.54,0-1.18l-.27-.22-2,2.41.27.22c.53-.54.77-.58,1.16-.26l2.74,2.23a1.76,1.76,0,0,0,2.71-.34,4.43,4.43,0,0,0,.83-2.12l3.23,2.64.28-.34.25-2-.21-.17Z" transform="translate(0 0)"/>
    <path d="M200.7,195.42a.76.76,0,0,0,0,1,1.31,1.31,0,0,1-.28,1.75c-.54.56-1,.45-1.71-.26l-.6-.58c1.38-2,2.25-3.63,1.17-4.68-.7-.67-1.58-.51-2.38.32a4.15,4.15,0,0,0-1,2.28,1,1,0,0,0-1.38.18,1.91,1.91,0,0,0-.54,1l.36.35a1.24,1.24,0,0,1,.25-.48c.22-.22.48-.16.85.2l2.36,2.28c1.1,1.07,2.1.66,2.92-.19,1.19-1.23,1.35-2.54.78-3.09C201.23,195.18,201,195.17,200.7,195.42Zm-3,1.51-1.39-1.35a3.28,3.28,0,0,1,.76-1.83.89.89,0,0,1,1.37-.05C199.24,194.45,198.73,195.53,197.73,196.93Z" transform="translate(0 0)"/>
    <path d="M193.2,199.9a1.14,1.14,0,0,0,0-1.6,1.09,1.09,0,0,0-1.31-.35,1.29,1.29,0,0,0-.16-1.36c-.76-.86-2-.22-3.4,1s-1.9,2.55-1.12,3.44,1.5.71,3.17-.65,2.16-1.69,2.46-1.34c.16.19.14.52-.24.85s-.62.29-1.18.78a2.42,2.42,0,0,0-.39,3.6,2.3,2.3,0,0,0,1.49.84c.08.33.08.58-.1.74s-.52,0-.83.27a.52.52,0,0,0-.05.76.69.69,0,0,0,1,0,1.93,1.93,0,0,0,.5-1.72,2.88,2.88,0,0,0,1.61-.75,2.43,2.43,0,0,0,.39-3.62A2.33,2.33,0,0,0,193.2,199.9Zm-2-1.63a13.28,13.28,0,0,0-1.48,1.06c-1.25,1-1.65,1.31-2,.88s-.07-1.27,1-2.22,2-1.28,2.47-.74A.83.83,0,0,1,191.18,198.27Zm3.11,5.69c-.82.71-1.59.3-2.32-.53s-1-1.64-.21-2.36,1.6-.32,2.32.51S195.12,203.23,194.29,204Z" transform="translate(0 0)"/>
    <path d="M183.52,204.71a2.85,2.85,0,0,0-1,3.18l.55-.11a2.37,2.37,0,0,1,.74-2.55c1.29-.95,2.44-.36,3.4.94l.38.55-3.65,2.7a2.51,2.51,0,0,0,3.8.52,3.09,3.09,0,0,0,.54-4.57A3.17,3.17,0,0,0,183.52,204.71Zm3.88,4.8a1.44,1.44,0,0,1-2.14-.38l2.59-1.92A1.64,1.64,0,0,1,187.4,209.51Z" transform="translate(0 0)"/>
    <path d="M182.22,212.18c-.26.16-.43.12-.61-.17L179.73,209c-.26-.43-.19-.66.43-1.12l-.18-.3-2.65,1.63.18.3c.68-.34.91-.3,1.17.13l2.16,3.5a3.15,3.15,0,0,1-1.23,1.46,1,1,0,0,1-1.54-.42l-1.86-3c-.26-.43-.2-.65.42-1.11l-.18-.3-2.65,1.63.18.3c.68-.34.91-.3,1.18.13l1.85,3a1.76,1.76,0,0,0,2.67.57,4.41,4.41,0,0,0,1.48-1.73l.37.6.36-.23.92-1.84-.15-.23Z" transform="translate(0 0)"/>
    <path d="M55.9,110.68c.81,0,1.23.69,1.23,1.68,0,2.35-1.59,4-3.64,5.46v1.67H58.8c.32,0,.36.18.36.31H60l.46-3.74h-.8c-.19.77-.33.84-.9.84H56c2.4-1.16,4-2.65,4-4.54,0-1.66-1.36-2.83-3.31-2.83A3.14,3.14,0,0,0,53.38,113H54.5C54.5,111.4,55.08,110.68,55.9,110.68Z" transform="translate(0 0)"/>
    <path d="M66.53,119.7c2.34,0,3.8-1.69,3.8-5.09s-1.46-5.08-3.8-5.08-3.81,1.68-3.81,5.08S64.19,119.7,66.53,119.7Zm0-9.13c.68,0,.88,1,.88,4s-.2,4-.88,4-.88-1-.88-4S65.84,110.57,66.53,110.57Z" transform="translate(0 0)"/>
    <path d="M181.5,110.68c.81,0,1.23.69,1.23,1.68,0,2.35-1.59,4-3.64,5.46v1.67h5.31c.32,0,.36.18.36.31h.8l.46-3.74h-.8c-.19.77-.33.84-.9.84h-2.68c2.4-1.16,4-2.65,4-4.54,0-1.66-1.35-2.83-3.3-2.83A3.14,3.14,0,0,0,179,113h1.11C180.09,111.4,180.68,110.68,181.5,110.68Z" transform="translate(0 0)"/>
    <path d="M192.13,119.7c2.34,0,3.8-1.69,3.8-5.09s-1.46-5.08-3.8-5.08-3.81,1.68-3.81,5.08S189.78,119.7,192.13,119.7Zm0-9.13c.68,0,.87,1,.87,4s-.19,4-.87,4-.88-1-.88-4S191.44,110.57,192.13,110.57Z" transform="translate(0 0)"/>
    <path d="M93.73,188.67a3.48,3.48,0,0,0-1.85-.38H89.59a1.28,1.28,0,0,1-.58-.09c-.1-.06-.16-.22-.16-.47v-.31A.41.41,0,0,1,89,187a.92.92,0,0,1,.46-.1h3.21a4.17,4.17,0,0,1,.83.08,1.87,1.87,0,0,1,.68.29l-.34-1.9h-6a3.35,3.35,0,0,0-1.8.42,1.65,1.65,0,0,0-.67,1.51v2.55c0,.79.2,1.31.6,1.55a3.62,3.62,0,0,0,1.87.37h2.62c.17,0,.29,0,.34.13a1,1,0,0,1,.08.44v.29a.55.55,0,0,1-.11.39.57.57,0,0,1-.4.1H87.13a6.91,6.91,0,0,1-.95-.06,2.13,2.13,0,0,1-.78-.27l.32,1.87h6.16a3.39,3.39,0,0,0,1.81-.42,1.65,1.65,0,0,0,.66-1.51v-2.54A1.68,1.68,0,0,0,93.73,188.67Z" transform="translate(0 0)"/>
    <path d="M105.59,186a2.86,2.86,0,0,1,.09.75v6l-3.58-7.4h-5a2.13,2.13,0,0,1,.3.63,2.86,2.86,0,0,1,.09.75v6.53a3.1,3.1,0,0,1-.09.73,2.16,2.16,0,0,1-.3.65h2.32a2.18,2.18,0,0,1-.3-.64,2.78,2.78,0,0,1-.09-.74v-6.17l3.73,7.55h4.51v-7.91a3,3,0,0,1,.09-.75,1.92,1.92,0,0,1,.3-.63h-2.32A2,2,0,0,1,105.59,186Z" transform="translate(0 0)"/>
    <path d="M118.82,186a2.57,2.57,0,0,1,.1.75v5.29a1.69,1.69,0,0,1-.16.85c-.11.15-.36.23-.75.23h-2.87c-.4,0-.66-.08-.76-.23a1.59,1.59,0,0,1-.16-.85v-5.29a3,3,0,0,1,.09-.73,2.16,2.16,0,0,1,.3-.65H110.3a2.13,2.13,0,0,1,.3.63,2.86,2.86,0,0,1,.09.75V192a3,3,0,0,0,.59,1.93,2.16,2.16,0,0,0,1.79.73h5a2.78,2.78,0,0,0,1-.19,2.16,2.16,0,0,0,.82-.58,2.05,2.05,0,0,0,.45-.81,5.37,5.37,0,0,0,.1-1.08v-5.25a2.62,2.62,0,0,1,.1-.73,1.93,1.93,0,0,1,.29-.65h-2.31A2.12,2.12,0,0,1,118.82,186Z" transform="translate(0 0)"/>
    <path d="M133.4,189.76a2.18,2.18,0,0,1,.29-.64H127.8v1.69a2.57,2.57,0,0,1,.54-.17,3.3,3.3,0,0,1,.58,0h.89v1.61a1.55,1.55,0,0,1-.13.73q-.12.21-.6.21h-1c-.4,0-.66-.08-.76-.23a1.59,1.59,0,0,1-.16-.85v-4a1.59,1.59,0,0,1,.16-.85c.1-.16.36-.24.76-.24h3.52a6.53,6.53,0,0,1,.84,0,2.05,2.05,0,0,1,.67.23l-.31-1.81h-6.7a3.44,3.44,0,0,0-1.81.41,1.63,1.63,0,0,0-.66,1.51v5.43a1.67,1.67,0,0,0,.65,1.53,3.43,3.43,0,0,0,1.82.41h2.69a3.26,3.26,0,0,0,1.23-.18.83.83,0,0,0,.43-.84c0,.13,0,.29.07.49a5.26,5.26,0,0,0,.09.53h3.08a2.18,2.18,0,0,1-.29-.64,3,3,0,0,1-.1-.75v-2.79A3,3,0,0,1,133.4,189.76Z" transform="translate(0 0)"/>
    <path d="M145.6,189.76a2,2,0,0,1,.3-.64H140v1.69a2.57,2.57,0,0,1,.54-.17,3.3,3.3,0,0,1,.58,0H142v1.61a1.55,1.55,0,0,1-.13.73q-.12.21-.6.21h-1c-.4,0-.66-.08-.76-.23a1.59,1.59,0,0,1-.16-.85v-4a1.59,1.59,0,0,1,.16-.85c.1-.16.36-.24.76-.24h3.52a6.53,6.53,0,0,1,.84,0,2.05,2.05,0,0,1,.67.23L145,185.4h-6.7a3.44,3.44,0,0,0-1.81.41,1.63,1.63,0,0,0-.66,1.51v5.43a1.67,1.67,0,0,0,.65,1.53,3.43,3.43,0,0,0,1.82.41H141a3.26,3.26,0,0,0,1.23-.18.83.83,0,0,0,.43-.84c0,.13,0,.29.07.49a5.26,5.26,0,0,0,.09.53h3.09a2,2,0,0,1-.3-.64,3,3,0,0,1-.1-.75v-2.79A3,3,0,0,1,145.6,189.76Z" transform="translate(0 0)"/>
    <path d="M155.2,193.15h-3.32v-6.37A3,3,0,0,1,152,186a1.92,1.92,0,0,1,.3-.63H148a2.42,2.42,0,0,1,.3.63,2.86,2.86,0,0,1,.09.75v6.53a3.13,3.13,0,0,1-.1.73,2.42,2.42,0,0,1-.29.65h8.12l.3-1.89a2,2,0,0,1-.54.28A2.38,2.38,0,0,1,155.2,193.15Z" transform="translate(0 0)"/>
    <path d="M166,193.15h-3.45v-2.47h3.12a3.51,3.51,0,0,1,.59,0,1.08,1.08,0,0,1,.46.21v-2a2.3,2.3,0,0,1-.6.17,4.67,4.67,0,0,1-.72,0h-2.85v-2.25h2.91a7.75,7.75,0,0,1,.88,0,3.57,3.57,0,0,1,.75.18l-.27-1.76H158.6a2.13,2.13,0,0,1,.3.63,2.86,2.86,0,0,1,.09.75v6.53a2.67,2.67,0,0,1-.1.73,2.14,2.14,0,0,1-.29.65H167l.3-1.86a7,7,0,0,1-.85.27A1.78,1.78,0,0,1,166,193.15Z" transform="translate(0 0)"/>
  </g>
</svg>
