<svg id="Layer_2" data-name="Layer 2" xmlns="http://www.w3.org/2000/svg" width="250" height="212" viewBox="0 0 250 212">
  <defs>
    <style>
      .cls-1 {
        fill: #42210b;
      }

      .cls-10, .cls-2, .cls-8, .cls-9 {
        fill: #fff;
      }

      .cls-3 {
        fill: #1a1a1a;
      }

      .cls-4 {
        fill: #736357;
      }

      .cls-5 {
        fill: #663d5a;
      }

      .cls-6 {
        fill: #4d2e44;
      }

      .cls-7 {
        fill: #331f2d;
      }

      .cls-10, .cls-8, .cls-9 {
        font-size: 14.01px;
      }

      .cls-8 {
        font-family: SitkaBanner, Sitka;
      }

      .cls-9 {
        font-family: SitkaText-Bold, Sitka;
      }

      .cls-10, .cls-9 {
        font-weight: 700;
        letter-spacing: 0.1em;
      }

      .cls-10 {
        font-family: Serpentine-Bold, Serpentine;
      }
    </style>
  </defs>
  <g id="FIA">
    <path d="M191.3,133.81" transform="translate(0 -19)"/>
    <g id="Emblem">
      <g>
        <path class="cls-1" d="M125.68,229.5c-34.62,0-54.77-24.82-58-29.18l-16.51-.14V38H61.65V31.42l1-.34C63,31,95,20.5,125.24,20.5s62,10.48,62.27,10.58l1,.34V38h9.93V200.32h-15.9C179.37,204.8,160.21,229.5,125.68,229.5Z" transform="translate(0 -19)"/>
        <path d="M125.24,22C155.63,22,187,32.5,187,32.5v7H197V198.82H181.78S163.08,228,125.68,228s-57.27-29.18-57.27-29.18l-15.78-.13V39.51H63.15v-7S94.85,22,125.24,22m0-3c-30.52,0-61.72,10.22-63,10.66l-2.05.68v6.17H49.63V201.67l3,0,14.28.12a76.83,76.83,0,0,0,14.33,14A73.44,73.44,0,0,0,125.68,231a71,71,0,0,0,43.92-15.22,72.57,72.57,0,0,0,13.74-14H200V36.51H190V30.34l-2-.68C186.69,29.22,155.76,19,125.24,19Z" transform="translate(0 -19)"/>
      </g>
      <path class="cls-2" d="M72.16,193.91s18.55,27.23,53.46,27.23S178,193.91,178,193.91h14.19V45.2h-9.28V38.66s-29.32-9.8-57.68-9.8-58,9.8-58,9.8V45.2H57.43V193.79Z" transform="translate(0 -19)"/>
      <path class="cls-3" d="M73.77,191.8s18,26.41,51.82,26.41,50.77-26.41,50.77-26.41h13.75V47.63h-9V41.3s-28.42-9.51-55.92-9.51S69,41.3,69,41.3v6.33H59.49V191.69Z" transform="translate(0 -19)"/>
      <path class="cls-2" d="M76.17,188.66s17.13,25.16,49.39,25.16,48.37-25.16,48.37-25.16H187V51.28h-8.57v-6s-27.09-9.06-53.29-9.06-53.55,9.06-53.55,9.06v6H62.56V188.55Z" transform="translate(0 -19)"/>
      <path class="cls-4" d="M77.08,187.47s16.81,24.69,48.46,24.69S173,187.47,173,187.47h12.86V52.66h-8.41V46.73s-26.58-8.89-52.29-8.89-52.54,8.89-52.54,8.89v5.93h-8.9v134.7Z" transform="translate(0 -19)"/>
    </g>
    <g id="Ribbon">
      <path class="cls-5" d="M191.3,133.81l24.42,24.38s-35.51,37.69-90.48,37.69-90.82-37.69-90.82-37.69L58.67,134s25.62,27,66.4,27S191.3,133.81,191.3,133.81Z" transform="translate(0 -19)"/>
      <path class="cls-6" d="M200.56,143.06l18.1-23.31,7.1,19.42L250,133.81S231,168,214,177l-8.14-10.13,9.88-8.54Z" transform="translate(0 -19)"/>
      <path class="cls-7" d="M215.72,158.19,213.29,177l-7.45-10.13S215,158.76,215.72,158.19Z" transform="translate(0 -19)"/>
      <path class="cls-6" d="M49.44,143l-18.1-23.31-7.1,19.42L0,133.77S19.05,168,36,177l8.14-10.13-9.88-8.55Z" transform="translate(0 -19)"/>
      <path class="cls-7" d="M34.28,158.15,36.71,177l7.45-10.13S35,158.72,34.28,158.15Z" transform="translate(0 -19)"/>
    </g>
    <g id="Chicken_Wrench" data-name="Chicken Wrench">
      <g>
        <path d="M80.07,128.31l-.78-.27a.55.55,0,0,1-.35-.48.56.56,0,0,1,.29-.52l6-3.3-.13-5.84-4.86-3.25-6,3.3a.56.56,0,0,1-.42,0h0a.56.56,0,0,1-.17-.09.54.54,0,0,1-.22-.55,9.48,9.48,0,0,1,15-5.69l.17.12.17-.12c.16-.1.31-.2.46-.28L108,100.22c.46-.25.59-.22.6-.22a3.42,3.42,0,0,1-.06,1.19,5.93,5.93,0,0,0,.28,3.65,6,6,0,0,0,2.93,2.21c.4.19,1,.47,1.06.62h0s0,.13-.51.38h0L92.84,118l-.5.24-.18.08v.21a9.48,9.48,0,0,1-12.1,9.82Z" transform="translate(0 -19)"/>
        <path class="cls-2" d="M108.3,100.37a7.79,7.79,0,0,1-.09.78,6.18,6.18,0,0,0,.32,3.83,6.29,6.29,0,0,0,3.06,2.34c.24.11.54.25.73.36l-.19.12h0L92.71,117.7h0c-.15.09-.31.16-.47.24l-.38.16,0,.41A9.18,9.18,0,0,1,80.15,128c-.25-.08-.5-.16-.75-.26a.26.26,0,0,1-.17-.23.27.27,0,0,1,.14-.25l5.88-3.22.31-.17v-.35L85.43,118v-.3l-.25-.16-4.58-3.07-.29-.2-.31.17L74.1,117.7a.27.27,0,0,1-.2,0l-.08,0a.26.26,0,0,1-.1-.26,9.2,9.2,0,0,1,14.54-5.52l.33.25.35-.24a5.08,5.08,0,0,1,.43-.27h0l18.7-11.15h0l.2-.1m.35-.65a1.26,1.26,0,0,0-.83.25h0l-18.7,11.16a3.88,3.88,0,0,0-.48.3,9.76,9.76,0,0,0-15.46,5.86.84.84,0,0,0,.33.85.91.91,0,0,0,.26.13.84.84,0,0,0,.64-.07L80.27,115l4.58,3.07.12,5.51-5.88,3.22a.84.84,0,0,0,.1,1.52c.26.1.53.19.8.27a9.76,9.76,0,0,0,12.47-10.12,4.89,4.89,0,0,0,.52-.25l19.39-9.89h0c2.31-1.27-2.1-1.3-3.36-3.61-1.05-1.9.38-4.75-.39-5Z" transform="translate(0 -19)"/>
      </g>
      <g>
        <path d="M117.48,106.47c-2.54-.74-4.29-2-5.2-3.61-1.42-2.59-.72-6.37,2.09-11.23A72.57,72.57,0,0,1,125.1,78.22l.15.24a4.88,4.88,0,0,0,7.6.71,4.88,4.88,0,0,0,8.79-1.9,4.9,4.9,0,0,0,3.78-.66,4.85,4.85,0,0,0,1.42-6.73v0a4.85,4.85,0,0,0,.42-7.38,19.64,19.64,0,0,1,9.6.35,19.44,19.44,0,0,1,3.88,35.73c-3.55,1.94-11.21,4.8-20.31,6.81-9.82,2.17-18,2.57-22.94,1.12Z" transform="translate(0 -19)"/>
        <path class="cls-2" d="M156.77,63.1a19.15,19.15,0,0,1,3.83,35.19c-3.54,1.94-11.17,4.78-20.24,6.79-9.77,2.16-17.87,2.56-22.8,1.12-2.47-.72-4.16-1.89-5-3.48a6.92,6.92,0,0,1-.46-4.77,21.5,21.5,0,0,1,2.55-6.18,69.61,69.61,0,0,1,10.43-13.08,5.19,5.19,0,0,0,7.1,1.44,5.7,5.7,0,0,0,.67-.52,5.17,5.17,0,0,0,6.84,1.09,5.12,5.12,0,0,0,2.2-3.09,5.16,5.16,0,0,0,3.72-.76,5.16,5.16,0,0,0,1.63-6.94,5.17,5.17,0,0,0,1-6.75,4.91,4.91,0,0,0-.39-.51,19.28,19.28,0,0,1,9,.45m.16-.56a19.9,19.9,0,0,0-10.31-.22,4.69,4.69,0,0,1,1.1,1.16,4.57,4.57,0,0,1-1.3,6.3l.18.25a4.58,4.58,0,0,1-5.13,6.9l-.07,0a4.59,4.59,0,0,1-8.4,2l-.11-.19A4.61,4.61,0,0,1,128,80.2a4.56,4.56,0,0,1-2.55-1.9,4,4,0,0,1-.32-.57C116.43,86.55,108.83,97.17,112,103a8.47,8.47,0,0,0,5.37,3.75c11.47,3.35,35.62-3.65,43.48-8a19.72,19.72,0,0,0-3.94-36.26Z" transform="translate(0 -19)"/>
      </g>
    </g>
    <text class="cls-8" transform="matrix(0.81, 0.59, -0.59, 0.81, 62.59, 135.15)">F</text>
    <text class="cls-8" transform="matrix(0.86, 0.52, -0.52, 0.86, 69.48, 140.13)">O</text>
    <text class="cls-8" transform="translate(78.56 145.48) rotate(25.36)">O</text>
    <text class="cls-8" transform="translate(88.15 149.92) rotate(19.58)">D</text>
    <text class="cls-8" transform="translate(97.84 153.2) rotate(15.26)"> </text>
    <text class="cls-8" transform="matrix(0.98, 0.21, -0.21, 0.98, 102.5, 154.43)">I</text>
    <text class="cls-8" transform="translate(108.01 155.66) rotate(7.46)">N</text>
    <text class="cls-8" transform="translate(118.64 156.95) rotate(1.09)">N</text>
    <text class="cls-8" transform="matrix(1, -0.09, 0.09, 1, 129.37, 157.04)">O</text>
    <text class="cls-8" transform="translate(139.88 155.94) rotate(-11.33)">V</text>
    <text class="cls-8" transform="translate(148.66 154.13) rotate(-16.55)">A</text>
    <text class="cls-8" transform="translate(157.08 151.56) rotate(-21.58)">T</text>
    <text class="cls-8" transform="translate(165.74 148) rotate(-25.73)">I</text>
    <text class="cls-8" transform="translate(170.82 145.58) rotate(-30.09)">O</text>
    <text class="cls-8" transform="matrix(0.81, -0.59, 0.58, 0.81, 179.9, 140.22)">N</text>
    <text class="cls-8" transform="translate(100.27 169.39) rotate(12.5)">A</text>
    <text class="cls-8" transform="translate(109.08 171.38) rotate(5.98)">W</text>
    <text class="cls-8" transform="matrix(1, -0.01, 0.01, 1, 121.99, 172.55)">A</text>
    <text class="cls-8" transform="matrix(1, -0.11, 0.11, 0.99, 131.43, 172.36)">R</text>
    <text class="cls-8" transform="matrix(0.98, -0.21, 0.21, 0.98, 141.1, 171.22)">D</text>
    <g id="Stars">
      <polygon class="cls-2" points="77.63 61.78 72.96 64.23 73.85 59.04 70.07 55.36 75.29 54.61 77.63 49.88 79.96 54.61 85.18 55.36 81.4 59.04 82.29 64.23 77.63 61.78"/>
      <polygon class="cls-2" points="92.73 54.61 88.06 57.06 88.96 51.87 85.18 48.19 90.4 47.43 92.73 42.71 95.07 47.43 100.29 48.19 96.51 51.87 97.4 57.06 92.73 54.61"/>
      <polygon class="cls-2" points="107.84 47.43 103.17 49.88 104.06 44.69 100.29 41.02 105.5 40.26 107.84 35.54 110.17 40.26 115.39 41.02 111.62 44.69 112.51 49.88 107.84 47.43"/>
      <polygon class="cls-2" points="122.95 40.26 118.28 42.71 119.17 37.52 115.39 33.84 120.61 33.09 122.95 28.36 125.28 33.09 130.5 33.84 126.72 37.52 127.61 42.71 122.95 40.26"/>
      <polygon class="cls-2" points="138.05 33.09 133.38 35.54 134.28 30.34 130.5 26.67 135.72 25.91 138.05 21.19 140.39 25.91 145.61 26.67 141.83 30.34 142.72 35.54 138.05 33.09"/>
    </g>
    <text class="cls-9" transform="translate(120.4 126.96)">2020</text>
    <text class="cls-10" transform="translate(98.28 109.4)">SNUGGLE</text>
  </g>
</svg>
