<svg xmlns="http://www.w3.org/2000/svg" xmlns:xlink="http://www.w3.org/1999/xlink" width="94" height="94" viewBox="0 0 94 94">
  <defs>
    <clipPath id="clip-path">
      <rect id="Button_Lavender" data-name="Button Lavender" width="94" height="94" transform="translate(918 1170)" fill="#fff" stroke="#707070" stroke-width="1"/>
    </clipPath>
  </defs>
  <g id="Mask_Group_3" data-name="Mask Group 3" transform="translate(-918 -1170)" clip-path="url(#clip-path)">
    <g id="lavender" transform="translate(917.987 1169.988)">
      <g id="Group_99" data-name="Group 99">
        <path id="Path_6322" data-name="Path 6322" d="M74.93,7.052,72.8,12.488l-2.2,5.62a.281.281,0,0,1-.533-.037L67.437,6.483a3.924,3.924,0,0,1,3.82-4.793,1.58,1.58,0,0,1,.294.018,3.683,3.683,0,0,1,1.561.459A3.9,3.9,0,0,1,74.93,7.052Z" fill="#5f4aa3"/>
        <path id="Path_6323" data-name="Path 6323" d="M87.767,19.706v.11a3.928,3.928,0,0,1-5.179,3.618l-7.309-2.479-3.949-1.341a.278.278,0,0,1,.018-.533L82.79,15.9a3.935,3.935,0,0,1,4.977,3.8Z" fill="#5f4aa3"/>
        <path id="Path_6324" data-name="Path 6324" d="M64.04,18.163,62.5,24,61.009,29.66a.28.28,0,0,1-.533.018l-3.93-11.2a4.135,4.135,0,0,1-.22-1.3,3.922,3.922,0,1,1,7.713.992Z" fill="#5f4aa3"/>
        <path id="Path_6325" data-name="Path 6325" d="M73.5,33.553l-7-1.506-4.628-.992a.282.282,0,0,1-.055-.533L72.836,26.06a3.881,3.881,0,0,1,1.469-.294,3.934,3.934,0,0,1,3.4,1.965,3.978,3.978,0,0,1,.514,1.635,3.9,3.9,0,0,1-4.72,4.187Z" fill="#5f4aa3"/>
        <path id="Path_6326" data-name="Path 6326" d="M54.306,31.845,53.571,38.2l-.624,5.436a.281.281,0,0,1-.533.092L46.923,33.2a3.847,3.847,0,0,1-.441-1.818,3.925,3.925,0,0,1,5.785-3.453,3.952,3.952,0,0,1,2.039,3.912Z" fill="#5f4aa3"/>
        <path id="Path_6327" data-name="Path 6327" d="M65.876,45.729l-6.538-.441-5.326-.367a.277.277,0,0,1-.129-.514L64.131,38.42a3.878,3.878,0,0,1,1.983-.533,3.969,3.969,0,0,1,3.416,1.965,4.161,4.161,0,0,1,.422,1.065,3.916,3.916,0,0,1-4.077,4.812Z" fill="#5f4aa3"/>
        <path id="Path_6328" data-name="Path 6328" d="M23.2,22.883l-.79,6.336-.68,5.454a.284.284,0,0,1-.533.092l-5.4-10.578a3.986,3.986,0,0,1-.441-1.781A3.939,3.939,0,0,1,18.6,18.531,3.925,3.925,0,0,1,23.2,22.883Z" fill="#5f4aa3"/>
        <path id="Path_6329" data-name="Path 6329" d="M34.655,36.877,28.1,36.363l-5.289-.4a.274.274,0,0,1-.11-.514L33,29.55A3.949,3.949,0,0,1,38.365,31a4.162,4.162,0,0,1,.422,1.1,3.927,3.927,0,0,1-4.132,4.775Z" fill="#5f4aa3"/>
        <path id="Path_6330" data-name="Path 6330" d="M15.39,36.326l-.055,6.758L15.28,48.19a.279.279,0,0,1-.514.147l-6.575-9.9a3.989,3.989,0,0,1-.661-2.167,3.927,3.927,0,0,1,2.81-3.765,3.856,3.856,0,0,1,2.975.312A3.939,3.939,0,0,1,15.39,36.326Z" fill="#5f4aa3"/>
        <path id="Path_6331" data-name="Path 6331" d="M28.356,48.925l-6.189.239-5.693.22a.275.275,0,0,1-.184-.5l9.568-7.034a3.917,3.917,0,0,1,5.73,1.194,3.652,3.652,0,0,1,.312.661,3.917,3.917,0,0,1-3.544,5.216Z" fill="#5f4aa3"/>
        <path id="Path_6332" data-name="Path 6332" d="M10.927,63.764a.274.274,0,0,1-.477.22L2.516,55.132a3.922,3.922,0,0,1,4.775-6.079,3.89,3.89,0,0,1,2.02,2.938l.992,7.291Z" fill="#5f4aa3"/>
        <path id="Path_6333" data-name="Path 6333" d="M23.967,62.589l-5.712,1.047-5.969,1.1a.277.277,0,0,1-.239-.477l8.466-8.338a3.844,3.844,0,0,1,2.755-1.12,3.919,3.919,0,0,1,3.416,1.965.55.55,0,0,1,.073.147,3.94,3.94,0,0,1-2.792,5.675Z" fill="#5f4aa3"/>
      </g>
      <path id="Path_6334" data-name="Path 6334" d="M74.93,7.052,72.8,12.488,71.4,6.354A3.911,3.911,0,0,1,73.13,2.167,3.915,3.915,0,0,1,74.93,7.052Z" fill="#9f92c8"/>
      <path id="Path_6335" data-name="Path 6335" d="M87.767,19.706v.11a3.928,3.928,0,0,1-5.179,3.618l-7.309-2.479L86.39,17.888a5,5,0,0,1,.863-.147A3.969,3.969,0,0,1,87.767,19.706Z" fill="#9f92c8"/>
      <path id="Path_6336" data-name="Path 6336" d="M64.04,18.163,62.5,24l-1.983-5.675a4.135,4.135,0,0,1-.22-1.3,3.935,3.935,0,0,1,1.818-3.306,3.881,3.881,0,0,1,1.928,4.444Z" fill="#9f92c8"/>
      <path id="Path_6337" data-name="Path 6337" d="M73.5,33.553l-7-1.506,9.936-4.022a4.648,4.648,0,0,1,1.286-.294,3.978,3.978,0,0,1,.514,1.635A3.923,3.923,0,0,1,73.5,33.553Z" fill="#9f92c8"/>
      <path id="Path_6338" data-name="Path 6338" d="M54.306,31.845,53.571,38.2,50.89,33.057a3.847,3.847,0,0,1-.441-1.818,3.928,3.928,0,0,1,1.818-3.324A4,4,0,0,1,54.306,31.845Z" fill="#9f92c8"/>
      <path id="Path_6339" data-name="Path 6339" d="M65.876,45.729l-6.538-.441,8.393-4.9a3.847,3.847,0,0,1,1.8-.533,4.161,4.161,0,0,1,.422,1.065A3.916,3.916,0,0,1,65.876,45.729Z" fill="#9f92c8"/>
      <path id="Path_6340" data-name="Path 6340" d="M23.2,22.883l-.79,6.336-2.645-5.161a3.986,3.986,0,0,1-.441-1.781,3.946,3.946,0,0,1,1.837-3.324A3.864,3.864,0,0,1,23.2,22.883Z" fill="#9f92c8"/>
      <path id="Path_6341" data-name="Path 6341" d="M34.655,36.877,28.1,36.363,36.6,31.5a3.742,3.742,0,0,1,1.763-.514,4.162,4.162,0,0,1,.422,1.1,3.934,3.934,0,0,1-4.132,4.793Z" fill="#9f92c8"/>
      <path id="Path_6342" data-name="Path 6342" d="M15.39,36.326l-.055,6.758L12.158,38.31a3.989,3.989,0,0,1-.661-2.167,3.932,3.932,0,0,1,1.818-3.324,3.939,3.939,0,0,1,2.075,3.508Z" fill="#9f92c8"/>
      <path id="Path_6343" data-name="Path 6343" d="M28.356,48.925l-6.189.239L29.458,43.8a3.812,3.812,0,0,1,2.149-.753,3.652,3.652,0,0,1,.312.661A3.936,3.936,0,0,1,28.356,48.925Z" fill="#9f92c8"/>
      <path id="Path_6344" data-name="Path 6344" d="M10.3,59.283,6.465,55a3.916,3.916,0,0,1,.808-5.932,3.89,3.89,0,0,1,2.02,2.938Z" fill="#9f92c8"/>
      <path id="Path_6345" data-name="Path 6345" d="M23.967,62.589l-5.712,1.047,5.84-5.748a3.893,3.893,0,0,1,2.571-1.12.55.55,0,0,1,.073.147,3.923,3.923,0,0,1-2.773,5.675Z" fill="#9f92c8"/>
      <path id="Path_6346" data-name="Path 6346" d="M89.788,9.072l-7.034,2.241L78.475,12.69a.284.284,0,0,1-.312-.441L85.49,2.9A3.9,3.9,0,0,1,88.575,1.4a4,4,0,0,1,1.873.477,3.868,3.868,0,0,1,1.359,1.212,3.921,3.921,0,0,1-2.02,5.987Z" fill="#5f4aa3"/>
      <path id="Path_6347" data-name="Path 6347" d="M38.089,21.175l-5.454,3.4-4.628,2.9a.278.278,0,0,1-.4-.349L32.4,16.253A3.917,3.917,0,0,1,36,13.9a3.774,3.774,0,0,1,1.855.477,3.582,3.582,0,0,1,.716.5,3.914,3.914,0,0,1-.477,6.3Z" fill="#5f4aa3"/>
      <path id="Path_6348" data-name="Path 6348" d="M89.788,9.072l-7.034,2.241,6.7-8.558a4.16,4.16,0,0,1,.992-.9,3.868,3.868,0,0,1,1.359,1.212A3.935,3.935,0,0,1,89.788,9.072Z" fill="#9f92c8"/>
      <path id="Path_6349" data-name="Path 6349" d="M38.089,21.175l-5.454,3.4,3.747-8.466a3.828,3.828,0,0,1,1.488-1.726,3.582,3.582,0,0,1,.716.5,3.926,3.926,0,0,1-.5,6.3Z" fill="#9f92c8"/>
      <path id="Path_6350" data-name="Path 6350" d="M92.965,2.3a5.317,5.317,0,0,0-8.558-.239c-9.7,12.36-6.373,8.54-10.854,12.378l2.681-6.85A5.325,5.325,0,1,0,66.078,6.8l2.736,12.048c-1.745,1.763-3.4,3.618-4.977,5.546l1.561-5.9a5.327,5.327,0,1,0-10.174.4L59.3,30.523c-1.579,2.351-2.883,4.5-4.242,7,.7-6.061.68-5.73.68-6.152a5.335,5.335,0,0,0-6.3-5.234c-4.885.9-5.528,7.566-2.718,7.162a1.392,1.392,0,0,0,1.194-1.579,2.527,2.527,0,1,1,5.014-.073l-.955,8.209-1.837-3.526a1.4,1.4,0,0,0-2.479,1.3l3.8,7.273a96.039,96.039,0,0,0-7.805,47.841,1.4,1.4,0,0,0,2.792-.257A93,93,0,0,1,53.92,46.3c12.837.863,11.974.808,12.25.808a5.325,5.325,0,1,0-2.7-9.917L56.2,41.432a87.066,87.066,0,0,1,5.252-9.054c12.745,2.736,12.121,2.645,12.911,2.645a5.328,5.328,0,1,0-2.02-10.266l-7.658,3.1a78.555,78.555,0,0,1,6.042-6.979c12.433,4.206,11.937,4.132,13.113,4.132a5.338,5.338,0,0,0,2.773-9.88,1.4,1.4,0,0,0-1.469,2.387,2.529,2.529,0,0,1-2.13,4.555l-7.769-2.608,5.638-1.561a1.4,1.4,0,1,0-.753-2.7l-4.72,1.322c.9-.771,1.837-1.524,2.792-2.277L90.21,10.413A5.325,5.325,0,0,0,92.965,2.3Zm-28.1,37.318a2.529,2.529,0,0,1,3.2,3.82,2.484,2.484,0,0,1-2.094.882l-8.209-.551ZM62.681,17.8l-2.112,7.952L57.85,18A2.531,2.531,0,0,1,62.2,15.574a2.439,2.439,0,0,1,.477,2.222Zm10.707,9.568a2.5,2.5,0,0,1,2.277.184,2.531,2.531,0,0,1-1.855,4.628L65.766,30.45ZM70.633,14.215,68.814,6.189a2.465,2.465,0,0,1,.551-2.2,2.527,2.527,0,0,1,4.261,2.571ZM90.981,6.134a2.5,2.5,0,0,1-1.616,1.6l-7.842,2.5L86.61,3.765A2.525,2.525,0,0,1,90.981,6.134Z"/>
      <path id="Path_6351" data-name="Path 6351" d="M34.857,12.635a5.279,5.279,0,0,0-3.71,3.049c-6.336,14.343-4.059,9.844-7.456,14.674l.9-7.291a5.327,5.327,0,1,0-10.027,1.781l5.62,10.982c-1.249,2.13-2.406,4.334-3.453,6.611l.055-6.079a5.231,5.231,0,0,0-2.13-4.3,5.326,5.326,0,0,0-7.64,7.2l6.813,10.248q-1.35,3.8-2.369,7.824l-.753-5.51a5.325,5.325,0,1,0-9.238,4.279L9.789,65.38a108.48,108.48,0,0,0-.937,26.134,1.4,1.4,0,1,0,2.792-.239,104.573,104.573,0,0,1,.9-25.142l11.68-2.149a5.328,5.328,0,1,0-4.7-9.036l-5.969,5.9A83.722,83.722,0,0,1,16.4,50.8l12.029-.459a5.3,5.3,0,0,0,5.124-5.326,5.724,5.724,0,0,0-.294-1.763c-1.69-4.83-8.632-4.224-7.658-1.488a1.391,1.391,0,0,0,1.781.845,2.524,2.524,0,1,1,.918,4.9l-8.228.312,3.049-2.241a1.4,1.4,0,0,0-1.671-2.259l-3.067,2.259a78.553,78.553,0,0,1,4.132-8.246c12.984.992,12.121.937,12.433.937a5.328,5.328,0,1,0-2.663-9.954l-6.318,3.618c.68-.973,1.4-1.928,2.149-2.883l10.707-6.685a5.249,5.249,0,0,0,2.479-4.1,5.313,5.313,0,0,0-6.446-5.638ZM3.544,54.214a2.529,2.529,0,1,1,4.389-2.039l1.1,8.154Zm17.943,2.718A2.474,2.474,0,0,1,23.25,56.2a2.529,2.529,0,0,1,.459,5.014L15.61,62.7ZM13.9,44.554,9.348,37.7a2.525,2.525,0,1,1,4.628-1.377Zm7.915-21.836-1.01,8.173-3.747-7.328a2.525,2.525,0,1,1,4.757-.845ZM33.7,30.762a2.53,2.53,0,0,1,3.159,3.857,2.5,2.5,0,0,1-2.112.863l-8.209-.624Zm3.655-10.78-6.979,4.371,3.324-7.53a2.526,2.526,0,1,1,3.655,3.159Z"/>
    </g>
  </g>
</svg>
