<svg xmlns="http://www.w3.org/2000/svg" xmlns:xlink="http://www.w3.org/1999/xlink" width="94" height="94" viewBox="0 0 94 94">
  <defs>
    <clipPath id="clip-path">
      <rect id="Button_Linen" data-name="Button Linen" width="94" height="94" transform="translate(774 1170)" fill="#fff" stroke="#707070" stroke-width="1"/>
    </clipPath>
  </defs>
  <g id="Mask_Group_2" data-name="Mask Group 2" transform="translate(-774 -1170)" clip-path="url(#clip-path)">
    <g id="linen" transform="translate(773.988 1170.014)">
      <path id="Path_6316" data-name="Path 6316" d="M23.524,39.042H73.107a4.573,4.573,0,0,0,4.573-4.573V25.287a4.573,4.573,0,0,0-4.573-4.573H23.524a6.909,6.909,0,0,0-6.9,6.9v4.536A6.916,6.916,0,0,0,23.524,39.042Z" fill="#b4d1df"/>
      <path id="Path_6317" data-name="Path 6317" d="M20.549,58.985H71.344a6.909,6.909,0,0,0,6.9-6.9V47.544a6.909,6.909,0,0,0-6.9-6.9H20.549a4.2,4.2,0,0,0-4.205,4.205v9.935A4.193,4.193,0,0,0,20.549,58.985Z" fill="#438db0"/>
      <path id="Path_6318" data-name="Path 6318" d="M22.936,78.083H73.713a4,4,0,0,0,4-4v-10.3a4,4,0,0,0-4-4H22.936a6.909,6.909,0,0,0-6.9,6.9v4.536A6.889,6.889,0,0,0,22.936,78.083Z" fill="#224758"/>
      <path id="Path_6319" data-name="Path 6319" d="M9.072,85.227h76.32s1.873-6.684-7.713-6.611-65.082,0-65.082,0S9.237,77.881,9.072,85.227Z" fill="#645638"/>
      <rect id="Rectangle_787" data-name="Rectangle 787" width="12.745" height="5.95" transform="translate(64.494 86.126)" fill="#3d2b06"/>
      <rect id="Rectangle_788" data-name="Rectangle 788" width="12.745" height="5.95" transform="translate(16.766 86.126)" fill="#3d2b06"/>
      <path id="Path_6320" data-name="Path 6320" d="M44.018,20.017l3.342-9.108h-2.5L44.33,4.922,38.546,6.482l-4.407-4.9-4,4.9L24.681,5.032,23.157,9.4l-1.6,2.093,2.332,8.521Z" fill="#bdb513"/>
      <path id="Path_6321" data-name="Path 6321" d="M80.25,77.238h-1.3a6.25,6.25,0,0,0,1.065-3.471,6.158,6.158,0,0,0-2.332-4.848A6.212,6.212,0,0,0,75.824,58.2a11.151,11.151,0,0,0,3.471-4.7,1.37,1.37,0,0,0-.79-1.781,1.385,1.385,0,0,0-1.781.79,8.424,8.424,0,0,1-7.786,5.344H45.561V50.9H61.1a9.2,9.2,0,0,0,5.638-1.947l1.083-.845a1.374,1.374,0,0,0-1.689-2.167l-1.083.845A6.391,6.391,0,0,1,61.1,48.15H45.561V41.208H68.938a8.381,8.381,0,0,1,8.117,6.5,1.383,1.383,0,1,0,2.7-.606,11.142,11.142,0,0,0-3.838-6.189c-.018-.018-.055-.037-.073-.055A6.212,6.212,0,0,0,77.7,30.135,6.219,6.219,0,0,0,73.8,19.062H66.881a1.377,1.377,0,0,0,0,2.755H73.8a3.471,3.471,0,0,1,0,6.942H59.591V21.816h1.8a1.377,1.377,0,0,0,0-2.755H46.24a14.176,14.176,0,0,0,2.149-8.411,1.387,1.387,0,0,0-1.377-1.377h-.7a13.111,13.111,0,0,0-.129-3.489c-.2-.808-.073-1.543-.771-2.038s-1.341-.11-2.185-.037A12.767,12.767,0,0,0,38.95,5.27,18.209,18.209,0,0,0,35.112.386a1.386,1.386,0,0,0-1.947,0A18.6,18.6,0,0,0,29.327,5.27,14.534,14.534,0,0,0,23.91,3.526a1.371,1.371,0,0,0-1.6,1.1,15.949,15.949,0,0,0-.331,4.628h-.7a1.387,1.387,0,0,0-1.377,1.377,13.788,13.788,0,0,0,2.424,8.741A11.07,11.07,0,0,0,18.2,38.766a6.212,6.212,0,0,0-1.855,10.724A6.212,6.212,0,0,0,18.2,60.215a11.052,11.052,0,0,0-.4,16.987H13.773a6.56,6.56,0,0,0-6.556,6.556v1.616a1.387,1.387,0,0,0,1.377,1.377h6.28v4.628a2.618,2.618,0,0,0,2.608,2.608H28.776a2.618,2.618,0,0,0,2.608-2.608V86.751H35.24a1.377,1.377,0,1,0,0-2.755H9.953v-.239a3.809,3.809,0,0,1,3.8-3.8H80.232a3.809,3.809,0,0,1,3.8,3.8V84h-43.3a1.377,1.377,0,0,0,0,2.755h21.89v4.628a2.618,2.618,0,0,0,2.608,2.608H76.522a2.618,2.618,0,0,0,2.608-2.608V86.751h6.3a1.387,1.387,0,0,0,1.377-1.377V83.758a6.552,6.552,0,0,0-6.556-6.519Zm-51.6,9.549v4.481H17.629V86.788ZM73.786,60.6a3.471,3.471,0,1,1,0,6.942H59.572V60.6ZM56.8,60.6v6.942H51.217V60.6ZM37.224,50.9h5.583v6.942H37.224V50.9Zm5.583-2.755H37.224V41.208h5.583V48.15Zm8.411-9.7V31.512H56.8v6.942Zm26.04-3.471a3.48,3.48,0,0,1-3.471,3.471H59.572V31.512H73.786a3.48,3.48,0,0,1,3.471,3.471ZM56.8,21.816v6.942H51.217V21.816ZM39.225,19.062a15.677,15.677,0,0,0,1.432-5.619,10.253,10.253,0,0,1,4.977-1.4,10.351,10.351,0,0,1-2.957,7.015Zm4.26-12.579A10.346,10.346,0,0,1,43.5,9.494a12.565,12.565,0,0,0-2.957.918A14.84,14.84,0,0,0,40,7.878,9.95,9.95,0,0,1,43.486,6.482ZM34.12,3.361l.037-.037.037.037a12.922,12.922,0,0,1,1.947,15.7H32.192A12.842,12.842,0,0,1,34.12,3.361Zm-8.5,15.7a10.233,10.233,0,0,1-2.957-7.015,10.309,10.309,0,0,1,4.977,1.4A15.306,15.306,0,0,0,29.07,19.08l-3.452-.018ZM24.81,6.482A10.276,10.276,0,0,1,28.3,7.86a14.84,14.84,0,0,0-.551,2.534,13.071,13.071,0,0,0-2.957-.9A9.744,9.744,0,0,1,24.81,6.482ZM16.766,30.135a8.323,8.323,0,0,1,8.319-8.319H48.462v6.942H32.926A6.429,6.429,0,0,1,28.978,27.4l-1.083-.845a1.374,1.374,0,0,0-1.689,2.167l1.083.845a9.2,9.2,0,0,0,5.638,1.947H48.462v6.942H25.085a8.335,8.335,0,0,1-8.319-8.319Zm0,14.544a3.48,3.48,0,0,1,3.471-3.471H34.451V48.15H20.237A3.48,3.48,0,0,1,16.766,44.679Zm3.471,13.167a3.471,3.471,0,1,1,0-6.942H34.451v6.942ZM16.766,68.92A8.323,8.323,0,0,1,25.085,60.6H48.462v6.942H32.926a6.429,6.429,0,0,1-3.948-1.359l-1.083-.845a1.374,1.374,0,0,0-1.689,2.167l1.083.845A9.2,9.2,0,0,0,32.926,70.3H48.462v6.942H25.085a8.347,8.347,0,0,1-8.319-8.319Zm34.451,8.319V70.3H56.8v6.942Zm8.337,0V70.3H73.768a3.471,3.471,0,1,1,0,6.942Zm16.84,14.03H65.375V86.788H76.394Z"/>
    </g>
  </g>
</svg>
