<svg xmlns="http://www.w3.org/2000/svg" xmlns:xlink="http://www.w3.org/1999/xlink" width="94" height="94" viewBox="0 0 94 94">
  <defs>
    <clipPath id="clip-path">
      <rect id="Button_SuperFresh" data-name="Button SuperFresh" width="94" height="94" transform="translate(630 1170)" fill="#fff" stroke="#707070" stroke-width="1"/>
    </clipPath>
  </defs>
  <g id="Mask_Group_1" data-name="Mask Group 1" transform="translate(-630 -1170)" clip-path="url(#clip-path)">
    <g id="superFresh" transform="translate(630.02 1170.001)">
      <path id="Path_6308" data-name="Path 6308" d="M54.626,9.288,58.94,7.159a2.671,2.671,0,0,1,3.616,3.506l-1.982,4.35a2.655,2.655,0,0,0,1.579,3.634L66.7,20.173A2.669,2.669,0,0,1,66.8,25.2l-4.5,1.689a2.658,2.658,0,0,0-1.45,3.689l2.129,4.3a2.671,2.671,0,0,1-3.506,3.616L55.1,36.509a2.655,2.655,0,0,0-3.634,1.579L49.946,42.64a2.669,2.669,0,0,1-5.029.092l-1.689-4.5a2.658,2.658,0,0,0-3.689-1.45l-4.3,2.129a2.671,2.671,0,0,1-3.616-3.506l1.982-4.369A2.655,2.655,0,0,0,32.031,27.4l-4.552-1.524a2.669,2.669,0,0,1-.092-5.029l4.5-1.689a2.658,2.658,0,0,0,1.45-3.689L31.168,11.2a2.671,2.671,0,0,1,3.506-3.616l4.369,1.982a2.655,2.655,0,0,0,3.634-1.579L44.2,3.433a2.669,2.669,0,0,1,5.029-.092l1.689,4.5A2.7,2.7,0,0,0,54.626,9.288Z" fill="#cb2229"/>
      <path id="Path_6309" data-name="Path 6309" d="M74.047,63.253a13.522,13.522,0,0,0,7.507,1.432,18.191,18.191,0,0,0,8.04-3.341l-.9-3.543-6.369-2.57,3.506-7.783L83.3,45.173l-7.122,2.368-3.543-8L68.522,41.3l-2.129,7.507,1.964,9.215Z" fill="#cb2229"/>
      <path id="Path_6310" data-name="Path 6310" d="M19.824,63.125a13.521,13.521,0,0,1-7.507,1.432,18.19,18.19,0,0,1-8.04-3.341l.9-3.543,6.369-2.57L8.04,47.321l2.533-2.276,7.14,2.4,3.543-8,4.112,1.762L27.5,48.716,25.533,57.93Z" fill="#cb2229"/>
      <circle id="Ellipse_4" data-name="Ellipse 4" cx="8.407" cy="8.407" r="8.407" transform="translate(38.675 14.648)" fill="#d8d519"/>
      <path id="Path_6311" data-name="Path 6311" d="M58,83.94l7.764,2.276,8.756-3.745,3.469-6.847-7.875-3.047-8.26,3.212Z" fill="#4ed46a"/>
      <path id="Path_6312" data-name="Path 6312" d="M36.876,83.94l-7.783,2.276-8.756-3.745-3.451-6.847,7.875-3.047,8.26,3.212Z" fill="#4ed46a"/>
      <path id="Path_6313" data-name="Path 6313" d="M63.933,64.74l-1.854-6.094L58,56.15l-2.882-.5s-1.248,3.91-.716,5.819c.551,1.909,5.268,5.654,5.268,5.654h3.157Z" fill="#4ed46a"/>
      <path id="Path_6314" data-name="Path 6314" d="M29.9,64.74l1.854-6.094,4.075-2.5,2.882-.5s1.248,3.91.716,5.819c-.551,1.909-5.268,5.654-5.268,5.654H31Z" fill="#4ed46a"/>
      <path id="Path_6315" data-name="Path 6315" d="M22.265,82.655a1.369,1.369,0,1,1-1.524,2.276,13.947,13.947,0,0,1-3.708-3.543,13.624,13.624,0,0,1-2.148-4.552,2.607,2.607,0,0,1-.092-1.615,2.8,2.8,0,0,1,1.3-1.3,13.524,13.524,0,0,1,6.094-2.239,14.572,14.572,0,0,1,6.792.844,14.878,14.878,0,0,1,4.277,2.46c-.147-.367-.294-.716-.459-1.083a44.837,44.837,0,0,0-8.59-12.188,15.985,15.985,0,0,1-9.435,4.148,18.14,18.14,0,0,1-8.242-1.01c-2.313-.973-3.818-2.5-3.928-4.369-.11-1.725.973-3.286,2.845-4.46a14.2,14.2,0,0,1,4.057-1.689A14.922,14.922,0,0,1,7.342,50.5c-.734-2.074-.624-3.965.514-5.268,1.138-1.285,3.01-1.634,5.158-1.156a13.854,13.854,0,0,1,4.075,1.689,14.5,14.5,0,0,1,1.175-4.24c.826-1.744,2.258-3.359,4.314-3.359,1.8,0,3.4,1.285,4.571,3.4a17.8,17.8,0,0,1,1.964,7.434h0v.11h0v.018a16.022,16.022,0,0,1-3.084,10.554c1.01,1.083,1.964,2.129,2.863,3.212A10.243,10.243,0,0,1,34.178,55.6a9.485,9.485,0,0,1,4.479-1.083,1.927,1.927,0,0,1,1.3.312,2.272,2.272,0,0,1,.789,1.285,9.462,9.462,0,0,1,.385,4.424,9.773,9.773,0,0,1-1.78,4.332A9.913,9.913,0,0,1,35.518,68.1a9.33,9.33,0,0,1-2.258.753,36.2,36.2,0,0,1,2.056,3.928c2.331,5.231,3.543,11.38,3.543,19.842a1.377,1.377,0,1,1-2.753,0,67.413,67.413,0,0,0-.33-6.938,13.459,13.459,0,0,1-3.047,1.248,14.248,14.248,0,0,1-5.6.385,1.369,1.369,0,1,1,.349-2.717,11.341,11.341,0,0,0,4.534-.312,10.728,10.728,0,0,0,3.212-1.505,10.776,10.776,0,0,0-2.276-4.314,11.863,11.863,0,0,0-4.919-3.377,12.107,12.107,0,0,0-5.525-.7,10.6,10.6,0,0,0-4.919,1.836,10.669,10.669,0,0,0,1.689,3.543A10.942,10.942,0,0,0,22.265,82.655Zm22.229-53.3A1.379,1.379,0,1,1,43.448,31.9a9.578,9.578,0,0,1-4.332-3.524,9.526,9.526,0,1,1,17.438-5.3A9.535,9.535,0,0,1,50.606,31.9a1.4,1.4,0,0,1-1.8-.753,1.385,1.385,0,0,1,.753-1.8,6.719,6.719,0,0,0,4.222-6.278,6.773,6.773,0,1,0-13.546,0,6.846,6.846,0,0,0,1.138,3.781,7.047,7.047,0,0,0,3.12,2.5ZM50.808,2.294a16.859,16.859,0,0,1,2.313,5.121c.165.551,1.065.11,1.377-.073A13.781,13.781,0,0,1,59.325,5.69a4.757,4.757,0,0,1,4,1.046,4.851,4.851,0,0,1,1.1,4.24,16.9,16.9,0,0,1-1.982,5.268c-.5.881.239.789.551.881a15.343,15.343,0,0,1,4.956,2.294,4.808,4.808,0,0,1,2.166,3.634,4.893,4.893,0,0,1-2.239,3.763,16.489,16.489,0,0,1-5.1,2.331c-.954.257-.422.679-.22,1.01a15.025,15.025,0,0,1,1.854,5.121,4.847,4.847,0,0,1-1.028,4.112,4.787,4.787,0,0,1-4.24,1.083,16.548,16.548,0,0,1-5.268-1.982c-.826-.459-.716-.037-.863.569A15.941,15.941,0,0,1,50.7,44,5.758,5.758,0,0,1,48.4,45.889V92.622a1.377,1.377,0,0,1-2.753,0V45.889a5.667,5.667,0,0,1-2.35-1.946,16.479,16.479,0,0,1-2.313-5.121c-.239-.844-.973-.22-1.468.037a14.282,14.282,0,0,1-4.864,1.615,4.726,4.726,0,0,1-3.91-1.046,4.869,4.869,0,0,1-1.1-4.167,15.019,15.019,0,0,1,1.872-5.121c.624-1.1.477-.826-.679-1.156a14.727,14.727,0,0,1-4.772-2.276,4.749,4.749,0,0,1-2.111-3.579,4.843,4.843,0,0,1,2.239-3.763,15.811,15.811,0,0,1,5.1-2.313c.881-.239.257-.918-.037-1.468a14.282,14.282,0,0,1-1.615-4.864,4.726,4.726,0,0,1,1.046-3.91,4.856,4.856,0,0,1,4.24-1.083,16.438,16.438,0,0,1,5.25,1.964c.385.22.734-.11.863-.569A15.676,15.676,0,0,1,43.356,2.2,4.8,4.8,0,0,1,46.99,0a4.9,4.9,0,0,1,3.818,2.294ZM48.587,3.91a2.455,2.455,0,0,0-1.542-1.156,2.324,2.324,0,0,0-1.487,1.1A12.621,12.621,0,0,0,43.7,7.838c-.385,1.377-.679,2.239-1.505,2.735-.9.532-1.854.349-3.359-.514a13.252,13.252,0,0,0-4.277-1.615,2.449,2.449,0,0,0-1.891.275,2.33,2.33,0,0,0-.294,1.707,11.467,11.467,0,0,0,1.3,3.855c.165.294.22.4.275.514a7.4,7.4,0,0,1,.753,1.615c.441,1.615-.092,2.57-2.68,3.286a13.538,13.538,0,0,0-4.185,1.872,2.456,2.456,0,0,0-1.138,1.524,2.364,2.364,0,0,0,1.046,1.468,12.193,12.193,0,0,0,3.836,1.8c1.505.422,2.423.753,2.919,1.634.532.936.294,1.927-.606,3.506a12.836,12.836,0,0,0-1.524,4.13,2.276,2.276,0,0,0,.294,1.817,2.33,2.33,0,0,0,1.707.294,11.887,11.887,0,0,0,3.855-1.3c.128-.073.294-.165.459-.257a7.816,7.816,0,0,1,1.615-.753c1.634-.459,2.606.055,3.341,2.643a13.842,13.842,0,0,0,1.891,4.222c.33.441.936,1.1,1.524,1.1.569,0,1.175-.679,1.487-1.083a12.805,12.805,0,0,0,1.836-4c.385-1.377.716-2.239,1.542-2.717.9-.514,1.872-.33,3.341.5a13.987,13.987,0,0,0,4.3,1.652,2.418,2.418,0,0,0,1.872-.275,2.388,2.388,0,0,0,.275-1.836,12.674,12.674,0,0,0-1.524-4.13c-.716-1.267-1.1-2.111-.826-3.029.275-1.01,1.1-1.542,2.735-1.982A13.38,13.38,0,0,0,66.282,24.6a2.456,2.456,0,0,0,1.138-1.524,2.324,2.324,0,0,0-1.1-1.487,12.524,12.524,0,0,0-4.02-1.836c-1.413-.385-2.276-.716-2.753-1.542-.514-.9-.312-1.854.532-3.322a13.987,13.987,0,0,0,1.652-4.3,2.418,2.418,0,0,0-.275-1.872,2.32,2.32,0,0,0-1.78-.294,11.549,11.549,0,0,0-3.983,1.413,9.1,9.1,0,0,1-1.946.954c-1.56.441-2.515-.055-3.194-2.478A16.555,16.555,0,0,0,48.587,3.91ZM70.963,59.032a12.945,12.945,0,0,0,4.589,3.139,1.367,1.367,0,0,1,.771,1.78,1.382,1.382,0,0,1-1.781.771,15.624,15.624,0,0,1-4.791-3.029,44.837,44.837,0,0,0-8.59,12.188c-.165.349-.312.716-.459,1.083a14.878,14.878,0,0,1,4.277-2.46,14.572,14.572,0,0,1,6.792-.844,13.519,13.519,0,0,1,6.259,2.35A2.574,2.574,0,0,1,79.168,75.2a2.509,2.509,0,0,1-.092,1.634,13.461,13.461,0,0,1-3.212,5.855,14.941,14.941,0,0,1-13,4.589,13.354,13.354,0,0,1-4.7-1.615,67.412,67.412,0,0,0-.33,6.938,1.377,1.377,0,0,1-2.753,0c0-8.444,1.211-14.611,3.543-19.842a34.575,34.575,0,0,1,2.056-3.928,9.074,9.074,0,0,1-2.258-.753A10.073,10.073,0,0,1,54.59,64.85a10.314,10.314,0,0,1-1.78-4.332,9.152,9.152,0,0,1,.367-4.35,2.507,2.507,0,0,1,.808-1.358,2.326,2.326,0,0,1,1.3-.312,9.071,9.071,0,0,1,4.479,1.083,10.048,10.048,0,0,1,3.524,3.084,10.261,10.261,0,0,1,1.762,4.2c.9-1.065,1.854-2.129,2.863-3.212-.275-.367-.532-.753-.771-1.138a16.308,16.308,0,0,1-2.258-10.206,17.356,17.356,0,0,1,1.927-6.755c1.028-1.817,2.717-3.616,4.974-3.359,1.652.184,2.992,1.413,3.91,3.341a14.833,14.833,0,0,1,1.175,4.24,14.369,14.369,0,0,1,4.075-1.689c2.148-.477,4.02-.128,5.158,1.156s1.248,3.176.514,5.268a14.626,14.626,0,0,1-2.166,3.836,13.981,13.981,0,0,1,4.057,1.689c1.872,1.193,2.937,2.753,2.845,4.46-.11,1.725-1.4,3.157-3.414,4.13a16.388,16.388,0,0,1-6.792,1.322,1.377,1.377,0,0,1,0-2.753,13.763,13.763,0,0,0,5.635-1.065c1.1-.514,1.8-1.156,1.836-1.8s-.551-1.34-1.56-1.982a13.346,13.346,0,0,0-5.36-1.744,1.383,1.383,0,0,1-1.193-1.542,1.4,1.4,0,0,1,.385-.789h0A13.407,13.407,0,0,0,84.032,49.6c.4-1.138.441-2.056.018-2.533s-1.34-.551-2.515-.294a13.424,13.424,0,0,0-5.029,2.551,1.376,1.376,0,0,1-1.927-.257,1.519,1.519,0,0,1-.294-.918A13.185,13.185,0,0,0,73.2,42.7c-.5-1.046-1.1-1.725-1.725-1.8a.233.233,0,0,1-.11-.018c-.716,0-1.487.753-2.166,1.982a15.463,15.463,0,0,0-1.634,6.278,13.421,13.421,0,0,0,1.891,7.911,14.807,14.807,0,0,0,1.505,1.982Zm-47.8-.184c.018-.037.055-.055.092-.092a13.181,13.181,0,0,0,3.157-9.508c0-.055-.018-.11-.018-.165a15.4,15.4,0,0,0-1.615-6.2c-.679-1.23-1.45-1.982-2.166-1.982-.037,0-.073.018-.11.018-.606.073-1.211.734-1.725,1.8A13.489,13.489,0,0,0,19.7,48.092a1.533,1.533,0,0,1-.294.991,1.374,1.374,0,0,1-1.927.257,13.424,13.424,0,0,0-5.029-2.551c-1.175-.257-2.093-.184-2.515.294s-.385,1.4.018,2.533a13.307,13.307,0,0,0,3.065,4.607,1.379,1.379,0,0,1-.734,2.4,13.535,13.535,0,0,0-5.36,1.744c-1.01.642-1.615,1.34-1.56,1.982.037.716.881,1.413,2.221,1.964a15.8,15.8,0,0,0,6.516.863,13.369,13.369,0,0,0,9.068-4.332Zm36.473,6.773a6.71,6.71,0,0,0,2.551.642,6.9,6.9,0,0,0-1.12-6.021A7.032,7.032,0,0,0,58.518,58a6.524,6.524,0,0,0-2.772-.753,6.807,6.807,0,0,0-.184,2.863,7.245,7.245,0,0,0,1.3,3.157,7.351,7.351,0,0,0,2.772,2.35Zm-27.845.642a6.71,6.71,0,0,0,2.551-.642,7.473,7.473,0,0,0,4.075-5.507,6.5,6.5,0,0,0-.184-2.863A6.6,6.6,0,0,0,35.463,58a7.616,7.616,0,0,0-2.57,2.239,7.16,7.16,0,0,0-1.322,3.4,6.958,6.958,0,0,0,.22,2.625Zm26.964,16.52a10.788,10.788,0,0,0,4.534,1.78,12.179,12.179,0,0,0,10.573-3.726,11.028,11.028,0,0,0,2.551-4.607A10.881,10.881,0,0,0,71.5,74.4a12.077,12.077,0,0,0-5.525.7,11.863,11.863,0,0,0-4.919,3.377,10.478,10.478,0,0,0-2.294,4.314Z"/>
    </g>
  </g>
</svg>
