<svg xmlns="http://www.w3.org/2000/svg" xmlns:xlink="http://www.w3.org/1999/xlink" width="94" height="94" viewBox="0 0 94 94">
  <defs>
    <clipPath id="clip-path">
      <rect id="Button_Tropical" data-name="Button Tropical" width="94" height="94" transform="translate(1062 1170)" fill="#fff" stroke="#707070" stroke-width="1"/>
    </clipPath>
  </defs>
  <g id="Mask_Group_4" data-name="Mask Group 4" transform="translate(-1062 -1170)" clip-path="url(#clip-path)">
    <g id="tropical" transform="translate(1062.009 1170.018)">
      <path id="Path_6352" data-name="Path 6352" d="M58.647,44.348,89.7,56.536,86.272,46.459s-4.3-8.976-11.307-9.031A149.209,149.209,0,0,0,57.674,38.8Z" fill="#007043"/>
      <path id="Path_6353" data-name="Path 6353" d="M34.435,44.348,3.377,56.536,6.81,46.477s4.3-8.976,11.307-9.031a149.211,149.211,0,0,1,17.291,1.377Z" fill="#007043"/>
      <path id="Path_6354" data-name="Path 6354" d="M54.737,37.446S86.749,26.414,89.7,26.726,85.63,21.88,85.63,21.88s-9.674-5.268-17.291-1.3S52.13,34.123,52.13,34.123Z" fill="#007043"/>
      <path id="Path_6355" data-name="Path 6355" d="M39.74,37.446S7.728,26.414,4.773,26.726,8.847,21.88,8.847,21.88s9.674-5.268,17.291-1.3S42.347,34.123,42.347,34.123Z" fill="#007043"/>
      <path id="Path_6356" data-name="Path 6356" d="M50.937,32.269,64.851,12.207,73.68,1.652S61.8-1.23,54.076,7.03s-6.259,24.248-6.259,24.248Z" fill="#007043"/>
      <path id="Path_6357" data-name="Path 6357" d="M42.384,32.269l-13.9-20.063L19.641,1.652S31.517-1.23,39.245,7.03,45.5,31.278,45.5,31.278Z" fill="#007043"/>
      <circle id="Ellipse_5" data-name="Ellipse 5" cx="5.378" cy="5.378" r="5.378" transform="translate(41.613 32.068)" fill="#3d2b06"/>
      <circle id="Ellipse_6" data-name="Ellipse 6" cx="5.378" cy="5.378" r="5.378" transform="translate(36.106 37.574)" fill="#3d2b06"/>
      <circle id="Ellipse_7" data-name="Ellipse 7" cx="5.378" cy="5.378" r="5.378" transform="translate(47.119 37.574)" fill="#3d2b06"/>
      <path id="Path_6358" data-name="Path 6358" d="M50.974,76.874H43.118a1.52,1.52,0,0,1-1.524-1.524V51.011a4.426,4.426,0,0,1,4.424-4.424h2.056A4.426,4.426,0,0,1,52.5,51.011v24.34A1.52,1.52,0,0,1,50.974,76.874Z" fill="#645638"/>
      <path id="Path_6359" data-name="Path 6359" d="M27.589,86.988H66.5S63.07,77.443,46.514,77.37C29.957,77.278,27.589,86.988,27.589,86.988Z" fill="#ca9c3b"/>
      <rect id="Rectangle_789" data-name="Rectangle 789" width="88.475" height="5.378" transform="translate(2.753 86.988)" fill="#8d6207"/>
      <path id="Path_6360" data-name="Path 6360" d="M89.852,85.722H68.908a33.52,33.52,0,0,0-15.033-8.994V49.689a6.929,6.929,0,0,0,4.9-3.928c18.594,5.507,30.287,12.1,30.4,12.17a2.04,2.04,0,0,0,.294.128,1.546,1.546,0,0,0,.5.073,1.725,1.725,0,0,0,1.34-.624,1.762,1.762,0,0,0,.2-1.927c-.385-.771-.789-1.854-1.267-3.1a51.809,51.809,0,0,0-2.7-6.3,1.371,1.371,0,0,0-2.423,1.285,50.159,50.159,0,0,1,2.57,5.984c.092.257.184.514.275.753A173.889,173.889,0,0,0,59.381,43.1v-.11a6.957,6.957,0,0,0-.844-3.3c6.81-1.065,14.244-1.1,17.934-.055a12.045,12.045,0,0,1,5.488,3.359,1.391,1.391,0,0,0,.991.422,1.347,1.347,0,0,0,.955-.385,1.369,1.369,0,0,0,.037-1.946,15.094,15.094,0,0,0-6.718-4.093c-3.8-1.083-10.793-1.156-17.585-.239,14.483-5.433,26.818-8,31.719-8.646a1.555,1.555,0,0,0,.312-.073,1.682,1.682,0,0,0,1.1-1.358,1.871,1.871,0,0,0-.753-1.725c-.22-.165-.459-.349-.734-.551-3.708-2.845-12.409-9.508-22.1-5.819C65.475,19.989,59.95,24.1,55.122,28.837A180.252,180.252,0,0,1,66.136,13.124a1.373,1.373,0,1,0-2.166-1.689A183.134,183.134,0,0,0,50.313,31.48a6.438,6.438,0,0,0-1.524-.606c.5-7.691,2.68-16.7,5.048-20.54,4.222-6.828,12.5-7.434,17.4-7.489-.881.955-2.074,2.294-3.506,4a1.381,1.381,0,1,0,2.111,1.781C72.891,4.9,74.873,2.937,74.892,2.9a1.386,1.386,0,0,0,.2-.257A1.7,1.7,0,0,0,75.13.9a1.828,1.828,0,0,0-1.615-.918h-.936c-4.681,0-15.639,0-21.091,8.811-1.891,3.065-3.653,8.866-4.662,14.96-1.01-6.076-2.753-11.876-4.662-14.96C36.73,0,25.772,0,21.091,0h-.918a1.85,1.85,0,0,0-1.652.918,1.7,1.7,0,0,0,.037,1.744,1.386,1.386,0,0,0,.2.257c.11.11,9.508,9.527,19.751,25.863C33.7,24.046,28.194,19.971,24.468,18.539c-9.674-3.708-18.374,2.955-22.1,5.819-.275.2-.514.4-.734.551a1.871,1.871,0,0,0-.753,1.725,1.708,1.708,0,0,0,1.1,1.358.965.965,0,0,0,.312.073c.018,0,2.368.312,6.369,1.156a1.379,1.379,0,1,0,.569-2.7c-1.67-.349-3.065-.624-4.13-.808,3.928-2.937,10.867-7.489,18.374-4.626C27.919,22.78,35.445,28.947,40.548,35a6.357,6.357,0,0,0-.33,1.193A187.369,187.369,0,0,0,15.07,27.9a1.373,1.373,0,1,0-.679,2.662,181.725,181.725,0,0,1,19.622,6.149c-6.828-.918-13.8-.844-17.6.257C6.461,39.85,3.524,50.4,2.276,54.921c-.092.33-.165.624-.257.881a1.861,1.861,0,0,0,.441,1.836,1.667,1.667,0,0,0,1.193.5,1.546,1.546,0,0,0,.5-.073,1.421,1.421,0,0,0,.294-.128c.11-.073,11.913-6.718,30.691-12.243a6.916,6.916,0,0,0,4.938,4.02v27.02a33.977,33.977,0,0,0-15.033,8.994H4.13a4.13,4.13,0,0,0,0,8.26H89.852a4.13,4.13,0,0,0,0-8.26ZM46.991,47.083a6.956,6.956,0,0,0,4.13,2.625v4.369h-8.26V49.707A6.956,6.956,0,0,0,46.991,47.083Zm4.13,14.409h-8.26V56.811h8.26Zm-8.26,2.753h8.26v4.681h-8.26ZM52.5,47.083a4.13,4.13,0,1,1,4.13-4.13A4.136,4.136,0,0,1,52.5,47.083Zm-9.453-10.83a4.12,4.12,0,0,1,7.893,0,6.84,6.84,0,0,0-3.946,2.588A6.84,6.84,0,0,0,43.044,36.253Zm27.13-15.162c7.508-2.864,14.464,1.689,18.374,4.644A176.859,176.859,0,0,0,53.727,36.069a6.526,6.526,0,0,0-.422-1.322C58.408,28.782,65.842,22.743,70.174,21.091ZM39.832,10.261c2.386,3.855,4.589,12.922,5.066,20.632a6.9,6.9,0,0,0-1.45.661,178.267,178.267,0,0,0-21.036-28.8C27.313,2.808,35.61,3.414,39.832,10.261ZM5.3,54.37c1.358-4.717,4.167-12.537,11.876-14.758,3.745-1.083,11.307-1.01,18.227.092a6.939,6.939,0,0,0-.826,3.249v.018A174.552,174.552,0,0,0,5.3,54.37ZM37.354,42.953a4.13,4.13,0,1,1,4.13,4.13A4.136,4.136,0,0,1,37.354,42.953Zm5.507,28.727h8.26v4.46a27.273,27.273,0,0,0-4.13-.33,25.1,25.1,0,0,0-4.13.33Zm4.13,6.883c8.15,0,14.593,4.369,17.879,7.159H29.112C32.38,82.931,38.8,78.563,46.991,78.563ZM89.852,91.228H4.13a1.377,1.377,0,1,1,0-2.753H89.852a1.377,1.377,0,0,1,0,2.753Z"/>
    </g>
  </g>
</svg>
