<svg id="Key" xmlns="http://www.w3.org/2000/svg" width="486.54" height="267.22" viewBox="0 0 486.54 267.22">
  <defs>
    <style>
      .cls-1, .cls-2, .cls-3 {
        fill-rule: evenodd;
      }

      .cls-2 {
        fill: #231f20;
      }

      .cls-3 {
        fill: #fff;
      }
    </style>
  </defs>
  <polygon class="cls-1" points="451.79 136.71 451.82 131.46 302.61 131.25 302.81 136.5 451.79 136.71 451.79 136.71"/>
  <polygon class="cls-1" points="452.28 246.62 452.43 241.21 303.12 241.16 303.22 246.36 452.28 246.62 452.28 246.62"/>
  <path class="cls-2" d="M105.18,210.83a18.15,18.15,0,0,0,16.18,9.91c12.79-.06,16.5-12.58,16.17-21.94C135.1,212.24,124.2,215.07,119,215a24.55,24.55,0,0,1-13.84-4.13Z" transform="translate(-6.73 -116.39)"/>
  <path class="cls-1" d="M483.25,223.3l0-7.61-266.62-.33.24,20.08c1.28-2.85,3.39-12.43,26-12.36l240.36.22Z" transform="translate(-6.73 -116.39)"/>
  <path class="cls-1" d="M70.52,294.47c10.41,13.57,27.55,16,33.34,15.86,23.68.12,34.4-16.71,36.14-35.49-4.25,21.86-23.65,28.39-38.34,28.41-10.16-.12-17.89-.87-31.14-8.78Z" transform="translate(-6.73 -116.39)"/>
  <path class="cls-1" d="M24.27,193.08c7.48-36,38.52-62.62,73-62.57,21.31,0,42.92,10.38,50.44,25.85-11.11-11.53-31.72-18.65-46.35-18.73-44.48-.06-69.92,37.51-77.12,55.45Z" transform="translate(-6.73 -116.39)"/>
  <path class="cls-3" d="M92,118.44C50.11,118.37,8.5,162.55,8.79,227c.36,64.22,42.42,108.54,84.14,108.49,53,.17,74.45-34.82,81.24-70.14,9.52,1,15.28-4.83,16.69-13.12,1.54,2.42,4,7.85,12.47,7.9a13.55,13.55,0,0,0,13.22-12.49l82.3,0,0,21.42,39.4.12,0,16.06-20.16,0,.16,48.05,20.33.13v15.13l-39.35,0,.18,32.87,170.39.23-.21-32.84-39.4-.11-.08-15.17,20.2-.05-.24-48.14-20.16,0-.11-16.1,39.36,0,0-21.29,22,0-.12-40.63-274.75-.4A13.87,13.87,0,0,0,203,194.2c-8.56-.11-10.9,5.41-12.46,7.79-1.43-8.2-7.17-14.14-16.69-13.12C166.62,153.53,144.91,118.42,92,118.44Zm308,176,0,8.29,29.89,0,.08,13-30-.09.1,8.36H368.61l-.11-8.36-29.88,0-.18-12.86,30-.06-.06-8.43ZM131.65,187c-.07,8.26-4.79,14.26-13.32,14.27-9.7-.1-15-6.91-15.31-14.81-4.3,1.06-15,7.8-15,22.39.12,11.52,4,15.29,6.36,18.16-2.24,2.78-6.3,6.57-6.17,18.29.12,14.52,10.89,21.28,15.14,22.3.21-7.95,5.48-14.71,15.15-14.76,8.49,0,13.49,6.13,13.53,14.22,0,9.61-7.69,24.38-31,24.27C77.1,291.34,46.29,275,46,227s30.55-64.31,54.55-64.36C123.72,162.78,131.56,177.51,131.65,187Z" transform="translate(-6.73 -116.39)"/>
  <path id="Key_Outline" data-name="Key Outline" d="M39.47,140C54.7,124.75,73.36,116.35,92,116.39c58.86,0,77.57,43.23,83.5,70.31a16.11,16.11,0,0,1,15.82,10.46c2.06-2.52,5.47-5.1,11.68-5a15.94,15.94,0,0,1,15.08,12.59l275.07.4.13,44.75-22,0,0,21.29-39.35,0,.08,12,20.16,0,.27,52.24-20.2.05.06,11.06,39.4.12.23,36.95-174.5-.23-.21-37h39.36v-11l-20.32-.12-.17-52.16,20.16,0,0-11.95L296.82,271l0-21.43-78.48.05a15.48,15.48,0,0,1-15,12.49c-6.09,0-9.56-2.64-11.66-5.11-2.64,6.74-8.37,10.58-15.82,10.43-5.61,27.06-23.81,70.22-82.9,70C51.78,337.55,7.12,295.3,6.73,227c-.11-23.69,5.57-46.15,16-64.71A102.61,102.61,0,0,1,39.47,140ZM172.15,264.91l.35-1.86,1.88.2c7.7.81,13.1-3.44,14.45-11.41l.9-5.27,3.32,5.26c1.48,2.45,3.71,6.15,10.28,6.2a11.47,11.47,0,0,0,11.18-10.65l.19-1.85,86.2,0,0,21.44,39.4.1.05,20.18-20.16,0,.15,43.95,20.33.12v19.24l-39.34,0,.16,28.76,166.27.22-.18-28.73-39.4-.11-.11-19.27,20.21-.05-.23-44-20.15,0-.14-20.21h39.37V245.75h22l-.1-36.52-274.53-.4L214.3,207A11.88,11.88,0,0,0,203,196.25c-6.47-.08-8.59,3.4-10.14,5.95l-3.43,5.24-.89-5.1c-1.39-8-6.79-12.25-14.44-11.43l-1.86.2-.38-1.83c-6.42-31.39-25.48-68.81-79.84-68.78-17.54,0-35.15,7.94-49.61,22.43-20.19,20.25-31.69,50.87-31.53,84,.35,63.73,42.73,106.49,82.09,106.45,36.2.11,56.58-16.28,67.95-36.47A106.43,106.43,0,0,0,172.15,264.91ZM61.61,176.42a55.28,55.28,0,0,1,38.92-15.88h0c24.16.19,33.06,15.9,33.15,26.44-.08,9.89-6.11,16.3-15.39,16.3-10.26-.1-15.73-6.7-17-14-4.14,2.12-11.2,7.92-11.14,19.48.1,9.91,3.12,13.54,5.33,16.19l1.61,2-1.65,2c-2.2,2.63-5.22,6.24-5.11,16.25.1,11.39,7.21,17.24,11.32,19.39,1.26-7.27,6.68-13.84,16.93-13.9,9.27.06,15.53,6.6,15.57,16.29,0,9.16-7,26.44-33,26.32-28.25,0-56.89-20.45-57.19-66.39-.06-15.29,2.89-28.27,8.81-38.76A54.78,54.78,0,0,1,61.61,176.42ZM130,267c0-7.35-4.54-12.13-11.46-12.18-9.42.05-13,6.9-13.11,12.76l-.07,2.54-2.46-.6c-5.4-1.29-16.59-8.93-16.72-24.26-.12-10.76,3.13-15.36,5.57-18.32-2.43-3-5.64-7.56-5.76-18.15-.07-15.34,11.1-23.06,16.53-24.4l2.45-.6.09,2.53c.21,5.86,3.81,12.73,13.26,12.82,7,0,11.2-4.58,11.26-12.19s-6.22-22.14-29.07-22.33a51.09,51.09,0,0,0-36,14.68C53.49,190.42,48,206.44,48,226.94c.3,46.06,28.77,62.34,53.08,62.3,14.81.06,22.56-6.08,26.19-12.51A20.58,20.58,0,0,0,130,267ZM366.35,300.7l-.06-8.44,35.76.15.05,8.29,29.88,0,.11,17.14-30-.08.1,8.35h-35.6l-.11-8.36-29.88,0-.23-17Zm4.18,13,.11,8.36H398l-.1-8.37,30,.09-.06-8.92-29.89,0,0-8.3-27.53-.1.06,8.41-30,.07.12,8.75Z" transform="translate(-6.73 -116.39)"/>
  <path class="cls-1" d="M193.75,227.12l.1,12.59c0,8.19,6.58,10,8.73,10.78-1.59-4.16-2-15.5-2.07-23.4s.27-19.2,1.93-23.35c-2.38.68-8.88,2.65-8.79,10.64l.1,12.74Z" transform="translate(-6.73 -116.39)"/>
  <path class="cls-1" d="M182.12,227.09l.06,16.82c0,8.32-6.45,10.06-8.67,10.83,1.65-4.15,1.86-19.81,1.76-27.61.1-7.91-.39-23.56-2-27.69,2.3.71,8.72,2.67,8.75,10.75l.11,16.9Z" transform="translate(-6.73 -116.39)"/>
  <polygon class="cls-1" points="451.79 136.71 451.82 131.46 302.61 131.25 302.81 136.5 451.79 136.71 451.79 136.71"/>
  <polygon class="cls-1" points="452.28 246.62 452.43 241.21 303.12 241.16 303.22 246.36 452.28 246.62 452.28 246.62"/>
  <path class="cls-2" d="M105.18,210.83a18.15,18.15,0,0,0,16.18,9.91c12.79-.06,16.5-12.58,16.17-21.94C135.1,212.24,124.2,215.07,119,215a24.55,24.55,0,0,1-13.84-4.13Z" transform="translate(-6.73 -116.39)"/>
  <path class="cls-1" d="M483.25,223.3l0-7.61-266.62-.33.24,20.08c1.28-2.85,3.39-12.43,26-12.36l240.36.22Z" transform="translate(-6.73 -116.39)"/>
  <path class="cls-1" d="M70.52,294.47c10.41,13.57,27.55,16,33.34,15.86,23.68.12,34.4-16.71,36.14-35.49-4.25,21.86-23.65,28.39-38.34,28.41-10.16-.12-17.89-.87-31.14-8.78Z" transform="translate(-6.73 -116.39)"/>
  <path class="cls-1" d="M24.27,193.08c7.48-36,38.52-62.62,73-62.57,21.31,0,42.92,10.38,50.44,25.85-11.11-11.53-31.72-18.65-46.35-18.73-44.48-.06-69.92,37.51-77.12,55.45Z" transform="translate(-6.73 -116.39)"/>
</svg>
