<?xml version="1.0" encoding="utf-8"?>
<!-- Generator: Adobe Illustrator 23.0.1, SVG Export Plug-In . SVG Version: 6.00 Build 0)  -->
<svg version="1.1" xmlns="http://www.w3.org/2000/svg" xmlns:xlink="http://www.w3.org/1999/xlink" x="0px" y="0px"
	 viewBox="0 0 300 300" style="enable-background:new 0 0 300 300;" xml:space="preserve">
<style type="text/css">
	.st0{display:none;}
	.st1{display:inline;}
	.st2{fill:#00ABE3;}
	.st3{fill:#FFFFFF;}
	.st4{fill:#235B9E;}
	.st5{fill:#0074B5;}
	.st6{fill:#FF4D3F;}
	.st7{fill:#595959;}
	.st8{fill:#A24BDB;}
	.st9{fill:#2D80A6;}
</style>
<g id="Twitter" class="st0">
	<g class="st1">
		<path class="st2" d="M294,223.15c0,39.68-32.17,71.85-71.85,71.85H78.45c-39.7,0-71.85-32.17-71.85-71.85V79.45
			C6.6,39.76,38.76,7.6,78.45,7.6h143.7C261.83,7.6,294,39.76,294,79.45V223.15z"/>
		<g>
			<path class="st3" d="M235.16,82.1c-7.12,4.16-15.02,7.18-23.41,8.81c-6.71-7.05-16.29-11.46-26.9-11.46
				C164.5,79.45,148,95.7,148,115.73c0,2.84,0.33,5.61,0.95,8.27c-30.63-1.51-57.78-15.96-75.96-37.9
				C69.82,91.45,68,97.68,68,104.34c0,12.58,6.52,23.68,16.4,30.19c-6.03-0.19-11.72-1.82-16.69-4.54c0,0.15,0,0.31,0,0.46
				c0,17.57,12.71,32.24,29.57,35.58c-3.1,0.83-6.35,1.27-9.72,1.27c-2.37,0-4.68-0.23-6.93-0.65c4.7,14.41,18.3,24.9,34.43,25.19
				c-12.62,9.73-28.5,15.53-45.78,15.53c-2.98,0-5.91-0.17-8.79-0.51c16.32,10.29,35.7,16.29,56.5,16.29
				c67.79,0,104.85-55.27,104.85-103.21c0-1.57-0.02-3.14-0.09-4.7c7.19-5.11,13.45-11.5,18.38-18.78
				c-6.61,2.89-13.71,4.83-21.17,5.71C226.57,97.69,232.4,90.58,235.16,82.1z"/>
		</g>
	</g>
</g>
<g id="Facebook" class="st0">
	<g class="st1">
		<path class="st4" d="M293.6,223.25c0,39.62-32.13,71.75-71.76,71.75H78.34C38.72,295,6.6,262.87,6.6,223.25V79.75
			C6.6,40.11,38.72,8,78.34,8h143.5c39.64,0,71.76,32.11,71.76,71.75V223.25z"/>
		<g>
			<path class="st3" d="M126.19,241.19h35.88c0,0,0-49.52,0-89.69h26.62l3.27-35.88h-28.51v-14.35c0-6.99,4.66-8.62,7.93-8.62
				c3.27,0,20.12,0,20.12,0V61.92l-27.71-0.11c-30.76,0-37.75,22.92-37.75,37.6v16.21h-17.79v35.88h17.94
				C126.19,192.15,126.19,241.19,126.19,241.19z"/>
		</g>
	</g>
</g>
<g id="LinkedIn" class="st0">
	<g class="st1">
		<path class="st5" d="M294,222c0,39.77-32.24,72-72,72H78c-39.77,0-72-32.23-72-72V78C6,38.24,38.23,6,78,6h144
			c39.76,0,72,32.24,72,72V222z"/>
		<g>
			<rect x="60" y="120" class="st3" width="42" height="120"/>
			<path class="st3" d="M81,102c11.59,0,21-9.41,21-21s-9.41-21-21-21c-11.61,0-21,9.4-21,21S69.39,102,81,102z"/>
			<path class="st3" d="M240,174.05c0-32.38-6.98-54.05-44.73-54.05c-18.14,0-30.32,6.74-35.3,16.2h-0.52V120H126v120h34.97v-59.48
				c0-15.68,2.97-30.87,22.37-30.87c19.11,0,20.66,17.94,20.66,31.88V240h36V174.05z"/>
		</g>
	</g>
</g>
<g id="YouTube" class="st0">
	<g class="st1">
		<path class="st6" d="M294,222c0,39.76-32.24,72-72.01,72h-144C38.23,294,6,261.76,6,222V78C6,38.23,38.23,6,77.99,6h144
			C261.76,6,294,38.23,294,78V222z"/>
		<g>
			<path class="st3" d="M198.14,181.14c-1.44,0-2.48,0.43-3.11,1.29c-0.64,0.82-0.95,2.22-0.95,4.17v4.71h8.05v-4.71
				c0-1.95-0.33-3.35-0.96-4.17C200.57,181.56,199.54,181.14,198.14,181.14z"/>
			<g>
				<path class="st3" d="M166.75,180.98c-0.65,0-1.3,0.14-1.93,0.45c-0.63,0.3-1.25,0.78-1.88,1.43v29.02
					c0.74,0.75,1.45,1.32,2.16,1.66c0.7,0.32,1.43,0.5,2.2,0.5c1.11,0,1.93-0.33,2.46-0.99c0.52-0.66,0.79-1.72,0.79-3.21v-24.05
					c0-1.58-0.32-2.77-0.95-3.58C168.93,181.39,167.98,180.98,166.75,180.98z"/>
				<g>
					<path class="st3" d="M207.12,144H92.88C74.72,144,60,160.8,60,179.37v27.02C60,224.95,74.72,240,92.88,240h114.23
						c18.16,0,32.88-15.05,32.88-33.62v-27.02C240,160.8,225.28,144,207.12,144z M116.88,166.77h-10.62v53.95H96v-53.95H85.39v-9.18
						h31.49V166.77z M146.88,220.72h-9.11v-5.1c-1.69,1.89-3.42,3.33-5.25,4.3c-1.82,1.01-3.57,1.49-5.3,1.49
						c-2.11,0-3.68-0.69-4.75-2.08c-1.05-1.39-1.61-3.45-1.61-6.24v-38.94h9.11v35.73c0,1.1,0.2,1.89,0.56,2.38
						c0.4,0.51,1.02,0.74,1.88,0.74c0.66,0,1.51-0.32,2.54-0.98c1.02-0.66,1.97-1.49,2.81-2.5v-35.38h9.11V220.72z M179.93,211.11
						c0,3.29-0.71,5.82-2.14,7.58c-1.42,1.76-3.49,2.63-6.19,2.63c-1.79,0-3.38-0.33-4.77-1.01c-1.38-0.67-2.7-1.71-3.89-3.15v3.56
						h-9.2V157.6h9.2v20.33c1.24-1.41,2.54-2.5,3.9-3.23c1.39-0.75,2.79-1.11,4.21-1.11c2.88,0,5.09,0.98,6.6,2.97
						c1.52,1.98,2.28,4.89,2.28,8.7V211.11z M211.5,198.56h-17.41v8.78c0,2.45,0.29,4.15,0.89,5.1c0.6,0.95,1.63,1.41,3.09,1.41
						c1.51,0,2.55-0.4,3.16-1.2c0.59-0.81,0.9-2.58,0.9-5.31v-2.12h9.36v2.39c0,4.77-1.13,8.37-3.43,10.8
						c-2.26,2.4-5.67,3.6-10.21,3.6c-4.09,0-7.31-1.28-9.64-3.84c-2.33-2.54-3.52-6.07-3.52-10.56v-20.92
						c0-4.03,1.29-7.34,3.88-9.88c2.57-2.54,5.87-3.81,9.96-3.81c4.17,0,7.37,1.18,9.61,3.53c2.24,2.36,3.35,5.74,3.35,10.15V198.56
						z"/>
					<polygon class="st3" points="94.1,60 107.84,102 107.84,129.55 119.38,129.55 119.38,100.7 132.82,60 121.08,60 113.94,87.81 
						113.22,87.81 105.72,60 					"/>
					<path class="st3" d="M137.78,80.48c-2.74,2.35-4.13,5.51-4.13,9.5v26.59c0,4.36,1.35,7.82,4.02,10.41
						c2.71,2.58,6.29,3.88,10.78,3.88c4.65,0,8.31-1.25,10.98-3.75c2.64-2.51,3.97-5.94,3.97-10.33v-26.5c0-3.91-1.36-7.12-4.05-9.6
						c-2.72-2.47-6.19-3.72-10.44-3.72C144.26,76.95,140.54,78.13,137.78,80.48z M152.97,89.59v27.96c0,1.37-0.42,2.46-1.23,3.25
						c-0.82,0.78-1.93,1.17-3.32,1.17c-1.36,0-2.4-0.37-3.13-1.16c-0.73-0.77-1.09-1.85-1.09-3.26V89.59c0-1.11,0.4-2.01,1.16-2.72
						c0.8-0.69,1.8-1.02,3.06-1.02c1.36,0,2.45,0.34,3.28,1.02C152.54,87.57,152.97,88.47,152.97,89.59z"/>
					<path class="st3" d="M200.98,129.55v-51.3h-10.25v38.94c-0.95,1.11-2,2.03-3.15,2.76c-1.17,0.72-2.12,1.08-2.87,1.08
						c-0.96,0-1.66-0.27-2.09-0.83c-0.42-0.54-0.66-1.41-0.66-2.62V78.25h-10.24v42.88c0,3.06,0.61,5.34,1.8,6.86
						c1.21,1.53,2.98,2.31,5.35,2.31c1.93,0,3.9-0.56,5.94-1.64c2.06-1.1,4.03-2.7,5.91-4.79v5.68H200.98z"/>
				</g>
			</g>
		</g>
	</g>
</g>
<g id="Github" class="st0">
	<g class="st1">
		<path class="st7" d="M294,221.99c0,39.77-32.24,72.01-72,72.01H78c-39.77,0-72-32.24-72-72.01V78C6,38.23,38.23,6,78,6h144
			c39.76,0,72,32.23,72,72V221.99z"/>
		<path id="path9-5_5_" class="st3" d="M86.19,142.42c-0.28,0,3.08,7.24,3.18,7.24c7.34,13.32,21.49,21.6,45.36,23.89
			c-3.41,2.59-7.5,7.5-8.07,13.16c-4.28,2.76-12.9,3.68-19.59,1.57c-9.39-2.96-12.98-21.53-27.03-18.88
			c-3.04,0.57-2.44,2.58,0.19,4.28c4.29,2.77,8.31,6.24,11.42,13.61c2.39,5.66,7.41,15.78,23.29,15.78c6.3,0,10.71-0.76,10.71-0.76
			s0.12,14.46,0.12,20.08c0,6.49-8.76,8.31-8.76,11.43c0,1.23,2.9,1.35,5.23,1.35c4.6,0,14.18-3.84,14.18-10.58
			c0-5.35,0.09-23.35,0.09-26.5c0-6.88,3.69-9.06,3.69-9.06s0.46,36.75-0.88,41.68c-1.57,5.79-4.41,4.97-4.41,7.55
			c0,3.85,11.53,0.94,15.35-7.5c2.95-6.57,1.66-42.62,1.66-42.62l3.15-0.07c0,0,0.18,16.5,0.07,24.05c-0.11,7.81-0.64,17.69,4,22.35
			c3.05,3.06,12.93,8.44,12.93,3.53c0-2.85-5.42-5.2-5.42-12.92v-35.55c4.33,0,3.68,11.68,3.68,11.68l0.31,21.72
			c0,0-0.95,7.91,8.57,11.22c3.36,1.18,10.54,1.49,10.88-0.47c0.34-1.97-8.65-4.91-8.74-11.04c-0.06-3.73,0.17-5.91,0.17-22.16
			c0-16.25-2.19-22.25-9.79-27.03c23.47-2.41,38-8.21,45.07-23.75c0.55,0.01,2.89-7.26,2.58-7.26c1.59-5.87,2.45-12.81,2.61-21.03
			c-0.04-22.29-10.71-30.17-12.76-33.87c3.02-16.88-0.51-24.55-2.15-27.19c-6.05-2.15-21.04,5.53-29.23,10.94
			c-13.34-3.9-41.57-3.53-52.15,1.01c-19.53-13.98-29.86-11.83-29.86-11.83s-6.68,11.96-1.76,29.46
			c-6.42,8.19-11.21,13.98-11.21,29.32C82.88,127.93,83.9,135.67,86.19,142.42L86.19,142.42z"/>
	</g>
</g>
<g id="Twitch" class="st0">
	<g class="st1">
		<path class="st8" d="M294,221.99c0,39.77-32.24,72.01-72,72.01H78c-39.77,0-72-32.24-72-72.01V78C6,38.23,38.23,6,78,6h144
			c39.76,0,72,32.23,72,72V221.99z"/>
	</g>
	<g class="st1">
		<path class="st3" d="M82.32,57.5L57.5,82.32v138.5h43.36v21.68h29.74l21.68-21.68h54.56l35.66-35.66V57.5H82.32z M220.82,163.48
			L196,188.3h-43.72l-29.38,29.38V188.3H90.02V79.18h130.8V163.48z"/>
		<path class="st3" d="M177.46,117.12h10.84v33.24h-10.84V117.12z"/>
		<path class="st3" d="M144.58,117.12h10.84v33.24h-10.84V117.12z"/>
	</g>
</g>
<g id="Instagram">
	<g>
		<path class="st9" d="M294,221.99c0,39.77-32.24,72.01-72,72.01H78c-39.77,0-72-32.24-72-72.01V78C6,38.23,38.23,6,78,6h144
			c39.76,0,72,32.23,72,72V221.99z"/>
		<g>
			<path class="st3" d="M205.21,60H94.78C75.6,60,60,75.6,60,94.78v36.75v73.69C60,224.4,75.6,240,94.78,240h110.43
				c19.18,0,34.79-15.6,34.79-34.78v-73.69V94.78C240,75.6,224.39,60,205.21,60z M215.19,80.75l3.97-0.02v3.97v26.53l-30.4,0.11
				l-0.11-30.5L215.19,80.75z M124.31,131.53c5.77-7.98,15.12-13.21,25.69-13.21s19.92,5.23,25.69,13.21c3.75,5.2,6,11.58,6,18.47
				c0,17.46-14.23,31.68-31.69,31.68c-17.47,0-31.69-14.21-31.69-31.68C118.31,143.11,120.56,136.73,124.31,131.53z M222.47,205.22
				c0,9.52-7.75,17.25-17.26,17.25H94.78c-9.52,0-17.25-7.73-17.25-17.25v-73.69h26.87c-2.32,5.71-3.62,11.94-3.62,18.47
				c0,27.14,22.08,49.22,49.22,49.22c27.14,0,49.22-22.08,49.22-49.22c0-6.53-1.31-12.76-3.63-18.47h26.88V205.22z"/>
		</g>
	</g>
</g>
</svg>
