<svg id="Layer_1" data-name="Layer 1" xmlns="http://www.w3.org/2000/svg" width="683.74" height="154.44" viewBox="0 0 683.74 154.44">
  <g id="Typeface_Logo" data-name="Typeface Logo">
    <g id="Black_Label" data-name="Black Label">
      <g id="Group_77" data-name="Group 77">
        <path id="Path_6087" data-name="Path 6087" d="M341.87,4.8H662.76c12.75,0,19.06-3.47,21-4.8-1,1.6-6,8.66-21,8.66H21.11C6.17,8.66,1,1.6,0,0,1.92,1.33,8.22,4.8,21.11,4.8Z" fill="#fff" fill-rule="evenodd"/>
        <path id="Path_6088" data-name="Path 6088" d="M341.87,149.64H662.76c12.75,0,19.06,3.47,21,4.8-1-1.6-6-8.67-21-8.67H21.11C6.17,145.77,1,152.84,0,154.44c1.92-1.34,8.22-4.8,21.11-4.8Z" fill="#fff" fill-rule="evenodd"/>
      </g>
    </g>
    <g id="Group_86" data-name="Group 86">
      <g id="Group_85" data-name="Group 85">
        <g id="Group_78" data-name="Group 78">
          <path id="Path_6089" data-name="Path 6089" d="M13.91,126.07l-3.67-24.61,3.29,2.18a16.54,16.54,0,0,0,6.38,2.53,49.33,49.33,0,0,0,8.14.61H57.17c1.78,0,2.2-.43,2.24-.47s.51-.69.51-2.79v-3a9.13,9.13,0,0,0-.51-3.73c-.12-.24-.69-.39-1.49-.39H34.43c-8,0-13.84-1.35-17.75-4.11-4.11-2.91-6.12-8.59-6.12-17.39V48.7c0-8,2.26-13.7,6.73-16.94a28.65,28.65,0,0,1,17.15-4.7H89.93l3.9,25.36-3.48-2.73A14,14,0,0,0,85,47.08a30.29,30.29,0,0,0-7-.74H49.18A5.8,5.8,0,0,0,46,47c-.43.31-.68,1.22-.68,2.53v3.26c0,2.79.59,3.3.61,3.3a8.48,8.48,0,0,0,4.28.61H70.7A30.39,30.39,0,0,1,88.35,61c4.13,3,6.22,8.82,6.22,17.41v26.1c0,8-2.24,13.7-6.66,16.9a28.87,28.87,0,0,1-17.21,4.64Z" fill="#f2f2f2"/>
          <path id="Path_6090" data-name="Path 6090" d="M88.4,28.82l3,19.5a15.62,15.62,0,0,0-6.06-2.94,32.11,32.11,0,0,0-7.44-.79H49.16a7.36,7.36,0,0,0-4.18,1,4.52,4.52,0,0,0-1.44,4v3.27c0,2.55.46,4.14,1.37,4.75a10.21,10.21,0,0,0,5.25.92h20.5a28.58,28.58,0,0,1,16.62,4q5.5,3.94,5.51,16v26.11q0,11.17-5.94,15.48a27.06,27.06,0,0,1-16.18,4.3H15.42l-2.87-19.21a18.21,18.21,0,0,0,7.06,2.8,50.6,50.6,0,0,0,8.43.64H57.16a4.61,4.61,0,0,0,3.56-1.07,6.17,6.17,0,0,0,.94-4v-3A10.7,10.7,0,0,0,61,96c-.46-.91-1.48-1.36-3.06-1.36H34.42q-11.37,0-16.74-3.8T12.3,74.9V48.72q0-11.16,6-15.52a26.85,26.85,0,0,1,16.12-4.37h54m3-3.51h-57a30.37,30.37,0,0,0-18.18,5C11.3,34,8.79,40.13,8.79,48.72V74.9c0,9.41,2.25,15.56,6.86,18.82,4.23,3,10.37,4.43,18.77,4.43H58a13.49,13.49,0,0,1,.16,2.37v3A7.91,7.91,0,0,1,58,105a5.14,5.14,0,0,1-.88.05H28a48,48,0,0,1-7.85-.59,14.6,14.6,0,0,1-5.71-2.26L7.9,97.84l1.17,7.79,2.87,19.21.45,3H70.64a30.46,30.46,0,0,0,18.24-5c4.9-3.55,7.39-9.71,7.39-18.32V78.44c0-9.31-2.28-15.47-7-18.84A31.67,31.67,0,0,0,70.64,55H50.14a13.4,13.4,0,0,1-3-.24A8.83,8.83,0,0,1,47,52.85V49.58a4.64,4.64,0,0,1,.12-1.18,5.42,5.42,0,0,1,2-.28H77.89a28.86,28.86,0,0,1,6.62.7,12,12,0,0,1,4.71,2.28l7,5.46-1.35-8.75-3-19.5-.45-3Z"/>
        </g>
        <g id="Group_79" data-name="Group 79">
          <path id="Path_6091" data-name="Path 6091" d="M154.11,126.07l-30.6-70.84v54.92a31,31,0,0,0,.76,7.24,21.58,21.58,0,0,0,2.49,6l1.58,2.66H101.4L103,123.4a20.85,20.85,0,0,0,2.41-6.14,32.14,32.14,0,0,0,.83-7.12V43a30.88,30.88,0,0,0-.77-7.24,21.52,21.52,0,0,0-2.49-6l-1.57-2.65h49.48l29.2,69.22V43a31,31,0,0,0-.77-7.25,22.05,22.05,0,0,0-2.48-6l-1.58-2.65h27l-1.67,2.69a19.6,19.6,0,0,0-2.47,6,32.22,32.22,0,0,0-.77,7.26v83.07Z" fill="#f2f2f2"/>
          <path id="Path_6092" data-name="Path 6092" d="M199.12,28.82a21.45,21.45,0,0,0-2.69,6.51,33.94,33.94,0,0,0-.81,7.65V124.3H155.26L121.77,46.74v63.41a32.16,32.16,0,0,0,.81,7.64,23.39,23.39,0,0,0,2.69,6.52H104.52a22.25,22.25,0,0,0,2.62-6.66,33.45,33.45,0,0,0,.88-7.52V43a32.83,32.83,0,0,0-.81-7.65,23.63,23.63,0,0,0-2.69-6.51h45.23L181.88,105V43a32.77,32.77,0,0,0-.81-7.65,23.69,23.69,0,0,0-2.69-6.52h20.74m6.32-3.5H172.21l3.15,5.3a20.23,20.23,0,0,1,2.3,5.54,29.71,29.71,0,0,1,.71,6.84V87.62L153,27.46l-.92-2.14H98.36l3.15,5.29a20.09,20.09,0,0,1,2.29,5.55,29.63,29.63,0,0,1,.71,6.83v67.15a29.89,29.89,0,0,1-.78,6.73,18.85,18.85,0,0,1-2.2,5.61l-3.26,5.34h33.17l-3.16-5.3A19.9,19.9,0,0,1,126,117a29,29,0,0,1-.72-6.83V63.72l26.76,62,.92,2.12h46.18V43a30.55,30.55,0,0,1,.72-6.87,18.05,18.05,0,0,1,2.25-5.45l3.34-5.36Z"/>
        </g>
        <g id="Group_80" data-name="Group 80">
          <path id="Path_6093" data-name="Path 6093" d="M235.61,126.07a20.18,20.18,0,0,1-17.49-8.18A35.36,35.36,0,0,1,212.49,97V43a31.42,31.42,0,0,0-.77-7.24,21.52,21.52,0,0,0-2.49-6l-1.57-2.65h44.82l-1.63,2.67a20.52,20.52,0,0,0-2.41,6.13,31.56,31.56,0,0,0-.83,7.12V97.38a16.69,16.69,0,0,0,1.19,7.84c.62,1,2.48,1.57,5.3,1.57h25.75c1.93,0,4.4-.28,5.17-1.58a16.53,16.53,0,0,0,1.2-7.84V43a32.8,32.8,0,0,0-.77-7.26,19.6,19.6,0,0,0-2.47-6l-1.67-2.68h27l-1.63,2.66a20.58,20.58,0,0,0-2.41,6.14,31.56,31.56,0,0,0-.83,7.12V97a55.85,55.85,0,0,1-1,11.47,22.8,22.8,0,0,1-4.32,9.07,20.86,20.86,0,0,1-8,6.47,23.28,23.28,0,0,1-9.72,2.09Z" fill="#f2f2f2"/>
          <path id="Path_6094" data-name="Path 6094" d="M305.21,28.82a22.16,22.16,0,0,0-2.63,6.66,33.87,33.87,0,0,0-.87,7.51V97a54.25,54.25,0,0,1-.94,11.09,21,21,0,0,1-4,8.38,19,19,0,0,1-7.31,5.94,21.29,21.29,0,0,1-9,1.93H235.6a18.38,18.38,0,0,1-16-7.44A33.55,33.55,0,0,1,214.24,97V43a32.84,32.84,0,0,0-.82-7.65,23.6,23.6,0,0,0-2.68-6.51h38.61a22.16,22.16,0,0,0-2.63,6.66,33.28,33.28,0,0,0-.87,7.51V97.38a18.53,18.53,0,0,0,1.44,8.73q1.43,2.44,6.81,2.45h25.74q5.25,0,6.68-2.45A18.53,18.53,0,0,0,288,97.38V43a33.94,33.94,0,0,0-.81-7.65,21.43,21.43,0,0,0-2.68-6.51h20.74m6.26-3.51H278.15l3.34,5.36a18.09,18.09,0,0,1,2.24,5.46,30.41,30.41,0,0,1,.73,6.86V97.38a15.25,15.25,0,0,1-1,7c-.08.13-1,.7-3.67.7H254.09c-3.1,0-3.79-.7-3.79-.71a15.22,15.22,0,0,1-1-6.94V43a29.9,29.9,0,0,1,.79-6.73,18.75,18.75,0,0,1,2.2-5.62l3.26-5.33h-51l3.15,5.3A19.9,19.9,0,0,1,210,36.15a29.1,29.1,0,0,1,.72,6.83V97a37.11,37.11,0,0,0,6,21.94,21.76,21.76,0,0,0,18.91,8.91h44.86a25.08,25.08,0,0,0,10.45-2.24,22.76,22.76,0,0,0,8.65-7,24.69,24.69,0,0,0,4.64-9.78,58.67,58.67,0,0,0,1-11.83V43a29.89,29.89,0,0,1,.78-6.73,18.91,18.91,0,0,1,2.2-5.62l3.27-5.34Z"/>
        </g>
        <g id="Group_81" data-name="Group 81">
          <path id="Path_6095" data-name="Path 6095" d="M378.9,126.07l-.31-1.38c-.16-.76-.32-1.58-.46-2.47a7.45,7.45,0,0,1-2.36,1.81,27.41,27.41,0,0,1-11.83,2H339.82a29.17,29.17,0,0,1-17.34-4.56c-4.33-3.15-6.53-8.9-6.53-17.1V48.58c0-8.11,2.24-13.82,6.67-17a29.27,29.27,0,0,1,17.2-4.54h61.62L405,51l-3.25-2.1a13.71,13.71,0,0,0-5.33-2.11,45.81,45.81,0,0,0-7.21-.48H357.57c-2.82,0-4.7.55-5.3,1.57a16.38,16.38,0,0,0-1.19,7.83V97.38a16.44,16.44,0,0,0,1.19,7.84c.61,1,2.48,1.57,5.3,1.57h9c1.19,0,3.27-.16,3.82-1.22a15.76,15.76,0,0,0,.92-6.7V84.05h-6.18a25.82,25.82,0,0,0-4.89.4A18.11,18.11,0,0,0,355.82,86l-2.53,1.23V65.33h57.77L409.39,68a20,20,0,0,0-2.46,6,32.63,32.63,0,0,0-.77,7.3v28.76a32.63,32.63,0,0,0,.77,7.3,20,20,0,0,0,2.47,6l1.66,2.68Z" fill="#f2f2f2"/>
          <path id="Path_6096" data-name="Path 6096" d="M399.93,28.82l2.76,18.64a15.6,15.6,0,0,0-6-2.37,48.31,48.31,0,0,0-7.5-.5H357.57q-5.38,0-6.81,2.45a18.49,18.49,0,0,0-1.44,8.72V97.4a18.55,18.55,0,0,0,1.44,8.73q1.42,2.45,6.81,2.42h9q4.24,0,5.37-2.16a17.69,17.69,0,0,0,1.12-7.49V82.32h-7.93a27.73,27.73,0,0,0-5.22.43,19.8,19.8,0,0,0-4.84,1.72V67.12h52.86a21.62,21.62,0,0,0-2.69,6.54,34.35,34.35,0,0,0-.81,7.69v28.76a34.38,34.38,0,0,0,.81,7.7,21.46,21.46,0,0,0,2.69,6.53H380.31q-.49-2.28-.87-5.37c-.25-2.06-.46-3.75-.61-5.09q0,6.74-3.82,8.6A25.81,25.81,0,0,1,364,124.34H339.84a27.27,27.27,0,0,1-16.31-4.22q-5.82-4.22-5.82-15.67V48.58q0-11.32,5.94-15.54a27.48,27.48,0,0,1,16.18-4.22h60.11m3-3.5H339.83a30.89,30.89,0,0,0-18.22,4.87c-4.92,3.5-7.41,9.68-7.41,18.39v55.83c0,8.79,2.45,15,7.26,18.52a30.78,30.78,0,0,0,18.35,4.9h24.12a29,29,0,0,0,12.61-2.22l.41-.22.53,2.45h36.75l-3.33-5.36a17.87,17.87,0,0,1-2.25-5.48,30.75,30.75,0,0,1-.72-6.9V81.34a30.75,30.75,0,0,1,.72-6.9A17.87,17.87,0,0,1,410.9,69l3.33-5.36H352.82V55.75a15.36,15.36,0,0,1,.95-6.94s.69-.71,3.79-.71h31.62a46.06,46.06,0,0,1,6.94.46,11.94,11.94,0,0,1,4.65,1.84l6.5,4.21-1.13-7.67L403.39,28.3l-.44-3ZM352.84,89.45l3.78-1.83a16.18,16.18,0,0,1,4-1.43,23.89,23.89,0,0,1,4.55-.37h4.42V98.9a15.47,15.47,0,0,1-.69,5.81,5,5,0,0,1-2.3.35h-9c-3.1,0-3.79-.7-3.79-.71a15.19,15.19,0,0,1-1-6.94v-8Z"/>
        </g>
        <g id="Group_82" data-name="Group 82">
          <path id="Path_6097" data-name="Path 6097" d="M475.75,126.07l-.31-1.38c-.17-.76-.32-1.58-.47-2.47a7.34,7.34,0,0,1-2.36,1.81,27.36,27.36,0,0,1-11.83,2H436.66a29.14,29.14,0,0,1-17.33-4.56c-4.34-3.15-6.54-8.9-6.54-17.1V48.58c0-8.11,2.25-13.82,6.68-17a29.23,29.23,0,0,1,17.19-4.54h61.63l3.54,24-3.26-2.1a13.73,13.73,0,0,0-5.32-2.11,45.86,45.86,0,0,0-7.22-.48H454.41c-2.82,0-4.7.55-5.3,1.57a16.63,16.63,0,0,0-1.19,7.83V97.38a16.69,16.69,0,0,0,1.19,7.84c.62,1,2.48,1.57,5.31,1.57h9c1.2,0,3.27-.16,3.82-1.22a15.76,15.76,0,0,0,.92-6.7V84.05H462a25.82,25.82,0,0,0-4.89.4A18.11,18.11,0,0,0,452.67,86l-2.53,1.23V65.33h57.77L506.24,68a20,20,0,0,0-2.46,6,32.63,32.63,0,0,0-.77,7.3v28.76a32.63,32.63,0,0,0,.77,7.3,19.72,19.72,0,0,0,2.47,6l1.66,2.68Z" fill="#f2f2f2"/>
          <path id="Path_6098" data-name="Path 6098" d="M496.78,28.82l2.75,18.64a15.54,15.54,0,0,0-6-2.37,48.22,48.22,0,0,0-7.5-.5H454.42q-5.39,0-6.81,2.45a18.49,18.49,0,0,0-1.44,8.72V97.4a18.55,18.55,0,0,0,1.44,8.73q1.42,2.45,6.81,2.42h9q4.26,0,5.38-2.16a17.54,17.54,0,0,0,1.12-7.49V82.32H462a27.83,27.83,0,0,0-5.23.43,19.8,19.8,0,0,0-4.84,1.72V67.12h52.86a21.62,21.62,0,0,0-2.69,6.54,34.35,34.35,0,0,0-.81,7.69v28.76a34.38,34.38,0,0,0,.81,7.7,21.46,21.46,0,0,0,2.69,6.53H477.16q-.5-2.28-.87-5.37c-.25-2.06-.45-3.75-.61-5.09q0,6.74-3.81,8.6a25.84,25.84,0,0,1-11.06,1.86H436.69a27.29,27.29,0,0,1-16.31-4.22q-5.81-4.22-5.81-15.67V48.58q0-11.32,5.93-15.54a27.52,27.52,0,0,1,16.19-4.22h60.1m3-3.5H436.67a30.89,30.89,0,0,0-18.22,4.87c-4.91,3.5-7.41,9.68-7.41,18.39v55.83c0,8.79,2.45,15,7.26,18.52a30.81,30.81,0,0,0,18.36,4.9h24.12a28.94,28.94,0,0,0,12.6-2.22l.41-.22.53,2.45h36.75l-3.32-5.36A17.87,17.87,0,0,1,505.5,117a30.76,30.76,0,0,1-.73-6.9V81.34a30.76,30.76,0,0,1,.73-6.9A17.87,17.87,0,0,1,507.75,69l3.32-5.36h-61.4V55.75a15.36,15.36,0,0,1,.95-6.94s.69-.71,3.79-.71H486a46.06,46.06,0,0,1,6.94.46,11.88,11.88,0,0,1,4.65,1.84l6.5,4.21L503,46.94,500.24,28.3l-.44-3ZM449.69,89.45l3.78-1.83a16.18,16.18,0,0,1,4-1.43,24,24,0,0,1,4.55-.37h4.43V98.9a15.47,15.47,0,0,1-.69,5.81,5,5,0,0,1-2.3.35h-9c-3.1,0-3.79-.7-3.8-.71a15.18,15.18,0,0,1-.94-6.94v-8Z"/>
        </g>
        <g id="Group_83" data-name="Group 83">
          <path id="Path_6099" data-name="Path 6099" d="M507.53,126.07l1.62-2.67a20.58,20.58,0,0,0,2.41-6.14,31,31,0,0,0,.83-7.12V43a30.87,30.87,0,0,0-.76-7.24,21.52,21.52,0,0,0-2.49-6l-1.57-2.65h45l-1.67,2.68a19.78,19.78,0,0,0-2.46,6,32.28,32.28,0,0,0-.77,7.26v63.8h28a17.15,17.15,0,0,0,5.14-.7,12.55,12.55,0,0,0,4.22-2.47l3.49-3L585,126.07Z" fill="#f2f2f2"/>
          <path id="Path_6100" data-name="Path 6100" d="M549.39,28.82a21.18,21.18,0,0,0-2.68,6.51A33.37,33.37,0,0,0,545.9,43v65.55h29.74a18.22,18.22,0,0,0,5.68-.79,14.22,14.22,0,0,0,4.82-2.79l-2.63,19.36H510.65a22.25,22.25,0,0,0,2.62-6.66,33.45,33.45,0,0,0,.88-7.52V43a32.84,32.84,0,0,0-.82-7.65,23.6,23.6,0,0,0-2.68-6.51h38.74m6.32-3.51H504.48l3.15,5.3a19.84,19.84,0,0,1,2.29,5.55,29,29,0,0,1,.72,6.83v67.15a30,30,0,0,1-.79,6.73,19,19,0,0,1-2.2,5.61l-3.26,5.34h82.18l.41-3,2.63-19.36,1.22-9-7,5.89a11,11,0,0,1-3.62,2.14,15.31,15.31,0,0,1-4.61.62H549.39V43a30.55,30.55,0,0,1,.72-6.87,17.75,17.75,0,0,1,2.25-5.44l3.34-5.37Z"/>
        </g>
        <g id="Group_84" data-name="Group 84">
          <path id="Path_6101" data-name="Path 6101" d="M590.5,126.07l1.63-2.67a20.58,20.58,0,0,0,2.41-6.14,31.56,31.56,0,0,0,.83-7.12V43a31.41,31.41,0,0,0-.76-7.24,21.82,21.82,0,0,0-2.49-6l-1.58-2.65h78l3,22.6-2.8-1.16a26.23,26.23,0,0,0-6.26-1.68,55,55,0,0,0-7.7-.48H630.49V65.93h23.74a44.07,44.07,0,0,0,6.18-.34A17.55,17.55,0,0,0,665.34,64l2.51-1.2V89.51L665,87.09a7.88,7.88,0,0,0-3.43-1.71,24,24,0,0,0-4.94-.46H630.49V106.8H659.6a16.35,16.35,0,0,0,3.82-.45,71.84,71.84,0,0,0,7.39-2.72l2.84-1.16-3.41,23.6Z" fill="#f2f2f2"/>
          <path id="Path_6102" data-name="Path 6102" d="M667,28.82l2.37,18a27.16,27.16,0,0,0-6.68-1.79,56.91,56.91,0,0,0-7.94-.5h-26V67.66h25.5a46,46,0,0,0,6.42-.36,19.31,19.31,0,0,0,5.44-1.79V85.73a9.47,9.47,0,0,0-4.19-2.08,24.84,24.84,0,0,0-5.31-.51H628.72v25.38h30.86a17.39,17.39,0,0,0,4.25-.5,70.83,70.83,0,0,0,7.62-2.79L668.7,124.3H593.63a22.51,22.51,0,0,0,2.62-6.66,33.38,33.38,0,0,0,.88-7.52V43a32.84,32.84,0,0,0-.82-7.65,23.6,23.6,0,0,0-2.68-6.51H667m3.08-3.52H587.45l3.15,5.3a20.09,20.09,0,0,1,2.29,5.55,29,29,0,0,1,.72,6.83v67.15a30,30,0,0,1-.79,6.73,19,19,0,0,1-2.2,5.61l-3.26,5.34h84.4l.43-3,2.75-19.07.88-6.06L670.15,102a65.19,65.19,0,0,1-7.15,2.64,14,14,0,0,1-3.4.4H632.24V86.67H656.6a22,22,0,0,1,4.57.42,6.19,6.19,0,0,1,2.67,1.34l5.76,4.85V60l-5,2.4a16.19,16.19,0,0,1-4.43,1.49,43.48,43.48,0,0,1-5.93.32h-22V48.1h22.48a54.6,54.6,0,0,1,7.45.47A24,24,0,0,1,668,50.13l5.61,2.32-.79-6-2.37-18-.4-3.06Z"/>
        </g>
      </g>
      <g id="Emboss_Lines" data-name="Emboss Lines">
        <path id="Path_6103" data-name="Path 6103" d="M294.75,112.66c-3.65,4.59-9.08,5.88-15.61,5.88h-43.4c-8.81,0-13.82-5.38-13.82-19.34V32.06h-2.37V99.2c0,14.86,5.42,22.53,16.19,22.53h43.41c7.37,0,12.71-2.79,15.6-9.07Z" fill-rule="evenodd"/>
        <path id="Path_6106" data-name="Path 6106" d="M65.52,93.06a10.24,10.24,0,0,1,2.62,7.74c0,11.92-8.69,10.61-12.85,10.61H22.71a14,14,0,0,1-5.12-.84v8.78h2.75v-5.92a5.72,5.72,0,0,0,1.43.12H55.29c4.41,0,14.89-.18,14.89-10.93a10.54,10.54,0,0,0-4.65-9.56Z" fill-rule="evenodd"/>
        <path id="Path_6107" data-name="Path 6107" d="M110.32,120.29a7.56,7.56,0,0,0,4.05-6.61l-1.19-76.8c0-1.14,2.23-3.2,2.1-3.58h31.91c.13-1.28.39-.61.64-1.89H110.32a12.62,12.62,0,0,1,1.27,6v76.27a15.85,15.85,0,0,1-1.27,6.62Z" fill-rule="evenodd"/>
        <path id="Path_6108" data-name="Path 6108" d="M519,120.29a7.57,7.57,0,0,0,4.06-6.61l-1.2-76.8c0-1.14,2.23-3.2,2.1-3.58h17c.13-1.28,2.14-.61,2.39-1.89H519a12.74,12.74,0,0,1,1.27,6v76.27a16,16,0,0,1-1.27,6.62Z" fill-rule="evenodd"/>
        <path id="Path_6109" data-name="Path 6109" d="M403.54,121.49c-1.91-.76-2.39-3.87-2.39-6.93l-.47-39.43c0-1.14-2.23-3.2-2.1-3.58H366.66c-.13-1.28-.38-.62-.64-1.89h37.52a12.62,12.62,0,0,0-1.27,6v39.23a15.77,15.77,0,0,0,1.27,6.61Z" fill-rule="evenodd"/>
        <path id="Path_6110" data-name="Path 6110" d="M329.37,119.14c-4.44-4.15-5.69-10.32-5.69-17.75V49.84c0-10,5.2-15.72,18.71-15.72h55.17l-1.19-2.69h-54c-14.36,0-21.79,6.17-21.79,18.41v51.55c0,8.39,2.7,14.47,8.78,17.75Z" fill-rule="evenodd"/>
        <path id="Path_6111" data-name="Path 6111" d="M345.55,107.39c.81,3.59,4,6.22,9.4,6.22h12.37a4,4,0,0,0,3.65-2.36,7.25,7.25,0,0,1-2.84.54H355A10.51,10.51,0,0,1,345.55,107.39Z" fill-rule="evenodd"/>
        <path id="Path_6113" data-name="Path 6113" d="M500.32,121.49c-1.91-.76-2.39-3.87-2.39-6.93l-.47-39.43c0-1.14-2.23-3.2-2.1-3.58H463.45c-.13-1.28-.39-.62-.64-1.89h37.51a12.62,12.62,0,0,0-1.27,6v39.23a15.77,15.77,0,0,0,1.27,6.61Z" fill-rule="evenodd"/>
        <path id="Path_6114" data-name="Path 6114" d="M426.15,119.14c-4.43-4.15-5.69-10.32-5.69-17.75V49.84c0-10,5.21-15.72,18.71-15.72h55.16l-1.19-2.69h-54c-14.38,0-21.79,6.17-21.79,18.41v51.55c0,8.39,2.7,14.47,8.77,17.75Z" fill-rule="evenodd"/>
        <path id="Path_6115" data-name="Path 6115" d="M24.68,88.07C20.25,83.92,19,77.75,19,70.32V49.83c0-10,.42-15.72,13.92-15.72H82.11l-1.19-2.7h-48c-14.38,0-17,6.17-17,18.42v20.5c0,8.38,2.7,14.46,8.77,17.74Z" fill-rule="evenodd"/>
        <path id="Path_6116" data-name="Path 6116" d="M442.34,107.39c.81,3.59,4,6.22,9.39,6.22h12.38a4,4,0,0,0,3.65-2.36,7.28,7.28,0,0,1-2.84.54H451.74a10.51,10.51,0,0,1-9.4-4.4Z" fill-rule="evenodd"/>
        <path id="Path_6117" data-name="Path 6117" d="M664,33.77l-1.2-2.34h-62.4a7.43,7.43,0,0,1,.84,3.84V117a9.41,9.41,0,0,1-.84,4.34,5.54,5.54,0,0,0,3.42-4.34V35.27a6.83,6.83,0,0,0-.08-1.5H664Z" fill-rule="evenodd"/>
        <path id="Path_6118" data-name="Path 6118" d="M622,113.76h40c2.32,0,4.2-3.13,4.43-4-.7.31-1.95,1.89-3.5,1.89H619.8l2.17,2.09Z" fill-rule="evenodd"/>
        <path id="Path_6119" data-name="Path 6119" d="M537.14,113.76h40c2.32,0,4.19-3.13,4.43-4-.7.31-2,1.89-3.51,1.89H535l2.17,2.09Z" fill-rule="evenodd"/>
        <path id="Path_6120" data-name="Path 6120" d="M623.25,73.49h34.38V71.24H621l2.25,2.25Z" fill-rule="evenodd"/>
        <path id="Path_6121" data-name="Path 6121" d="M183.21,108.59a3.79,3.79,0,0,0,2.29-2.9V34.05a4.25,4.25,0,0,0-.11-1.06h8.76c.07-.52.16-1.05.28-1.56H183.21a5.53,5.53,0,0,1,.56,2.62V105.7a7.07,7.07,0,0,1-.56,2.9Z" fill-rule="evenodd"/>
        <path id="Path_6122" data-name="Path 6122" d="M289.55,107.4a3.81,3.81,0,0,0,2.29-2.91V34.05a4.25,4.25,0,0,0-.11-1.06h8.76a13.78,13.78,0,0,1,.28-1.56H289.54a5.53,5.53,0,0,1,.56,2.62v70.44a6.77,6.77,0,0,1-.56,2.91Z" fill-rule="evenodd"/>
        <path id="Path_6123" data-name="Path 6123" d="M122.09,42.65a8.54,8.54,0,0,1,2.52,3.25l33,72.21a10.62,10.62,0,0,1,1.17,4.38h0A5.81,5.81,0,0,0,160,117L127,44.75a5.86,5.86,0,0,0-.86-1.39" fill-rule="evenodd"/>
      </g>
    </g>
  </g>
</svg>
