<svg id="Layer_1" data-name="Layer 1" xmlns="http://www.w3.org/2000/svg" width="584.24" height="143.06" viewBox="0 0 584.24 143.06">
  <defs>
    <style>
      .cls-1 {
        fill: #fff;
      }

      .cls-1, .cls-3 {
        fill-rule: evenodd;
      }

      .cls-2 {
        fill: #f2f2f2;
      }

      .cls-3 {
        fill: #231f20;
      }
    </style>
  </defs>
  <g>
    <g id="Black_Label" data-name="Black Label">
      <rect width="584.24" height="143.06" rx="25.52"/>
      <g>
        <path class="cls-1" d="M292.37,13.84H548.28c10.16,0,15.19-2.91,16.72-4-.77,1.34-4.81,7.25-16.72,7.25H36.58c-11.92,0-16.07-5.91-16.84-7.25,1.54,1.11,6.56,4,16.84,4Z" transform="translate(-0.25 -2.94)"/>
        <path class="cls-1" d="M292.37,135.1H548.28c10.16,0,15.19,2.91,16.72,4-.77-1.34-4.81-7.25-16.72-7.25H36.58c-11.92,0-16.07,5.91-16.84,7.25,1.54-1.11,6.56-4,16.84-4Z" transform="translate(-0.25 -2.94)"/>
      </g>
    </g>
    <g>
      <path class="cls-2" d="M79.05,49.52A13,13,0,0,0,74,47.06a27,27,0,0,0-6.23-.66H43.69a6.13,6.13,0,0,0-3.51.83q-1.2.83-1.2,3.33v2.73c0,2.14.38,3.46,1.15,4s2.23.77,4.4.77H61.68Q71,58,75.6,61.34t4.6,13.39V96.58q0,9.36-5,13t-13.55,3.6H15.44L13,97.06a15.27,15.27,0,0,0,5.91,2.34,42.61,42.61,0,0,0,7.07.54H50.39a3.88,3.88,0,0,0,3-.9,5.17,5.17,0,0,0,.78-3.3V93.22a9.16,9.16,0,0,0-.57-3.79c-.39-.75-1.24-1.14-2.57-1.14H31.34q-9.53,0-14-3.17t-4.5-13.36V49.84q0-9.33,5-13t13.49-3.66h45.2Z" transform="translate(-0.25 -2.94)"/>
      <path class="cls-2" d="M154.8,96.94V45.05a27.11,27.11,0,0,0-.68-6.41,19.53,19.53,0,0,0-2.25-5.45h17.37A18.2,18.2,0,0,0,167,38.65a28.52,28.52,0,0,0-.68,6.41v68.08H132.52l-28-64.94v53.08a27,27,0,0,0,.68,6.41,19.29,19.29,0,0,0,2.25,5.45H90a18.47,18.47,0,0,0,2.2-5.57,28.39,28.39,0,0,0,.73-6.29V45.06a27.52,27.52,0,0,0-.68-6.41A19.77,19.77,0,0,0,90,33.19h37.87Z" transform="translate(-0.25 -2.94)"/>
      <path class="cls-2" d="M211.3,33.19a18.69,18.69,0,0,0-2.2,5.57,28.48,28.48,0,0,0-.73,6.3V90.59c0,3.52.4,6,1.2,7.31s2.71,2,5.71,2h21.55c2.93,0,4.79-.68,5.6-2s1.2-3.79,1.2-7.31V45.06a28.67,28.67,0,0,0-.68-6.42,17.74,17.74,0,0,0-2.25-5.45h17.37a18.64,18.64,0,0,0-2.2,5.58,27.74,27.74,0,0,0-.73,6.29V90.25a45.72,45.72,0,0,1-.78,9.29,17.62,17.62,0,0,1-3.35,7,16,16,0,0,1-6.12,5,18,18,0,0,1-7.54,1.61H199.79q-9,0-13.44-6.23T181.9,90.25V45.06a27.52,27.52,0,0,0-.68-6.41A19.47,19.47,0,0,0,179,33.19Z" transform="translate(-0.25 -2.94)"/>
      <path class="cls-2" d="M339.68,48.8a13,13,0,0,0-5-2,40.38,40.38,0,0,0-6.28-.42H301.91q-4.5,0-5.7,2T295,55.74V90.6c0,3.51.4,6,1.21,7.3s2.7,2,5.7,2h7.53q3.56,0,4.5-1.81t.94-6.28V78h-6.64a23.14,23.14,0,0,0-4.37.36,16.76,16.76,0,0,0-4.06,1.44V65.24h44.26a18.32,18.32,0,0,0-2.25,5.48,28.86,28.86,0,0,0-.68,6.44v24.07a28.86,28.86,0,0,0,.68,6.44,18.15,18.15,0,0,0,2.25,5.47H321c-.28-1.27-.52-2.77-.73-4.5s-.39-3.14-.53-4.26c0,3.76-1.06,6.17-3.19,7.2s-5.21,1.56-9.26,1.56H287.05q-8.79,0-13.65-3.53t-4.87-13.13V49.73q0-9.46,5-13t13.55-3.54h50.33Z" transform="translate(-0.25 -2.94)"/>
      <path class="cls-2" d="M420.76,48.8a12.94,12.94,0,0,0-5-2,40.29,40.29,0,0,0-6.28-.42H383q-4.5,0-5.7,2t-1.2,7.31V90.6c0,3.51.4,6,1.2,7.3s2.7,2,5.7,2h7.54q3.56,0,4.5-1.81c.62-1.21.94-3.3.94-6.28V78h-6.64a23.06,23.06,0,0,0-4.37.36,16.76,16.76,0,0,0-4.06,1.44V65.24h44.26a17.81,17.81,0,0,0-2.25,5.48,28.28,28.28,0,0,0-.68,6.44v24.07a28.28,28.28,0,0,0,.68,6.44,17.65,17.65,0,0,0,2.25,5.47H402c-.28-1.27-.53-2.77-.74-4.5s-.38-3.14-.52-4.26c0,3.76-1.06,6.17-3.19,7.2s-5.22,1.56-9.26,1.56H368.14q-8.79,0-13.66-3.53t-4.86-13.13V49.73q0-9.46,5-13t13.55-3.54h50.32Z" transform="translate(-0.25 -2.94)"/>
      <path class="cls-2" d="M491.07,113.14h-61a18.73,18.73,0,0,0,2.19-5.57,27.81,27.81,0,0,0,.73-6.29V45.06a27,27,0,0,0-.68-6.41,19.74,19.74,0,0,0-2.24-5.46h32.43a17.74,17.74,0,0,0-2.25,5.45,28.67,28.67,0,0,0-.68,6.42V99.94h24.9a15.51,15.51,0,0,0,4.76-.66,12.09,12.09,0,0,0,4-2.34Z" transform="translate(-0.25 -2.94)"/>
      <path class="cls-2" d="M529,65.72h21.34a37.16,37.16,0,0,0,5.39-.3,15.56,15.56,0,0,0,4.55-1.5V80.85a8.06,8.06,0,0,0-3.51-1.74,21.06,21.06,0,0,0-4.44-.42H529V99.94h25.84a14.65,14.65,0,0,0,3.56-.42,60.28,60.28,0,0,0,6.38-2.34l-2.3,16H499.55a18.73,18.73,0,0,0,2.19-5.57,27.83,27.83,0,0,0,.74-6.29V45.06a27.52,27.52,0,0,0-.68-6.41,20.08,20.08,0,0,0-2.25-5.46H561l2,15.13a23,23,0,0,0-5.6-1.5,47.77,47.77,0,0,0-6.64-.42H529Z" transform="translate(-0.25 -2.94)"/>
    </g>
    <g id="Emboss_Lines" data-name="Emboss Lines">
      <path class="cls-3" d="M249.31,103.39c-3.05,3.84-7.6,4.92-13.07,4.92H199.91c-7.39,0-11.57-4.5-11.57-16.19V35.91h-2V92.12c0,12.44,4.54,18.87,13.56,18.87h36.33c6.18,0,10.65-2.34,13.07-7.6Z" transform="translate(-0.25 -2.94)"/>
      <path class="cls-3" d="M328.47,74.51" transform="translate(-0.25 -2.94)"/>
      <path class="cls-3" d="M267.17,74.51" transform="translate(-0.25 -2.94)"/>
      <path class="cls-3" d="M57.38,87c1.4,1.39,2.2,3.39,2.2,6.48,0,10-7.28,8.88-10.77,8.88H21.55a11.54,11.54,0,0,1-4.29-.7V109h2.29v-5a4.48,4.48,0,0,0,1.2.1H48.81c3.69,0,12.47-.15,12.47-9.15,0-3.49-1.4-6.71-3.9-8Z" transform="translate(-0.25 -2.94)"/>
      <path class="cls-3" d="M94.9,109.78a6.36,6.36,0,0,0,3.39-5.54L97.29,40c0-1,1.87-2.69,1.76-3h26.72c.11-1.06.32-.51.53-1.57H94.9a10.56,10.56,0,0,1,1.06,5v63.86a13.37,13.37,0,0,1-1.06,5.54Z" transform="translate(-0.25 -2.94)"/>
      <path class="cls-3" d="M437,109.78a6.34,6.34,0,0,0,3.39-5.54l-1-64.28c0-1,1.87-2.69,1.76-3h14.25c.11-1.06,1.79-.51,2-1.57H437a10.55,10.55,0,0,1,1.07,5v63.86a13.35,13.35,0,0,1-1.07,5.54Z" transform="translate(-0.25 -2.94)"/>
      <path class="cls-3" d="M340.39,110.78c-1.59-.64-2-3.24-2-5.8L338,72c0-1-1.87-2.68-1.76-3H309.52c-.11-1.07-.32-.52-.53-1.58h31.4a10.56,10.56,0,0,0-1.06,5v32.85a13.37,13.37,0,0,0,1.06,5.54Z" transform="translate(-0.25 -2.94)"/>
      <path class="cls-3" d="M278.3,108.81c-3.72-3.47-4.76-8.64-4.76-14.85V50.79c0-8.39,4.35-13.15,15.66-13.15h46.19l-1-2.26H289.2c-12,0-18.25,5.16-18.25,15.41V94c0,7,2.26,12.11,7.35,14.85Z" transform="translate(-0.25 -2.94)"/>
      <path class="cls-3" d="M291.85,99c.68,3,3.34,5.21,7.87,5.21h10.35a3.38,3.38,0,0,0,3.06-2,6,6,0,0,1-2.38.45h-11c-3.63,0-6.34-1.3-7.87-3.68Z" transform="translate(-0.25 -2.94)"/>
      <path class="cls-3" d="M409.5,74.51" transform="translate(-0.25 -2.94)"/>
      <path class="cls-3" d="M421.43,110.78c-1.6-.64-2-3.24-2-5.8L419,72c0-1-1.86-2.68-1.76-3H390.55c-.1-1.07-.32-.52-.53-1.58h31.41a10.55,10.55,0,0,0-1.07,5v32.85a13.19,13.19,0,0,0,1.07,5.54Z" transform="translate(-0.25 -2.94)"/>
      <path class="cls-3" d="M359.33,108.81c-3.71-3.47-4.76-8.64-4.76-14.85V50.79c0-8.39,4.36-13.15,15.66-13.15h46.19l-1-2.26H370.23c-12,0-18.24,5.16-18.24,15.41V94c0,7,2.26,12.11,7.34,14.85Z" transform="translate(-0.25 -2.94)"/>
      <path class="cls-3" d="M23.19,82.8c-3.71-3.47-4.76-8.64-4.76-14.85V50.79c0-8.39.35-13.15,11.66-13.15H71.28l-1-2.26H30.09c-12,0-14.25,5.16-14.25,15.41V68c0,7,2.27,12.11,7.35,14.85Z" transform="translate(-0.25 -2.94)"/>
      <path class="cls-3" d="M372.88,99c.68,3,3.34,5.21,7.87,5.21h10.36a3.4,3.4,0,0,0,3.06-2,6,6,0,0,1-2.38.45h-11c-3.62,0-6.34-1.3-7.87-3.68Z" transform="translate(-0.25 -2.94)"/>
      <path class="cls-3" d="M558.48,37.33l-1-1.95H505.24a6.23,6.23,0,0,1,.7,3.21V107a8,8,0,0,1-.7,3.64c1-.35,2.87-1.89,2.87-3.64V38.59a6.06,6.06,0,0,0-.07-1.26h50.44Z" transform="translate(-0.25 -2.94)"/>
      <path class="cls-3" d="M523.28,104.31h33.49c2,0,3.52-2.62,3.71-3.33-.58.26-1.63,1.58-2.93,1.58H521.47l1.81,1.75Z" transform="translate(-0.25 -2.94)"/>
      <path class="cls-3" d="M452.25,104.31h33.49c1.95,0,3.52-2.62,3.71-3.33-.58.26-1.63,1.58-2.93,1.58H450.44l1.81,1.75Z" transform="translate(-0.25 -2.94)"/>
      <polygon class="cls-3" points="524.1 67.65 552.89 67.65 552.89 65.77 522.22 65.77 524.1 67.65 524.1 67.65"/>
      <path class="cls-3" d="M155.92,100a3.18,3.18,0,0,0,1.92-2.43v-60a3.63,3.63,0,0,0-.09-.88h7.34a11.58,11.58,0,0,1,.23-1.31h-9.4a4.63,4.63,0,0,1,.47,2.19v60a5.68,5.68,0,0,1-.47,2.43Z" transform="translate(-0.25 -2.94)"/>
      <path class="cls-3" d="M245,99a3.18,3.18,0,0,0,1.92-2.43v-59a3.06,3.06,0,0,0-.1-.88h7.34a11.61,11.61,0,0,1,.24-1.31H245a4.63,4.63,0,0,1,.47,2.19v59A5.84,5.84,0,0,1,245,99Z" transform="translate(-0.25 -2.94)"/>
      <path class="cls-3" d="M104.75,44.78a7,7,0,0,1,2.11,2.72l27.66,60.44a8.93,8.93,0,0,1,1,3.67h0c.78-.86,1.77-3.09,1-4.64L108.86,46.53a5,5,0,0,0-.72-1.16" transform="translate(-0.25 -2.94)"/>
    </g>
  </g>
</svg>
